<svg width="141" height="141" viewBox="0 0 141 141" fill="none" xmlns="http://www.w3.org/2000/svg">
<path d="M4.05765 118.911C-0.823904 123.793 -0.823904 131.707 4.05765 136.589C8.9392 141.47 16.8538 141.47 21.7353 136.589L12.8965 127.75L4.05765 118.911ZM140.25 12.8965C140.25 5.99295 134.654 0.396508 127.75 0.396508L15.25 0.396508C8.34642 0.396508 2.74998 5.99295 2.74998 12.8965C2.74998 19.8001 8.34642 25.3965 15.25 25.3965H115.25V125.397C115.25 132.3 120.846 137.897 127.75 137.897C134.654 137.897 140.25 132.3 140.25 125.397L140.25 12.8965ZM12.8965 127.75L21.7353 136.589L136.589 21.7353L127.75 12.8965L118.911 4.05767L4.05765 118.911L12.8965 127.75Z" fill="black"/>
</svg>
