<svg width="589" height="670" viewBox="0 0 589 670" fill="none" xmlns="http://www.w3.org/2000/svg">
<path fill-rule="evenodd" clip-rule="evenodd" d="M230.27 0C237.009 12.4811 247.901 31.012 257.287 52.5371C266.674 74.0641 274.576 98.6312 275.329 123.222C276.831 172.297 266.816 217.857 254.806 255.39C248.811 274.124 245.189 288.362 242.19 300.73C239.193 313.096 236.813 323.616 233.307 334.886C227.232 354.412 220.025 378.076 216.919 388.241C229.155 368.766 259.458 322.714 268.426 310.442C273.165 303.957 283.157 288.844 292.594 273.846C302.04 258.832 310.887 243.997 313.367 238.045C318.317 226.166 321.317 204.798 311.361 178.414C301.304 151.761 306.337 130.63 311.358 116.569C313.856 109.575 317.229 99.583 319.976 90.4678C321.349 85.9099 322.565 81.5759 323.437 77.9482C324.312 74.3043 324.829 71.4205 324.829 69.7373L325.793 69.5518C327.762 74.4745 333.553 85.9527 338.363 99.5703C343.183 113.215 347.09 129.181 345.325 143.3C341.826 171.293 341.32 182.365 330.285 206.942C325.889 216.734 322.977 224.014 321.124 229.133C319.266 234.266 318.483 237.197 318.324 238.308L318.313 238.384L318.28 238.453C310.782 254.115 292.866 289.684 281.24 306.521C270.941 321.438 247.5 360.369 233.519 383.942C239.507 376.128 247.642 366.132 253.494 360.865C263.523 351.84 288.06 334.816 296.541 328.829C300.756 325.854 307.856 319.627 314.468 312.704C321.093 305.767 327.153 298.204 329.363 292.555C330.484 289.69 331.698 286.112 333.115 282.109C334.53 278.114 336.144 273.712 338.057 269.229C341.879 260.268 346.909 250.95 353.976 243.884C368.024 229.835 390.122 212.259 428.271 207.741L429.702 207.571L428.683 208.591C420.208 217.066 413.749 224.519 407.282 238.448C400.763 252.49 394.223 262.56 382.647 272.123C376.855 276.908 368.313 281.804 359.754 286.427C351.171 291.063 342.576 295.422 336.594 299.161C328.421 304.269 322.343 310.964 319.432 314.837C326.164 311.359 338.767 305.186 347.165 302.265C352.908 300.267 362.775 296.645 371.953 292.899C376.542 291.026 380.954 289.124 384.59 287.38C388.241 285.629 391.062 284.059 392.509 282.854C393.989 281.62 396.22 279.421 399.15 276.537C402.072 273.662 405.671 270.126 409.864 266.245C418.251 258.484 429.026 249.338 441.56 241.316C466.628 225.272 502.743 211.224 545.887 216.24C563.093 218.241 573.779 219.994 580.147 221.374C583.329 222.063 585.45 222.663 586.772 223.16C587.43 223.407 587.916 223.637 588.24 223.854C588.401 223.962 588.548 224.083 588.654 224.222C588.76 224.36 588.864 224.569 588.822 224.819L588.766 225.162L588.425 225.229C582.489 226.383 566.858 231.389 552.124 242.142C542.904 248.869 533.74 256.273 524.171 262.715C514.587 269.167 504.535 274.699 493.461 277.72C471.396 283.737 442.319 284.239 425.859 285.236C417.593 285.737 411.382 285.986 405.046 287.166C398.723 288.344 392.266 290.453 383.548 294.688C366.021 303.201 339.996 312.708 334.5 314.707C333.852 314.943 332.188 315.753 329.707 317.066C327.24 318.372 323.995 320.158 320.202 322.327C312.616 326.667 302.843 332.537 292.728 339.155C282.611 345.775 272.158 353.139 263.208 360.468C254.988 367.198 248.067 373.875 243.829 379.896C262.005 370.481 272.325 365.56 279.176 362.286C286.241 358.91 289.586 357.299 294.052 354.321C298.556 351.318 311.826 342.555 327.602 334.479C343.356 326.415 361.696 318.99 376.32 318.737L376.926 318.727C405.941 318.224 448.342 317.492 499.123 354.333L498.729 355.227C481.757 351.732 463.886 349.759 445.033 358.193C426.037 366.692 401.434 376.744 376.299 375.236C363.756 374.484 351.054 370.968 337.109 368.291C323.136 365.609 307.821 363.743 289.897 366.232C255.422 371.021 223.652 398.901 207.556 429.894C213.241 423.208 221.191 413.366 230.22 404.015C240.726 393.133 252.796 382.805 264.668 378.764L264.892 378.688C288.259 370.733 302.83 365.768 325.872 367.739L326.942 367.831L326.183 368.591C318.677 376.096 312.922 381.477 307.986 386.162C303.05 390.848 298.938 394.837 294.702 399.57C290.399 404.38 282.718 409.912 274.387 414.61C266.053 419.31 257.003 423.212 249.934 424.727C235.988 427.715 203.152 438.669 184.257 469.995C169.46 494.527 132.242 573.299 114.156 612.472C124.051 601.544 142.058 581.931 149.484 574.875C154.492 570.118 163.006 562.73 171.059 555.552C179.133 548.353 186.723 541.383 189.941 537.422C193.187 533.427 206.575 516.285 224.402 497.332C242.221 478.388 264.517 457.587 285.593 446.297C327.627 423.779 361.196 413.247 386.79 411.239C407.193 409.639 432.628 407.905 442.796 407.238L444.662 407.116L443.106 408.153C438.127 411.473 425.558 420.817 415.189 431.584C402.19 445.083 373.658 472.619 356.609 484.151C339.57 495.678 303.514 515.207 260.943 525.224C239.726 530.216 218.633 537.581 200.727 545.879C182.809 554.182 168.124 563.401 159.688 572.086C146.919 585.231 115.179 622.674 98.2617 642.905C106.653 636.463 121.29 626.106 133.615 620.285C138.061 618.186 142.9 614.747 148.289 610.576C153.657 606.422 159.593 601.524 166.153 596.588C179.299 586.698 195.109 576.529 214.699 571.255C234.217 566 251.017 562.737 268.646 562.862C286.277 562.988 304.71 566.503 327.5 574.768L328.951 575.294L327.467 575.718C313.463 579.719 304.864 582.337 297.77 585.262C290.686 588.182 285.091 591.414 277.104 596.655C261.2 607.092 251.032 619.727 223.856 621.236C210.317 621.988 197.887 620.484 185.86 619.736C173.815 618.987 162.138 618.993 149.976 622.716C125.541 630.196 95.1396 647.15 77.2197 669.55L77.0195 669.8L76.708 669.723C71.8175 668.5 67.8816 665.822 66.5 664.613L66.1182 664.279L66.458 663.902C71.8505 657.929 80.0531 647.21 87.1045 634.495C94.1593 621.774 100.036 607.101 100.83 593.209C102.829 558.22 100.812 535.896 84.9424 516.555C80.948 511.686 76.5465 506.63 72.1084 501.543C67.6721 496.458 63.1991 491.344 59.0693 486.369C50.8266 476.44 43.8885 466.998 41.3545 459.396C38.8463 451.871 35.9657 439.844 33.0938 428.106C30.2154 416.343 27.3481 404.88 24.8623 398.417C22.3691 391.935 18.127 382.327 13.5107 373.469C11.2027 369.04 8.80474 364.804 6.48828 361.244C4.16637 357.676 1.94658 354.817 0 353.113L0.50293 352.269C7.30331 354.787 21.3392 362.06 35.8555 371.695C50.3691 381.329 65.4299 393.369 74.2334 405.442C91.7649 429.486 105.829 455.089 105.829 493.237C105.829 512.255 105.078 520.019 104.703 525.272C104.331 530.477 104.328 533.187 105.822 542.155C108.282 556.915 108.394 573.675 108.079 582.592C110.282 574.138 113.955 558.256 116.71 539.788C120.083 517.178 122.073 490.742 118.337 469.323C110.843 426.357 107.834 412.812 106.832 403.29C106.714 402.17 106.234 400.517 105.447 398.416C104.664 396.325 103.591 393.827 102.312 391.031C99.7532 385.439 96.3832 378.681 92.8818 371.647C85.8933 357.608 78.3638 342.429 75.8477 333.371C70.8247 315.289 68.8264 279.716 73.334 249.164C75.128 237.005 74.9176 227.847 73.9346 221.35C72.9483 214.831 71.1923 211.039 69.9463 209.56L70.6699 208.871C76.6056 214.389 85.9988 224.209 94.9121 235.757C103.821 247.298 112.278 260.602 116.305 273.084C126.307 304.092 130.336 327.673 129.327 339.779C129.074 342.822 128.127 347.387 126.862 352.728C125.596 358.075 124 364.24 122.439 370.483C119.309 383.007 116.329 395.813 116.329 403.237C116.329 418.185 120.319 440.634 122.322 452.655C123.323 458.661 124.45 466.296 125.201 473.246C125.677 477.648 126.005 481.804 126.05 485.103C128.977 473.587 131.148 460.15 129.831 444.78C128.326 427.219 129.829 413.126 136.876 398.025C140.387 390.502 143.899 384.606 147.084 379.111C150.271 373.612 153.127 368.519 155.361 362.562C159.869 350.54 161.829 345.129 161.829 338.237L162.797 338.062C167.281 350.02 176.333 366.131 175.329 395.255C174.323 424.425 156.228 448.539 152.233 454.031C150.191 456.84 144.622 463.386 139.181 471.454C133.749 479.508 128.557 488.929 127.324 497.31C126.079 505.778 125.829 514.994 125.391 524.323C124.953 533.636 124.327 543.051 122.316 551.849C119.118 565.841 114.315 583.049 111.231 592.477C127.331 563.418 176.235 467.745 181.375 456.529C184.109 450.565 187.474 440.845 190.094 430.305C192.714 419.761 194.577 408.435 194.329 399.251C194.08 390.024 193.083 379.182 190.717 368.723C188.35 358.258 184.62 348.207 178.928 340.535C167.409 325.01 153.344 299.421 151.331 278.285C149.33 257.274 150.327 238.69 149.829 224.255C149.579 216.997 149.33 208.774 148.334 201.492C147.836 197.853 147.154 194.463 146.198 191.558C145.241 188.647 144.02 186.254 142.463 184.577L143.168 183.87C169.173 207.875 189.268 226.956 200.31 265.099C205.831 284.173 206.33 301.985 205.328 318.33C204.827 326.501 203.951 334.31 203.139 341.722C202.326 349.138 201.578 356.152 201.329 362.756C200.423 386.757 201.162 399.754 198.307 415.451C202.54 405.551 209.958 388.669 216.798 370.375C224.862 348.807 232.081 325.382 232.329 309.229C232.828 276.774 227.333 236.331 218.854 210.393C210.35 184.382 199.811 142.774 207.339 106.137C214.843 69.6188 218.347 58.6046 222.848 42.6016C227.352 26.5855 230.819 12.6817 229.333 0.296875L230.27 0ZM289.328 576.237C275.828 575.237 233.328 583.737 216.828 588.237C203.628 591.837 178 602.833 161 611C199 596.5 254.828 583.237 289.328 576.237ZM407.828 419.237C392.628 421.637 330.828 455.904 301.828 472.737L334.828 440.737C318.161 454.237 284.228 481.837 281.828 484.237C279.428 486.637 262.828 495.904 254.828 500.237C261.328 492.237 274.628 475.037 275.828 470.237C272.328 475.737 238.828 512.737 226.828 519.737C217.228 525.337 195.328 540.237 195.328 540.237C232.5 519.737 248 514 285.328 503.737C285.328 503.737 258.828 507.237 244.328 511.737C255.328 501.237 387.828 430.737 407.828 419.237ZM32.8281 385.237C60.0372 414.673 87.7499 486.421 91.7812 502.52C95.8123 518.617 97.3242 518.617 97.8281 515.857C91.7815 452.203 51.9754 402.255 32.8281 385.237ZM164.828 373.237C164.028 387.637 145.161 443.571 135.828 469.737C141.661 456.237 153.928 427.537 156.328 420.737C159.328 412.237 163.828 396.237 164.828 373.237ZM300.328 378.737C292.328 379.737 275.828 385 254.828 397C238.028 406.6 232.495 416.333 226.828 422.5C244.828 406.5 275.828 388.5 300.328 378.737ZM84.3281 243.237C92.6339 284.109 109.544 370.929 110.74 391.237C114.229 372.079 101.77 272.933 84.3281 243.237ZM453.328 342.737C433.328 334.737 397 335.5 372.828 337.737C348.656 339.975 313.995 350.5 301.828 357C317.661 352.5 351.228 344.737 370.828 342.737C395.328 340.237 420.828 340.237 453.328 342.737ZM163.328 218.237C184.828 267.737 187.5 312.237 195.5 342.737C191.5 265.537 173.495 233.904 163.328 218.237ZM400.828 224.737C380.028 231.937 347.167 275.333 333 297C337.5 294.5 346.328 286.737 353.828 277.237C361.328 267.737 384.328 240.737 400.828 224.737ZM238.328 36.7373C241.328 50.2373 243.828 109.237 242.328 143.737C241.128 171.337 241.828 213.237 242.328 230.737C240.818 225.903 236.295 212.252 229.505 193.655C228.814 191.507 228.089 189.524 227.328 187.737C228.077 189.76 228.803 191.734 229.505 193.655C237.163 217.483 240.564 261.598 241.328 282.237C242.161 273.904 244.128 253.737 245.328 239.737C246.828 222.237 256.328 198.237 261.828 176.237C256.328 184.737 250.828 199.737 246.828 215.737C246.828 145.737 259.328 106.237 256.328 111.737C253.928 116.137 248.995 147.237 246.828 162.237C246.328 129.404 243.928 58.3373 238.328 36.7373ZM553.828 227.237C521.046 225.468 452.784 256.861 418.5 277.237C432.833 271.904 453.479 266.086 467.328 259.237C488.769 248.634 512.58 239.879 553.828 227.237ZM328.5 96.5C331 134 327 176.5 325.5 198.5C337 162.237 334.5 133.5 328.5 96.5Z" fill="url(#paint0_linear_551_75)"/>
<defs>
<linearGradient id="paint0_linear_551_75" x1="227.832" y1="629" x2="472.832" y2="257" gradientUnits="userSpaceOnUse">
<stop stop-color="#FFE9D7"/>
<stop offset="1" stop-color="#5401C0"/>
</linearGradient>
</defs>
</svg>
