<svg width="628" height="670" viewBox="0 0 628 670" fill="none" xmlns="http://www.w3.org/2000/svg">
<path fill-rule="evenodd" clip-rule="evenodd" d="M397.73 0C390.991 12.4811 380.099 31.012 370.713 52.5371C361.326 74.0641 353.424 98.6312 352.671 123.222C351.169 172.297 361.184 217.857 373.194 255.39C379.189 274.124 382.811 288.362 385.81 300.73C388.807 313.096 391.187 323.616 394.693 334.886C400.768 354.412 407.975 378.076 411.081 388.241C398.845 368.766 368.542 322.714 359.574 310.442C354.835 303.957 344.843 288.844 335.406 273.846C325.96 258.832 317.113 243.997 314.633 238.045C309.683 226.166 306.683 204.798 316.639 178.414C326.696 151.761 321.663 130.63 316.642 116.569C314.144 109.575 310.771 99.583 308.024 90.4678C306.651 85.9099 305.435 81.5759 304.563 77.9482C303.688 74.3043 303.171 71.4205 303.171 69.7373L302.207 69.5518C300.238 74.4745 294.447 85.9527 289.637 99.5703C284.817 113.215 280.91 129.181 282.675 143.3C286.174 171.293 286.68 182.365 297.715 206.942C302.111 216.734 305.023 224.014 306.876 229.133C308.734 234.266 309.517 237.197 309.676 238.308L309.687 238.384L309.72 238.453C317.218 254.115 335.134 289.684 346.76 306.521C357.059 321.438 380.5 360.369 394.481 383.942C388.493 376.128 380.358 366.132 374.506 360.865C364.477 351.84 339.94 334.816 331.459 328.829C327.244 325.854 320.144 319.627 313.532 312.704C306.907 305.767 300.847 298.204 298.637 292.555C297.516 289.69 296.302 286.112 294.885 282.109C293.47 278.114 291.856 273.712 289.943 269.229C286.121 260.268 281.091 250.95 274.024 243.884C259.976 229.835 237.878 212.259 199.729 207.741L198.298 207.571L199.317 208.591C207.792 217.066 214.251 224.519 220.718 238.448C227.237 252.49 233.777 262.56 245.353 272.123C251.145 276.908 259.687 281.804 268.246 286.427C276.829 291.063 285.424 295.422 291.406 299.161C299.579 304.269 305.657 310.964 308.568 314.837C301.836 311.359 289.233 305.186 280.835 302.265C275.092 300.267 265.225 296.645 256.047 292.899C251.458 291.026 247.046 289.124 243.41 287.38C239.759 285.629 236.938 284.059 235.491 282.854C234.011 281.62 231.78 279.421 228.85 276.537C225.928 273.662 222.329 270.126 218.136 266.245C209.749 258.484 198.974 249.338 186.44 241.316C161.372 225.272 125.257 211.224 82.1133 216.24C64.9065 218.241 54.2214 219.994 47.8525 221.374C44.6707 222.063 42.5502 222.663 41.2275 223.16C40.5701 223.407 40.0843 223.637 39.7598 223.854C39.5989 223.962 39.4521 224.083 39.3457 224.222C39.2398 224.36 39.136 224.569 39.1777 224.819L39.2344 225.162L39.5752 225.229C45.5113 226.383 61.1416 231.389 75.876 242.142C85.0956 248.869 94.2597 256.273 103.829 262.715C113.413 269.167 123.465 274.699 134.539 277.72C156.604 283.737 185.681 284.239 202.141 285.236C210.407 285.737 216.618 285.986 222.954 287.166C229.277 288.344 235.734 290.453 244.452 294.688C261.979 303.201 288.004 312.708 293.5 314.707C294.148 314.943 295.812 315.753 298.293 317.066C300.76 318.372 304.005 320.158 307.798 322.327C315.384 326.667 325.157 332.537 335.272 339.155C345.389 345.775 355.842 353.139 364.792 360.468C373.012 367.198 379.933 373.875 384.171 379.896C365.995 370.481 355.675 365.56 348.824 362.286C341.759 358.91 338.414 357.299 333.948 354.321C329.444 351.318 316.174 342.555 300.398 334.479C284.644 326.415 266.304 318.99 251.68 318.737L251.074 318.727C222.059 318.224 179.658 317.492 128.877 354.333L129.271 355.227C146.243 351.732 164.114 349.759 182.967 358.193C201.963 366.692 226.566 376.744 251.701 375.236C264.244 374.484 276.946 370.968 290.891 368.291C304.864 365.609 320.179 363.743 338.103 366.232C372.578 371.021 404.348 398.901 420.444 429.894C414.759 423.208 406.809 413.366 397.78 404.015C387.274 393.133 375.204 382.805 363.332 378.764L363.108 378.688C339.741 370.733 325.17 365.768 302.128 367.739L301.058 367.831L301.817 368.591C309.323 376.096 315.078 381.477 320.014 386.162C324.95 390.848 329.062 394.837 333.298 399.57C337.601 404.38 345.282 409.912 353.613 414.61C361.947 419.31 370.997 423.212 378.066 424.727C392.012 427.715 424.848 438.669 443.743 469.995C458.54 494.527 495.758 573.299 513.844 612.472C503.949 601.544 485.942 581.931 478.516 574.875C473.508 570.118 464.994 562.73 456.941 555.552C448.867 548.353 441.277 541.383 438.059 537.422C434.813 533.427 421.425 516.285 403.598 497.332C385.779 478.388 363.483 457.587 342.407 446.297C300.373 423.779 266.804 413.247 241.21 411.239C220.807 409.639 195.372 407.905 185.204 407.238L183.338 407.116L184.894 408.153C189.873 411.473 202.442 420.817 212.811 431.584C225.81 445.083 254.342 472.619 271.391 484.151C288.43 495.678 324.486 515.207 367.057 525.224C388.274 530.216 409.367 537.581 427.273 545.879C445.191 554.182 459.876 563.401 468.312 572.086C481.081 585.231 512.821 622.674 529.738 642.905C521.347 636.463 506.71 626.106 494.385 620.285C489.939 618.186 485.1 614.747 479.711 610.576C474.343 606.422 468.407 601.524 461.847 596.588C448.701 586.698 432.891 576.529 413.301 571.255C393.783 566 376.983 562.737 359.354 562.862C341.723 562.988 323.29 566.503 300.5 574.768L299.049 575.294L300.533 575.718C314.537 579.719 323.136 582.337 330.23 585.262C337.314 588.182 342.909 591.414 350.896 596.655C366.8 607.092 376.968 619.727 404.144 621.236C417.683 621.988 430.113 620.484 442.14 619.736C454.185 618.987 465.862 618.993 478.024 622.716C502.459 630.196 532.86 647.15 550.78 669.55L550.98 669.8L551.292 669.723C556.183 668.5 560.118 665.822 561.5 664.613L561.882 664.279L561.542 663.902C556.149 657.929 547.947 647.21 540.896 634.495C533.841 621.774 527.964 607.101 527.17 593.209C525.171 558.22 527.188 535.896 543.058 516.555C547.052 511.686 551.453 506.63 555.892 501.543C560.328 496.458 564.801 491.344 568.931 486.369C577.173 476.44 584.111 466.998 586.646 459.396C589.154 451.871 592.034 439.844 594.906 428.106C597.785 416.343 600.652 404.88 603.138 398.417C605.631 391.935 609.873 382.327 614.489 373.469C616.797 369.04 619.195 364.804 621.512 361.244C623.834 357.676 626.053 354.817 628 353.113L627.497 352.269C620.697 354.787 606.661 362.06 592.145 371.695C577.631 381.329 562.57 393.369 553.767 405.442C536.235 429.486 522.171 455.089 522.171 493.237C522.171 512.255 522.922 520.019 523.297 525.272C523.669 530.477 523.672 533.187 522.178 542.155C519.718 556.915 519.606 573.675 519.921 582.592C517.718 574.138 514.045 558.256 511.29 539.788C507.917 517.178 505.927 490.742 509.663 469.323C517.157 426.357 520.166 412.812 521.168 403.29C521.286 402.17 521.766 400.517 522.553 398.416C523.336 396.325 524.409 393.827 525.688 391.031C528.247 385.439 531.617 378.681 535.118 371.647C542.107 357.608 549.636 342.429 552.152 333.371C557.175 315.289 559.174 279.716 554.666 249.164C552.872 237.005 553.082 227.847 554.065 221.35C555.052 214.831 556.808 211.039 558.054 209.56L557.33 208.871C551.394 214.389 542.001 224.209 533.088 235.757C524.179 247.298 515.722 260.602 511.695 273.084C501.693 304.092 497.664 327.673 498.673 339.779C498.926 342.822 499.873 347.387 501.138 352.728C502.404 358.075 504 364.24 505.561 370.483C508.691 383.007 511.671 395.813 511.671 403.237C511.671 418.185 507.681 440.634 505.678 452.655C504.677 458.661 503.55 466.296 502.799 473.246C502.323 477.648 501.995 481.804 501.95 485.103C499.023 473.587 496.852 460.15 498.169 444.78C499.674 427.219 498.171 413.126 491.124 398.025C487.613 390.502 484.101 384.606 480.916 379.111C477.729 373.612 474.873 368.519 472.639 362.562C468.131 350.54 466.171 345.129 466.171 338.237L465.203 338.062C460.719 350.02 451.667 366.131 452.671 395.255C453.677 424.425 471.772 448.539 475.767 454.031C477.809 456.84 483.378 463.386 488.819 471.454C494.251 479.508 499.443 488.929 500.676 497.31C501.921 505.778 502.171 514.994 502.609 524.323C503.047 533.636 503.673 543.051 505.684 551.849C508.882 565.841 513.685 583.049 516.769 592.477C500.669 563.418 451.765 467.745 446.625 456.529C443.891 450.565 440.526 440.845 437.906 430.305C435.286 419.761 433.423 408.435 433.671 399.251C433.92 390.024 434.917 379.182 437.283 368.723C439.65 358.258 443.38 348.207 449.072 340.535C460.591 325.01 474.656 299.421 476.669 278.285C478.67 257.274 477.673 238.69 478.171 224.255C478.421 216.997 478.67 208.774 479.666 201.492C480.164 197.853 480.846 194.463 481.802 191.558C482.759 188.647 483.98 186.254 485.537 184.577L484.832 183.87C458.827 207.875 438.732 226.956 427.69 265.099C422.169 284.173 421.67 301.985 422.672 318.33C423.173 326.501 424.049 334.31 424.861 341.722C425.674 349.138 426.422 356.152 426.671 362.756C427.577 386.757 426.838 399.754 429.693 415.451C425.46 405.551 418.042 388.669 411.202 370.375C403.138 348.807 395.919 325.382 395.671 309.229C395.172 276.774 400.667 236.331 409.146 210.393C417.65 184.382 428.189 142.774 420.661 106.137C413.157 69.6188 409.653 58.6046 405.152 42.6016C400.648 26.5855 397.181 12.6817 398.667 0.296875L397.73 0ZM338.672 576.237C352.172 575.237 394.672 583.737 411.172 588.237C424.372 591.837 450 602.833 467 611C429 596.5 373.172 583.237 338.672 576.237ZM220.172 419.237C235.372 421.637 297.172 455.904 326.172 472.737L293.172 440.737C309.839 454.237 343.772 481.837 346.172 484.237C348.572 486.637 365.172 495.904 373.172 500.237C366.672 492.237 353.372 475.037 352.172 470.237C355.672 475.737 389.172 512.737 401.172 519.737C410.772 525.337 432.672 540.237 432.672 540.237C395.5 519.737 380 514 342.672 503.737C342.672 503.737 369.172 507.237 383.672 511.737C372.672 501.237 240.172 430.737 220.172 419.237ZM595.172 385.237C567.963 414.673 540.25 486.421 536.219 502.52C532.188 518.617 530.676 518.617 530.172 515.857C536.219 452.203 576.025 402.255 595.172 385.237ZM463.172 373.237C463.972 387.637 482.839 443.571 492.172 469.737C486.339 456.237 474.072 427.537 471.672 420.737C468.672 412.237 464.172 396.237 463.172 373.237ZM327.672 378.737C335.672 379.737 352.172 385 373.172 397C389.972 406.6 395.505 416.333 401.172 422.5C383.172 406.5 352.172 388.5 327.672 378.737ZM543.672 243.237C535.366 284.109 518.456 370.929 517.26 391.237C513.771 372.079 526.23 272.933 543.672 243.237ZM174.672 342.737C194.672 334.737 231 335.5 255.172 337.737C279.344 339.975 314.005 350.5 326.172 357C310.339 352.5 276.772 344.737 257.172 342.737C232.672 340.237 207.172 340.237 174.672 342.737ZM464.672 218.237C443.172 267.737 440.5 312.237 432.5 342.737C436.5 265.537 454.505 233.904 464.672 218.237ZM227.172 224.737C247.972 231.937 280.833 275.333 295 297C290.5 294.5 281.672 286.737 274.172 277.237C266.672 267.737 243.672 240.737 227.172 224.737ZM389.672 36.7373C386.672 50.2373 384.172 109.237 385.672 143.737C386.872 171.337 386.172 213.237 385.672 230.737C387.182 225.903 391.705 212.252 398.495 193.655C399.186 191.507 399.911 189.524 400.672 187.737C399.923 189.76 399.197 191.734 398.495 193.655C390.837 217.483 387.436 261.598 386.672 282.237C385.839 273.904 383.872 253.737 382.672 239.737C381.172 222.237 371.672 198.237 366.172 176.237C371.672 184.737 377.172 199.737 381.172 215.737C381.172 145.737 368.672 106.237 371.672 111.737C374.072 116.137 379.005 147.237 381.172 162.237C381.672 129.404 384.072 58.3373 389.672 36.7373ZM74.1719 227.237C106.954 225.468 175.216 256.861 209.5 277.237C195.167 271.904 174.521 266.086 160.672 259.237C139.231 248.634 115.42 239.879 74.1719 227.237ZM299.5 96.5C297 134 301 176.5 302.5 198.5C291 162.237 293.5 133.5 299.5 96.5Z" fill="#121212"/>
<mask id="mask0_551_261" style="mask-type:alpha" maskUnits="userSpaceOnUse" x="0" y="202" width="244" height="97">
<path d="M0 208.5L51.5 253.5L90.5 298.5H209L244 285L201.5 239.5L163 213L81.5 202L0 208.5Z" fill="#D9D9D9"/>
</mask>
<g mask="url(#mask0_551_261)">
<path fill-rule="evenodd" clip-rule="evenodd" d="M397.73 0C390.991 12.4811 380.099 31.012 370.713 52.5371C361.326 74.0641 353.424 98.6312 352.671 123.222C351.169 172.297 361.184 217.857 373.194 255.39C379.189 274.124 382.811 288.362 385.81 300.73C388.807 313.096 391.187 323.616 394.693 334.886C400.768 354.412 407.975 378.076 411.081 388.241C398.845 368.766 368.542 322.714 359.574 310.442C354.835 303.957 344.843 288.844 335.406 273.846C325.96 258.832 317.113 243.997 314.633 238.045C309.683 226.166 306.683 204.798 316.639 178.414C326.696 151.761 321.663 130.63 316.642 116.569C314.144 109.575 310.771 99.583 308.024 90.4678C306.651 85.9099 305.435 81.5759 304.563 77.9482C303.688 74.3043 303.171 71.4205 303.171 69.7373L302.207 69.5518C300.238 74.4745 294.447 85.9527 289.637 99.5703C284.817 113.215 280.91 129.181 282.675 143.3C286.174 171.293 286.68 182.365 297.715 206.942C302.111 216.734 305.023 224.014 306.876 229.133C308.734 234.266 309.517 237.197 309.676 238.308L309.687 238.384L309.72 238.453C317.218 254.115 335.134 289.684 346.76 306.521C357.059 321.438 380.5 360.369 394.481 383.942C388.493 376.128 380.358 366.132 374.506 360.865C364.477 351.84 339.94 334.816 331.459 328.829C327.244 325.854 320.144 319.627 313.532 312.704C306.907 305.767 300.847 298.204 298.637 292.555C297.516 289.69 296.302 286.112 294.885 282.109C293.47 278.114 291.856 273.712 289.943 269.229C286.121 260.268 281.091 250.95 274.024 243.884C259.976 229.835 237.878 212.259 199.729 207.741L198.298 207.571L199.317 208.591C207.792 217.066 214.251 224.519 220.718 238.448C227.237 252.49 233.777 262.56 245.353 272.123C251.145 276.908 259.687 281.804 268.246 286.427C276.829 291.063 285.424 295.422 291.406 299.161C299.579 304.269 305.657 310.964 308.568 314.837C301.836 311.359 289.233 305.186 280.835 302.265C275.092 300.267 265.225 296.645 256.047 292.899C251.458 291.026 247.046 289.124 243.41 287.38C239.759 285.629 236.938 284.059 235.491 282.854C234.011 281.62 231.78 279.421 228.85 276.537C225.928 273.662 222.329 270.126 218.136 266.245C209.749 258.484 198.974 249.338 186.44 241.316C161.372 225.272 125.257 211.224 82.1133 216.24C64.9065 218.241 54.2214 219.994 47.8525 221.374C44.6707 222.063 42.5502 222.663 41.2275 223.16C40.5701 223.407 40.0843 223.637 39.7598 223.854C39.5989 223.962 39.4521 224.083 39.3457 224.222C39.2398 224.36 39.136 224.569 39.1777 224.819L39.2344 225.162L39.5752 225.229C45.5113 226.383 61.1416 231.389 75.876 242.142C85.0956 248.869 94.2597 256.273 103.829 262.715C113.413 269.167 123.465 274.699 134.539 277.72C156.604 283.737 185.681 284.239 202.141 285.236C210.407 285.737 216.618 285.986 222.954 287.166C229.277 288.344 235.734 290.453 244.452 294.688C261.979 303.201 288.004 312.708 293.5 314.707C294.148 314.943 295.812 315.753 298.293 317.066C300.76 318.372 304.005 320.158 307.798 322.327C315.384 326.667 325.157 332.537 335.272 339.155C345.389 345.775 355.842 353.139 364.792 360.468C373.012 367.198 379.933 373.875 384.171 379.896C365.995 370.481 355.675 365.56 348.824 362.286C341.759 358.91 338.414 357.299 333.948 354.321C329.444 351.318 316.174 342.555 300.398 334.479C284.644 326.415 266.304 318.99 251.68 318.737L251.074 318.727C222.059 318.224 179.658 317.492 128.877 354.333L129.271 355.227C146.243 351.732 164.114 349.759 182.967 358.193C201.963 366.692 226.566 376.744 251.701 375.236C264.244 374.484 276.946 370.968 290.891 368.291C304.864 365.609 320.179 363.743 338.103 366.232C372.578 371.021 404.348 398.901 420.444 429.894C414.759 423.208 406.809 413.366 397.78 404.015C387.274 393.133 375.204 382.805 363.332 378.764L363.108 378.688C339.741 370.733 325.17 365.768 302.128 367.739L301.058 367.831L301.817 368.591C309.323 376.096 315.078 381.477 320.014 386.162C324.95 390.848 329.062 394.837 333.298 399.57C337.601 404.38 345.282 409.912 353.613 414.61C361.947 419.31 370.997 423.212 378.066 424.727C392.012 427.715 424.848 438.669 443.743 469.995C458.54 494.527 495.758 573.299 513.844 612.472C503.949 601.544 485.942 581.931 478.516 574.875C473.508 570.118 464.994 562.73 456.941 555.552C448.867 548.353 441.277 541.383 438.059 537.422C434.813 533.427 421.425 516.285 403.598 497.332C385.779 478.388 363.483 457.587 342.407 446.297C300.373 423.779 266.804 413.247 241.21 411.239C220.807 409.639 195.372 407.905 185.204 407.238L183.338 407.116L184.894 408.153C189.873 411.473 202.442 420.817 212.811 431.584C225.81 445.083 254.342 472.619 271.391 484.151C288.43 495.678 324.486 515.207 367.057 525.224C388.274 530.216 409.367 537.581 427.273 545.879C445.191 554.182 459.876 563.401 468.312 572.086C481.081 585.231 512.821 622.674 529.738 642.905C521.347 636.463 506.71 626.106 494.385 620.285C489.939 618.186 485.1 614.747 479.711 610.576C474.343 606.422 468.407 601.524 461.847 596.588C448.701 586.698 432.891 576.529 413.301 571.255C393.783 566 376.983 562.737 359.354 562.862C341.723 562.988 323.29 566.503 300.5 574.768L299.049 575.294L300.533 575.718C314.537 579.719 323.136 582.337 330.23 585.262C337.314 588.182 342.909 591.414 350.896 596.655C366.8 607.092 376.968 619.727 404.144 621.236C417.683 621.988 430.113 620.484 442.14 619.736C454.185 618.987 465.862 618.993 478.024 622.716C502.459 630.196 532.86 647.15 550.78 669.55L550.98 669.8L551.292 669.723C556.183 668.5 560.118 665.822 561.5 664.613L561.882 664.279L561.542 663.902C556.149 657.929 547.947 647.21 540.896 634.495C533.841 621.774 527.964 607.101 527.17 593.209C525.171 558.22 527.188 535.896 543.058 516.555C547.052 511.686 551.453 506.63 555.892 501.543C560.328 496.458 564.801 491.344 568.931 486.369C577.173 476.44 584.111 466.998 586.646 459.396C589.154 451.871 592.034 439.844 594.906 428.106C597.785 416.343 600.652 404.88 603.138 398.417C605.631 391.935 609.873 382.327 614.489 373.469C616.797 369.04 619.195 364.804 621.512 361.244C623.834 357.676 626.053 354.817 628 353.113L627.497 352.269C620.697 354.787 606.661 362.06 592.145 371.695C577.631 381.329 562.57 393.369 553.767 405.442C536.235 429.486 522.171 455.089 522.171 493.237C522.171 512.255 522.922 520.019 523.297 525.272C523.669 530.477 523.672 533.187 522.178 542.155C519.718 556.915 519.606 573.675 519.921 582.592C517.718 574.138 514.045 558.256 511.29 539.788C507.917 517.178 505.927 490.742 509.663 469.323C517.157 426.357 520.166 412.812 521.168 403.29C521.286 402.17 521.766 400.517 522.553 398.416C523.336 396.325 524.409 393.827 525.688 391.031C528.247 385.439 531.617 378.681 535.118 371.647C542.107 357.608 549.636 342.429 552.152 333.371C557.175 315.289 559.174 279.716 554.666 249.164C552.872 237.005 553.082 227.847 554.065 221.35C555.052 214.831 556.808 211.039 558.054 209.56L557.33 208.871C551.394 214.389 542.001 224.209 533.088 235.757C524.179 247.298 515.722 260.602 511.695 273.084C501.693 304.092 497.664 327.673 498.673 339.779C498.926 342.822 499.873 347.387 501.138 352.728C502.404 358.075 504 364.24 505.561 370.483C508.691 383.007 511.671 395.813 511.671 403.237C511.671 418.185 507.681 440.634 505.678 452.655C504.677 458.661 503.55 466.296 502.799 473.246C502.323 477.648 501.995 481.804 501.95 485.103C499.023 473.587 496.852 460.15 498.169 444.78C499.674 427.219 498.171 413.126 491.124 398.025C487.613 390.502 484.101 384.606 480.916 379.111C477.729 373.612 474.873 368.519 472.639 362.562C468.131 350.54 466.171 345.129 466.171 338.237L465.203 338.062C460.719 350.02 451.667 366.131 452.671 395.255C453.677 424.425 471.772 448.539 475.767 454.031C477.809 456.84 483.378 463.386 488.819 471.454C494.251 479.508 499.443 488.929 500.676 497.31C501.921 505.778 502.171 514.994 502.609 524.323C503.047 533.636 503.673 543.051 505.684 551.849C508.882 565.841 513.685 583.049 516.769 592.477C500.669 563.418 451.765 467.745 446.625 456.529C443.891 450.565 440.526 440.845 437.906 430.305C435.286 419.761 433.423 408.435 433.671 399.251C433.92 390.024 434.917 379.182 437.283 368.723C439.65 358.258 443.38 348.207 449.072 340.535C460.591 325.01 474.656 299.421 476.669 278.285C478.67 257.274 477.673 238.69 478.171 224.255C478.421 216.997 478.67 208.774 479.666 201.492C480.164 197.853 480.846 194.463 481.802 191.558C482.759 188.647 483.98 186.254 485.537 184.577L484.832 183.87C458.827 207.875 438.732 226.956 427.69 265.099C422.169 284.173 421.67 301.985 422.672 318.33C423.173 326.501 424.049 334.31 424.861 341.722C425.674 349.138 426.422 356.152 426.671 362.756C427.577 386.757 426.838 399.754 429.693 415.451C425.46 405.551 418.042 388.669 411.202 370.375C403.138 348.807 395.919 325.382 395.671 309.229C395.172 276.774 400.667 236.331 409.146 210.393C417.65 184.382 428.189 142.774 420.661 106.137C413.157 69.6188 409.653 58.6046 405.152 42.6016C400.648 26.5855 397.181 12.6817 398.667 0.296875L397.73 0ZM338.672 576.237C352.172 575.237 394.672 583.737 411.172 588.237C424.372 591.837 450 602.833 467 611C429 596.5 373.172 583.237 338.672 576.237ZM220.172 419.237C235.372 421.637 297.172 455.904 326.172 472.737L293.172 440.737C309.839 454.237 343.772 481.837 346.172 484.237C348.572 486.637 365.172 495.904 373.172 500.237C366.672 492.237 353.372 475.037 352.172 470.237C355.672 475.737 389.172 512.737 401.172 519.737C410.772 525.337 432.672 540.237 432.672 540.237C395.5 519.737 380 514 342.672 503.737C342.672 503.737 369.172 507.237 383.672 511.737C372.672 501.237 240.172 430.737 220.172 419.237ZM595.172 385.237C567.963 414.673 540.25 486.421 536.219 502.52C532.188 518.617 530.676 518.617 530.172 515.857C536.219 452.203 576.025 402.255 595.172 385.237ZM463.172 373.237C463.972 387.637 482.839 443.571 492.172 469.737C486.339 456.237 474.072 427.537 471.672 420.737C468.672 412.237 464.172 396.237 463.172 373.237ZM327.672 378.737C335.672 379.737 352.172 385 373.172 397C389.972 406.6 395.505 416.333 401.172 422.5C383.172 406.5 352.172 388.5 327.672 378.737ZM543.672 243.237C535.366 284.109 518.456 370.929 517.26 391.237C513.771 372.079 526.23 272.933 543.672 243.237ZM174.672 342.737C194.672 334.737 231 335.5 255.172 337.737C279.344 339.975 314.005 350.5 326.172 357C310.339 352.5 276.772 344.737 257.172 342.737C232.672 340.237 207.172 340.237 174.672 342.737ZM464.672 218.237C443.172 267.737 440.5 312.237 432.5 342.737C436.5 265.537 454.505 233.904 464.672 218.237ZM227.172 224.737C247.972 231.937 280.833 275.333 295 297C290.5 294.5 281.672 286.737 274.172 277.237C266.672 267.737 243.672 240.737 227.172 224.737ZM389.672 36.7373C386.672 50.2373 384.172 109.237 385.672 143.737C386.872 171.337 386.172 213.237 385.672 230.737C387.182 225.903 391.705 212.252 398.495 193.655C399.186 191.507 399.911 189.524 400.672 187.737C399.923 189.76 399.197 191.734 398.495 193.655C390.837 217.483 387.436 261.598 386.672 282.237C385.839 273.904 383.872 253.737 382.672 239.737C381.172 222.237 371.672 198.237 366.172 176.237C371.672 184.737 377.172 199.737 381.172 215.737C381.172 145.737 368.672 106.237 371.672 111.737C374.072 116.137 379.005 147.237 381.172 162.237C381.672 129.404 384.072 58.3373 389.672 36.7373ZM74.1719 227.237C106.954 225.468 175.216 256.861 209.5 277.237C195.167 271.904 174.521 266.086 160.672 259.237C139.231 248.634 115.42 239.879 74.1719 227.237ZM299.5 96.5C297 134 301 176.5 302.5 198.5C291 162.237 293.5 133.5 299.5 96.5Z" fill="#FF8701"/>
</g>
<mask id="mask1_551_261" style="mask-type:alpha" maskUnits="userSpaceOnUse" x="298" y="365" width="128" height="86">
<path d="M298.5 367.5L318 398.5L369.5 430.5L425.5 450.5L419.5 429L399.5 402L382 387.5L357.5 373.5L325 365.5L298.5 367.5Z" fill="#D9D9D9"/>
</mask>
<g mask="url(#mask1_551_261)">
<path fill-rule="evenodd" clip-rule="evenodd" d="M397.73 0C390.991 12.4811 380.099 31.012 370.713 52.5371C361.326 74.0641 353.424 98.6312 352.671 123.222C351.169 172.297 361.184 217.857 373.194 255.39C379.189 274.124 382.811 288.362 385.81 300.73C388.807 313.096 391.187 323.616 394.693 334.886C400.768 354.412 407.975 378.076 411.081 388.241C398.845 368.766 368.542 322.714 359.574 310.442C354.835 303.957 344.843 288.844 335.406 273.846C325.96 258.832 317.113 243.997 314.633 238.045C309.683 226.166 306.683 204.798 316.639 178.414C326.696 151.761 321.663 130.63 316.642 116.569C314.144 109.575 310.771 99.583 308.024 90.4678C306.651 85.9099 305.435 81.5759 304.563 77.9482C303.688 74.3043 303.171 71.4205 303.171 69.7373L302.207 69.5518C300.238 74.4745 294.447 85.9527 289.637 99.5703C284.817 113.215 280.91 129.181 282.675 143.3C286.174 171.293 286.68 182.365 297.715 206.942C302.111 216.734 305.023 224.014 306.876 229.133C308.734 234.266 309.517 237.197 309.676 238.308L309.687 238.384L309.72 238.453C317.218 254.115 335.134 289.684 346.76 306.521C357.059 321.438 380.5 360.369 394.481 383.942C388.493 376.128 380.358 366.132 374.506 360.865C364.477 351.84 339.94 334.816 331.459 328.829C327.244 325.854 320.144 319.627 313.532 312.704C306.907 305.767 300.847 298.204 298.637 292.555C297.516 289.69 296.302 286.112 294.885 282.109C293.47 278.114 291.856 273.712 289.943 269.229C286.121 260.268 281.091 250.95 274.024 243.884C259.976 229.835 237.878 212.259 199.729 207.741L198.298 207.571L199.317 208.591C207.792 217.066 214.251 224.519 220.718 238.448C227.237 252.49 233.777 262.56 245.353 272.123C251.145 276.908 259.687 281.804 268.246 286.427C276.829 291.063 285.424 295.422 291.406 299.161C299.579 304.269 305.657 310.964 308.568 314.837C301.836 311.359 289.233 305.186 280.835 302.265C275.092 300.267 265.225 296.645 256.047 292.899C251.458 291.026 247.046 289.124 243.41 287.38C239.759 285.629 236.938 284.059 235.491 282.854C234.011 281.62 231.78 279.421 228.85 276.537C225.928 273.662 222.329 270.126 218.136 266.245C209.749 258.484 198.974 249.338 186.44 241.316C161.372 225.272 125.257 211.224 82.1133 216.24C64.9065 218.241 54.2214 219.994 47.8525 221.374C44.6707 222.063 42.5502 222.663 41.2275 223.16C40.5701 223.407 40.0843 223.637 39.7598 223.854C39.5989 223.962 39.4521 224.083 39.3457 224.222C39.2398 224.36 39.136 224.569 39.1777 224.819L39.2344 225.162L39.5752 225.229C45.5113 226.383 61.1416 231.389 75.876 242.142C85.0956 248.869 94.2597 256.273 103.829 262.715C113.413 269.167 123.465 274.699 134.539 277.72C156.604 283.737 185.681 284.239 202.141 285.236C210.407 285.737 216.618 285.986 222.954 287.166C229.277 288.344 235.734 290.453 244.452 294.688C261.979 303.201 288.004 312.708 293.5 314.707C294.148 314.943 295.812 315.753 298.293 317.066C300.76 318.372 304.005 320.158 307.798 322.327C315.384 326.667 325.157 332.537 335.272 339.155C345.389 345.775 355.842 353.139 364.792 360.468C373.012 367.198 379.933 373.875 384.171 379.896C365.995 370.481 355.675 365.56 348.824 362.286C341.759 358.91 338.414 357.299 333.948 354.321C329.444 351.318 316.174 342.555 300.398 334.479C284.644 326.415 266.304 318.99 251.68 318.737L251.074 318.727C222.059 318.224 179.658 317.492 128.877 354.333L129.271 355.227C146.243 351.732 164.114 349.759 182.967 358.193C201.963 366.692 226.566 376.744 251.701 375.236C264.244 374.484 276.946 370.968 290.891 368.291C304.864 365.609 320.179 363.743 338.103 366.232C372.578 371.021 404.348 398.901 420.444 429.894C414.759 423.208 406.809 413.366 397.78 404.015C387.274 393.133 375.204 382.805 363.332 378.764L363.108 378.688C339.741 370.733 325.17 365.768 302.128 367.739L301.058 367.831L301.817 368.591C309.323 376.096 315.078 381.477 320.014 386.162C324.95 390.848 329.062 394.837 333.298 399.57C337.601 404.38 345.282 409.912 353.613 414.61C361.947 419.31 370.997 423.212 378.066 424.727C392.012 427.715 424.848 438.669 443.743 469.995C458.54 494.527 495.758 573.299 513.844 612.472C503.949 601.544 485.942 581.931 478.516 574.875C473.508 570.118 464.994 562.73 456.941 555.552C448.867 548.353 441.277 541.383 438.059 537.422C434.813 533.427 421.425 516.285 403.598 497.332C385.779 478.388 363.483 457.587 342.407 446.297C300.373 423.779 266.804 413.247 241.21 411.239C220.807 409.639 195.372 407.905 185.204 407.238L183.338 407.116L184.894 408.153C189.873 411.473 202.442 420.817 212.811 431.584C225.81 445.083 254.342 472.619 271.391 484.151C288.43 495.678 324.486 515.207 367.057 525.224C388.274 530.216 409.367 537.581 427.273 545.879C445.191 554.182 459.876 563.401 468.312 572.086C481.081 585.231 512.821 622.674 529.738 642.905C521.347 636.463 506.71 626.106 494.385 620.285C489.939 618.186 485.1 614.747 479.711 610.576C474.343 606.422 468.407 601.524 461.847 596.588C448.701 586.698 432.891 576.529 413.301 571.255C393.783 566 376.983 562.737 359.354 562.862C341.723 562.988 323.29 566.503 300.5 574.768L299.049 575.294L300.533 575.718C314.537 579.719 323.136 582.337 330.23 585.262C337.314 588.182 342.909 591.414 350.896 596.655C366.8 607.092 376.968 619.727 404.144 621.236C417.683 621.988 430.113 620.484 442.14 619.736C454.185 618.987 465.862 618.993 478.024 622.716C502.459 630.196 532.86 647.15 550.78 669.55L550.98 669.8L551.292 669.723C556.183 668.5 560.118 665.822 561.5 664.613L561.882 664.279L561.542 663.902C556.149 657.929 547.947 647.21 540.896 634.495C533.841 621.774 527.964 607.101 527.17 593.209C525.171 558.22 527.188 535.896 543.058 516.555C547.052 511.686 551.453 506.63 555.892 501.543C560.328 496.458 564.801 491.344 568.931 486.369C577.173 476.44 584.111 466.998 586.646 459.396C589.154 451.871 592.034 439.844 594.906 428.106C597.785 416.343 600.652 404.88 603.138 398.417C605.631 391.935 609.873 382.327 614.489 373.469C616.797 369.04 619.195 364.804 621.512 361.244C623.834 357.676 626.053 354.817 628 353.113L627.497 352.269C620.697 354.787 606.661 362.06 592.145 371.695C577.631 381.329 562.57 393.369 553.767 405.442C536.235 429.486 522.171 455.089 522.171 493.237C522.171 512.255 522.922 520.019 523.297 525.272C523.669 530.477 523.672 533.187 522.178 542.155C519.718 556.915 519.606 573.675 519.921 582.592C517.718 574.138 514.045 558.256 511.29 539.788C507.917 517.178 505.927 490.742 509.663 469.323C517.157 426.357 520.166 412.812 521.168 403.29C521.286 402.17 521.766 400.517 522.553 398.416C523.336 396.325 524.409 393.827 525.688 391.031C528.247 385.439 531.617 378.681 535.118 371.647C542.107 357.608 549.636 342.429 552.152 333.371C557.175 315.289 559.174 279.716 554.666 249.164C552.872 237.005 553.082 227.847 554.065 221.35C555.052 214.831 556.808 211.039 558.054 209.56L557.33 208.871C551.394 214.389 542.001 224.209 533.088 235.757C524.179 247.298 515.722 260.602 511.695 273.084C501.693 304.092 497.664 327.673 498.673 339.779C498.926 342.822 499.873 347.387 501.138 352.728C502.404 358.075 504 364.24 505.561 370.483C508.691 383.007 511.671 395.813 511.671 403.237C511.671 418.185 507.681 440.634 505.678 452.655C504.677 458.661 503.55 466.296 502.799 473.246C502.323 477.648 501.995 481.804 501.95 485.103C499.023 473.587 496.852 460.15 498.169 444.78C499.674 427.219 498.171 413.126 491.124 398.025C487.613 390.502 484.101 384.606 480.916 379.111C477.729 373.612 474.873 368.519 472.639 362.562C468.131 350.54 466.171 345.129 466.171 338.237L465.203 338.062C460.719 350.02 451.667 366.131 452.671 395.255C453.677 424.425 471.772 448.539 475.767 454.031C477.809 456.84 483.378 463.386 488.819 471.454C494.251 479.508 499.443 488.929 500.676 497.31C501.921 505.778 502.171 514.994 502.609 524.323C503.047 533.636 503.673 543.051 505.684 551.849C508.882 565.841 513.685 583.049 516.769 592.477C500.669 563.418 451.765 467.745 446.625 456.529C443.891 450.565 440.526 440.845 437.906 430.305C435.286 419.761 433.423 408.435 433.671 399.251C433.92 390.024 434.917 379.182 437.283 368.723C439.65 358.258 443.38 348.207 449.072 340.535C460.591 325.01 474.656 299.421 476.669 278.285C478.67 257.274 477.673 238.69 478.171 224.255C478.421 216.997 478.67 208.774 479.666 201.492C480.164 197.853 480.846 194.463 481.802 191.558C482.759 188.647 483.98 186.254 485.537 184.577L484.832 183.87C458.827 207.875 438.732 226.956 427.69 265.099C422.169 284.173 421.67 301.985 422.672 318.33C423.173 326.501 424.049 334.31 424.861 341.722C425.674 349.138 426.422 356.152 426.671 362.756C427.577 386.757 426.838 399.754 429.693 415.451C425.46 405.551 418.042 388.669 411.202 370.375C403.138 348.807 395.919 325.382 395.671 309.229C395.172 276.774 400.667 236.331 409.146 210.393C417.65 184.382 428.189 142.774 420.661 106.137C413.157 69.6188 409.653 58.6046 405.152 42.6016C400.648 26.5855 397.181 12.6817 398.667 0.296875L397.73 0ZM338.672 576.237C352.172 575.237 394.672 583.737 411.172 588.237C424.372 591.837 450 602.833 467 611C429 596.5 373.172 583.237 338.672 576.237ZM220.172 419.237C235.372 421.637 297.172 455.904 326.172 472.737L293.172 440.737C309.839 454.237 343.772 481.837 346.172 484.237C348.572 486.637 365.172 495.904 373.172 500.237C366.672 492.237 353.372 475.037 352.172 470.237C355.672 475.737 389.172 512.737 401.172 519.737C410.772 525.337 432.672 540.237 432.672 540.237C395.5 519.737 380 514 342.672 503.737C342.672 503.737 369.172 507.237 383.672 511.737C372.672 501.237 240.172 430.737 220.172 419.237ZM595.172 385.237C567.963 414.673 540.25 486.421 536.219 502.52C532.188 518.617 530.676 518.617 530.172 515.857C536.219 452.203 576.025 402.255 595.172 385.237ZM463.172 373.237C463.972 387.637 482.839 443.571 492.172 469.737C486.339 456.237 474.072 427.537 471.672 420.737C468.672 412.237 464.172 396.237 463.172 373.237ZM327.672 378.737C335.672 379.737 352.172 385 373.172 397C389.972 406.6 395.505 416.333 401.172 422.5C383.172 406.5 352.172 388.5 327.672 378.737ZM543.672 243.237C535.366 284.109 518.456 370.929 517.26 391.237C513.771 372.079 526.23 272.933 543.672 243.237ZM174.672 342.737C194.672 334.737 231 335.5 255.172 337.737C279.344 339.975 314.005 350.5 326.172 357C310.339 352.5 276.772 344.737 257.172 342.737C232.672 340.237 207.172 340.237 174.672 342.737ZM464.672 218.237C443.172 267.737 440.5 312.237 432.5 342.737C436.5 265.537 454.505 233.904 464.672 218.237ZM227.172 224.737C247.972 231.937 280.833 275.333 295 297C290.5 294.5 281.672 286.737 274.172 277.237C266.672 267.737 243.672 240.737 227.172 224.737ZM389.672 36.7373C386.672 50.2373 384.172 109.237 385.672 143.737C386.872 171.337 386.172 213.237 385.672 230.737C387.182 225.903 391.705 212.252 398.495 193.655C399.186 191.507 399.911 189.524 400.672 187.737C399.923 189.76 399.197 191.734 398.495 193.655C390.837 217.483 387.436 261.598 386.672 282.237C385.839 273.904 383.872 253.737 382.672 239.737C381.172 222.237 371.672 198.237 366.172 176.237C371.672 184.737 377.172 199.737 381.172 215.737C381.172 145.737 368.672 106.237 371.672 111.737C374.072 116.137 379.005 147.237 381.172 162.237C381.672 129.404 384.072 58.3373 389.672 36.7373ZM74.1719 227.237C106.954 225.468 175.216 256.861 209.5 277.237C195.167 271.904 174.521 266.086 160.672 259.237C139.231 248.634 115.42 239.879 74.1719 227.237ZM299.5 96.5C297 134 301 176.5 302.5 198.5C291 162.237 293.5 133.5 299.5 96.5Z" fill="#FF8701"/>
</g>
<mask id="mask2_551_261" style="mask-type:alpha" maskUnits="userSpaceOnUse" x="492" y="174" width="96" height="250">
<path d="M575.583 174.451L534.265 228.95L492.08 270.979L500.304 389.193L516.2 423.172L558.641 377.617L582.405 337.371L587.723 255.304L575.583 174.451Z" fill="#D9D9D9"/>
</mask>
<g mask="url(#mask2_551_261)">
<path fill-rule="evenodd" clip-rule="evenodd" d="M397.73 0.0117188C390.991 12.4928 380.099 31.0238 370.713 52.5488C361.326 74.0758 353.424 98.6429 352.671 123.233C351.169 172.309 361.184 217.869 373.194 255.401C379.189 274.136 382.811 288.373 385.81 300.742C388.807 313.107 391.187 323.628 394.693 334.897C400.768 354.424 407.975 378.088 411.081 388.253C398.845 368.778 368.542 322.726 359.574 310.454C354.835 303.969 344.843 288.856 335.406 273.857C325.96 258.843 317.113 244.009 314.633 238.057C309.683 226.177 306.683 204.81 316.639 178.426C326.696 151.773 321.663 130.642 316.642 116.581C314.144 109.587 310.771 99.5948 308.024 90.4795C306.651 85.9216 305.435 81.5876 304.563 77.96C303.688 74.316 303.171 71.4322 303.171 69.749L302.207 69.5635C300.238 74.4862 294.447 85.9644 289.637 99.582C284.817 113.226 280.91 129.193 282.675 143.312C286.174 171.305 286.68 182.377 297.715 206.954C302.111 216.745 305.023 224.025 306.876 229.145C308.734 234.278 309.517 237.209 309.676 238.319L309.687 238.396L309.72 238.465C317.218 254.127 335.134 289.696 346.76 306.533C357.059 321.449 380.5 360.381 394.481 383.954C388.493 376.14 380.358 366.144 374.506 360.877C364.477 351.851 339.94 334.828 331.459 328.841C327.244 325.866 320.144 319.639 313.532 312.716C306.907 305.778 300.847 298.215 298.637 292.566C297.516 289.702 296.302 286.123 294.885 282.121C293.47 278.126 291.856 273.723 289.943 269.24C286.121 260.28 281.091 250.962 274.024 243.896C259.976 229.847 237.878 212.27 199.729 207.753L198.298 207.583L199.317 208.603C207.792 217.077 214.251 224.531 220.718 238.46C227.237 252.502 233.777 262.572 245.353 272.135C251.145 276.92 259.687 281.815 268.246 286.438C276.829 291.074 285.424 295.434 291.406 299.173C299.579 304.281 305.657 310.976 308.568 314.849C301.836 311.37 289.233 305.197 280.835 302.276C275.092 300.279 265.225 296.657 256.047 292.911C251.458 291.038 247.046 289.136 243.41 287.392C239.759 285.64 236.938 284.07 235.491 282.865C234.011 281.632 231.78 279.432 228.85 276.549C225.928 273.674 222.329 270.137 218.136 266.257C209.749 258.496 198.974 249.35 186.44 241.328C161.372 225.284 125.257 211.235 82.1133 216.252C64.9065 218.253 54.2214 220.006 47.8525 221.386C44.6707 222.075 42.5502 222.675 41.2275 223.172C40.5701 223.419 40.0843 223.649 39.7598 223.866C39.5989 223.974 39.4521 224.095 39.3457 224.233C39.2398 224.371 39.136 224.58 39.1777 224.831L39.2344 225.174L39.5752 225.24C45.5113 226.394 61.1416 231.401 75.876 242.153C85.0956 248.881 94.2597 256.284 103.829 262.727C113.413 269.179 123.465 274.711 134.539 277.731C156.604 283.749 185.681 284.251 202.141 285.248C210.407 285.749 216.618 285.997 222.954 287.178C229.277 288.355 235.734 290.465 244.452 294.699C261.979 303.212 288.004 312.72 293.5 314.719C294.148 314.955 295.812 315.765 298.293 317.078C300.76 318.384 304.005 320.169 307.798 322.339C315.384 326.678 325.157 332.548 335.272 339.167C345.389 345.786 355.842 353.151 364.792 360.479C373.012 367.21 379.933 373.886 384.171 379.908C365.995 370.493 355.675 365.572 348.824 362.298C341.759 358.921 338.414 357.31 333.948 354.333C329.444 351.33 316.174 342.567 300.398 334.491C284.644 326.426 266.304 319.001 251.68 318.749L251.074 318.738C222.059 318.236 179.658 317.504 128.877 354.345L129.271 355.238C146.243 351.744 164.114 349.771 182.967 358.205C201.963 366.703 226.566 376.756 251.701 375.248C264.244 374.495 276.946 370.98 290.891 368.303C304.864 365.62 320.179 363.755 338.103 366.244C372.578 371.033 404.348 398.912 420.444 429.905C414.759 423.22 406.809 413.378 397.78 404.026C387.274 393.145 375.204 382.817 363.332 378.775L363.108 378.699C339.741 370.744 325.17 365.78 302.128 367.751L301.058 367.843L301.817 368.603C309.323 376.108 315.078 381.489 320.014 386.174C324.95 390.86 329.062 394.848 333.298 399.582C337.601 404.392 345.282 409.924 353.613 414.622C361.947 419.322 370.997 423.223 378.066 424.738C392.012 427.727 424.848 438.681 443.743 470.007C458.54 494.539 495.758 573.311 513.844 612.483C503.949 601.555 485.942 581.942 478.516 574.887C473.508 570.13 464.994 562.742 456.941 555.563C448.867 548.365 441.277 541.395 438.059 537.434C434.813 533.439 421.425 516.297 403.598 497.344C385.779 478.4 363.483 457.599 342.407 446.309C300.373 423.79 266.804 413.258 241.21 411.251C220.807 409.651 195.372 407.917 185.204 407.25L183.338 407.128L184.894 408.165C189.873 411.485 202.442 420.829 212.811 431.596C225.81 445.095 254.342 472.63 271.391 484.163C288.43 495.69 324.486 515.219 367.057 525.235C388.274 530.228 409.367 537.593 427.273 545.891C445.191 554.194 459.876 563.413 468.312 572.098C481.081 585.242 512.821 622.685 529.738 642.917C521.347 636.475 506.71 626.117 494.385 620.297C489.939 618.197 485.1 614.759 479.711 610.588C474.343 606.433 468.407 601.535 461.847 596.6C448.701 586.709 432.891 576.541 413.301 571.267C393.783 566.012 376.983 562.749 359.354 562.874C341.723 563 323.29 566.515 300.5 574.779L299.049 575.306L300.533 575.729C314.537 579.731 323.136 582.348 330.23 585.273C337.314 588.194 342.909 591.425 350.896 596.667C366.8 607.103 376.968 619.738 404.144 621.248C417.683 622 430.113 620.496 442.14 619.748C454.185 618.999 465.862 619.004 478.024 622.728C502.459 630.207 532.86 647.162 550.78 669.562L550.98 669.812L551.292 669.734C556.183 668.512 560.118 665.834 561.5 664.625L561.882 664.291L561.542 663.914C556.149 657.941 547.947 647.222 540.896 634.507C533.841 621.786 527.964 607.112 527.17 593.221C525.171 558.232 527.188 535.907 543.058 516.566C547.052 511.698 551.453 506.641 555.892 501.555C560.328 496.47 564.801 491.355 568.931 486.381C577.173 476.452 584.111 467.009 586.646 459.407C589.154 451.883 592.034 439.856 594.906 428.118C597.785 416.355 600.652 404.892 603.138 398.429C605.631 391.946 609.873 382.339 614.489 373.48C616.797 369.052 619.195 364.816 621.512 361.256C623.834 357.687 626.053 354.828 628 353.125L627.497 352.28C620.697 354.799 606.661 362.071 592.145 371.707C577.631 381.341 562.57 393.381 553.767 405.454C536.235 429.497 522.171 455.101 522.171 493.249C522.171 512.267 522.922 520.031 523.297 525.284C523.669 530.488 523.672 533.199 522.178 542.167C519.718 556.927 519.606 573.687 519.921 582.604C517.718 574.15 514.045 558.268 511.29 539.8C507.917 517.19 505.927 490.754 509.663 469.335C517.157 426.369 520.166 412.824 521.168 403.302C521.286 402.182 521.766 400.529 522.553 398.428C523.336 396.337 524.409 393.839 525.688 391.043C528.247 385.451 531.617 378.693 535.118 371.659C542.107 357.62 549.636 342.441 552.152 333.383C557.175 315.3 559.174 279.727 554.666 249.176C552.872 237.016 553.082 227.859 554.065 221.361C555.052 214.843 556.808 211.051 558.054 209.571L557.33 208.883C551.394 214.401 542.001 224.221 533.088 235.769C524.179 247.31 515.722 260.614 511.695 273.096C501.693 304.103 497.664 327.685 498.673 339.791C498.926 342.834 499.873 347.399 501.138 352.739C502.404 358.087 504 364.251 505.561 370.495C508.691 383.019 511.671 395.825 511.671 403.249C511.671 418.197 507.681 440.645 505.678 452.667C504.677 458.673 503.55 466.308 502.799 473.258C502.323 477.66 501.995 481.816 501.95 485.114C499.023 473.598 496.852 460.162 498.169 444.792C499.674 427.231 498.171 413.137 491.124 398.037C487.613 390.513 484.101 384.618 480.916 379.123C477.729 373.624 474.873 368.531 472.639 362.573C468.131 350.552 466.171 345.141 466.171 338.249L465.203 338.073C460.719 350.031 451.667 366.143 452.671 395.267C453.677 424.437 471.772 448.55 475.767 454.043C477.809 456.852 483.378 463.398 488.819 471.466C494.251 479.52 499.443 488.94 500.676 497.321C501.921 505.79 502.171 515.006 502.609 524.335C503.047 533.648 503.673 543.063 505.684 551.86C508.882 565.853 513.685 583.061 516.769 592.488C500.669 563.43 451.765 467.756 446.625 456.541C443.891 450.576 440.526 440.857 437.906 430.316C435.286 419.772 433.423 408.447 433.671 399.263C433.92 390.035 434.917 379.194 437.283 368.734C439.65 358.269 443.38 348.219 449.072 340.547C460.591 325.022 474.656 299.433 476.669 278.297C478.67 257.285 477.673 238.701 478.171 224.267C478.421 217.009 478.67 208.786 479.666 201.504C480.164 197.864 480.846 194.475 481.802 191.569C482.759 188.659 483.98 186.265 485.537 184.589L484.832 183.882C458.827 207.887 438.732 226.967 427.69 265.11C422.169 284.184 421.67 301.997 422.672 318.342C423.173 326.512 424.049 334.322 424.861 341.733C425.674 349.15 426.422 356.163 426.671 362.768C427.577 386.769 426.838 399.765 429.693 415.463C425.46 405.563 418.042 388.68 411.202 370.387C403.138 348.819 395.919 325.394 395.671 309.241C395.172 276.786 400.667 236.342 409.146 210.404C417.65 184.394 428.189 142.785 420.661 106.148C413.157 69.6305 409.653 58.6164 405.152 42.6133C400.648 26.5972 397.181 12.6934 398.667 0.308594L397.73 0.0117188ZM338.672 576.249C352.172 575.249 394.672 583.749 411.172 588.249C424.372 591.849 450 602.845 467 611.012C429 596.512 373.172 583.249 338.672 576.249ZM220.172 419.249C235.372 421.649 297.172 455.916 326.172 472.749L293.172 440.749C309.839 454.249 343.772 481.849 346.172 484.249C348.572 486.649 365.172 495.916 373.172 500.249C366.672 492.249 353.372 475.049 352.172 470.249C355.672 475.749 389.172 512.749 401.172 519.749C410.772 525.349 432.672 540.249 432.672 540.249C395.5 519.749 380 514.012 342.672 503.749C342.672 503.749 369.172 507.249 383.672 511.749C372.672 501.249 240.172 430.749 220.172 419.249ZM595.172 385.249C567.963 414.684 540.25 486.433 536.219 502.531C532.188 518.629 530.676 518.629 530.172 515.869C536.219 452.215 576.025 402.266 595.172 385.249ZM463.172 373.249C463.972 387.649 482.839 443.582 492.172 469.749C486.339 456.249 474.072 427.549 471.672 420.749C468.672 412.249 464.172 396.249 463.172 373.249ZM327.672 378.749C335.672 379.749 352.172 385.012 373.172 397.012C389.972 406.612 395.505 416.345 401.172 422.512C383.172 406.512 352.172 388.512 327.672 378.749ZM543.672 243.249C535.366 284.121 518.456 370.941 517.26 391.249C513.771 372.09 526.23 272.945 543.672 243.249ZM174.672 342.749C194.672 334.749 231 335.512 255.172 337.749C279.344 339.986 314.005 350.512 326.172 357.012C310.339 352.512 276.772 344.749 257.172 342.749C232.672 340.249 207.172 340.249 174.672 342.749ZM464.672 218.249C443.172 267.749 440.5 312.249 432.5 342.749C436.5 265.549 454.505 233.916 464.672 218.249ZM227.172 224.749C247.972 231.949 280.833 275.345 295 297.012C290.5 294.512 281.672 286.749 274.172 277.249C266.672 267.749 243.672 240.749 227.172 224.749ZM389.672 36.749C386.672 50.249 384.172 109.249 385.672 143.749C386.872 171.349 386.172 213.249 385.672 230.749C387.182 225.915 391.705 212.264 398.495 193.667C399.186 191.519 399.911 189.535 400.672 187.749C399.923 189.772 399.197 191.746 398.495 193.667C390.837 217.495 387.436 261.61 386.672 282.249C385.839 273.916 383.872 253.749 382.672 239.749C381.172 222.249 371.672 198.249 366.172 176.249C371.672 184.749 377.172 199.749 381.172 215.749C381.172 145.749 368.672 106.249 371.672 111.749C374.072 116.149 379.005 147.249 381.172 162.249C381.672 129.416 384.072 58.349 389.672 36.749ZM74.1719 227.249C106.954 225.48 175.216 256.873 209.5 277.249C195.167 271.916 174.521 266.098 160.672 259.249C139.231 248.646 115.42 239.89 74.1719 227.249ZM299.5 96.5117C297 134.012 301 176.512 302.5 198.512C291 162.249 293.5 133.512 299.5 96.5117Z" fill="#FF8701"/>
</g>
<mask id="mask3_551_261" style="mask-type:alpha" maskUnits="userSpaceOnUse" x="156" y="391" width="302" height="163">
<path d="M156.616 391.083L212.841 456.009L252.627 517.076L408.476 553.65L457.959 549.743L413.698 487.05L369.839 446.294L265.465 409.155L156.616 391.083Z" fill="#D9D9D9"/>
</mask>
<g mask="url(#mask3_551_261)">
<path fill-rule="evenodd" clip-rule="evenodd" d="M397.73 -0.0136719C390.991 12.4674 380.099 30.9984 370.713 52.5234C361.326 74.0504 353.424 98.6175 352.671 123.208C351.169 172.284 361.184 217.843 373.194 255.376C379.189 274.11 382.811 288.348 385.81 300.717C388.807 313.082 391.187 323.603 394.693 334.872C400.768 354.398 407.975 378.063 411.081 388.228C398.845 368.753 368.542 322.7 359.574 310.429C354.835 303.944 344.843 288.83 335.406 273.832C325.96 258.818 317.113 243.984 314.633 238.031C309.683 226.152 306.683 204.784 316.639 178.4C326.696 151.748 321.663 130.617 316.642 116.556C314.144 109.562 310.771 99.5694 308.024 90.4541C306.651 85.8962 305.435 81.5622 304.563 77.9346C303.688 74.2906 303.171 71.4069 303.171 69.7236L302.207 69.5381C300.238 74.4608 294.447 85.939 289.637 99.5566C284.817 113.201 280.91 129.167 282.675 143.286C286.174 171.279 286.68 182.351 297.715 206.929C302.111 216.72 305.023 224 306.876 229.119C308.734 234.252 309.517 237.184 309.676 238.294L309.687 238.37L309.72 238.439C317.218 254.102 335.134 289.67 346.76 306.508C357.059 321.424 380.5 360.355 394.481 383.929C388.493 376.114 380.358 366.119 374.506 360.852C364.477 351.826 339.94 334.802 331.459 328.815C327.244 325.84 320.144 319.614 313.532 312.69C306.907 305.753 300.847 298.19 298.637 292.541C297.516 289.676 296.302 286.098 294.885 282.096C293.47 278.1 291.856 273.698 289.943 269.215C286.121 260.254 281.091 250.936 274.024 243.87C259.976 229.821 237.878 212.245 199.729 207.728L198.298 207.558L199.317 208.577C207.792 217.052 214.251 224.505 220.718 238.435C227.237 252.476 233.777 262.547 245.353 272.109C251.145 276.895 259.687 281.79 268.246 286.413C276.829 291.049 285.424 295.409 291.406 299.147C299.579 304.256 305.657 310.951 308.568 314.823C301.836 311.345 289.233 305.172 280.835 302.251C275.092 300.253 265.225 296.632 256.047 292.886C251.458 291.013 247.046 289.11 243.41 287.366C239.759 285.615 236.938 284.045 235.491 282.84C234.011 281.607 231.78 279.407 228.85 276.523C225.928 273.648 222.329 270.112 218.136 266.231C209.749 258.47 198.974 249.325 186.44 241.303C161.372 225.259 125.257 211.21 82.1133 216.227C64.9065 218.227 54.2214 219.98 47.8525 221.36C44.6707 222.05 42.5502 222.649 41.2275 223.146C40.5701 223.394 40.0843 223.624 39.7598 223.841C39.5989 223.948 39.4521 224.069 39.3457 224.208C39.2398 224.346 39.136 224.555 39.1777 224.806L39.2344 225.148L39.5752 225.215C45.5113 226.369 61.1416 231.376 75.876 242.128C85.0956 248.856 94.2597 256.259 103.829 262.701C113.413 269.153 123.465 274.686 134.539 277.706C156.604 283.724 185.681 284.225 202.141 285.223C210.407 285.724 216.618 285.972 222.954 287.152C229.277 288.33 235.734 290.439 244.452 294.674C261.979 303.187 288.004 312.695 293.5 314.693C294.148 314.929 295.812 315.74 298.293 317.053C300.76 318.358 304.005 320.144 307.798 322.313C315.384 326.653 325.157 332.523 335.272 339.142C345.389 345.761 355.842 353.126 364.792 360.454C373.012 367.185 379.933 373.861 384.171 379.883C365.995 370.467 355.675 365.546 348.824 362.272C341.759 358.896 338.414 357.285 333.948 354.308C329.444 351.305 316.174 342.542 300.398 334.466C284.644 326.401 266.304 318.976 251.68 318.724L251.074 318.713C222.059 318.211 179.658 317.478 128.877 354.319L129.271 355.213C146.243 351.719 164.114 349.746 182.967 358.18C201.963 366.678 226.566 376.731 251.701 375.223C264.244 374.47 276.946 370.954 290.891 368.277C304.864 365.595 320.179 363.729 338.103 366.219C372.578 371.007 404.348 398.887 420.444 429.88C414.759 423.194 406.809 413.352 397.78 404.001C387.274 393.12 375.204 382.791 363.332 378.75L363.108 378.674C339.741 370.719 325.17 365.755 302.128 367.726L301.058 367.817L301.817 368.577C309.323 376.083 315.078 381.463 320.014 386.148C324.95 390.834 329.062 394.823 333.298 399.557C337.601 404.366 345.282 409.899 353.613 414.597C361.947 419.296 370.997 423.198 378.066 424.713C392.012 427.701 424.848 438.655 443.743 469.981C458.54 494.513 495.758 573.286 513.844 612.458C503.949 601.53 485.942 581.917 478.516 574.861C473.508 570.104 464.994 562.717 456.941 555.538C448.867 548.34 441.277 541.37 438.059 537.408C434.813 533.413 421.425 516.272 403.598 497.318C385.779 478.374 363.483 457.574 342.407 446.283C300.373 423.765 266.804 413.233 241.21 411.226C220.807 409.625 195.372 407.891 185.204 407.225L183.338 407.103L184.894 408.14C189.873 411.459 202.442 420.803 212.811 431.57C225.81 445.07 254.342 472.605 271.391 484.138C288.43 495.664 324.486 515.193 367.057 525.21C388.274 530.202 409.367 537.567 427.273 545.865C445.191 554.168 459.876 563.387 468.312 572.072C481.081 585.217 512.821 622.66 529.738 642.892C521.347 636.449 506.71 626.092 494.385 620.271C489.939 618.172 485.1 614.733 479.711 610.562C474.343 606.408 468.407 601.51 461.847 596.574C448.701 586.684 432.891 576.516 413.301 571.241C393.783 565.986 376.983 562.723 359.354 562.849C341.723 562.974 323.29 566.489 300.5 574.754L299.049 575.28L300.533 575.704C314.537 579.705 323.136 582.323 330.23 585.248C337.314 588.168 342.909 591.4 350.896 596.642C366.8 607.078 376.968 619.713 404.144 621.223C417.683 621.975 430.113 620.47 442.14 619.723C454.185 618.974 465.862 618.979 478.024 622.702C502.459 630.182 532.86 647.136 550.78 669.536L550.98 669.786L551.292 669.709C556.183 668.486 560.118 665.809 561.5 664.6L561.882 664.266L561.542 663.889C556.149 657.915 547.947 647.196 540.896 634.481C533.841 621.76 527.964 607.087 527.17 593.195C525.171 558.207 527.188 535.882 543.058 516.541C547.052 511.673 551.453 506.616 555.892 501.529C560.328 496.445 564.801 491.33 568.931 486.355C577.173 476.427 584.111 466.984 586.646 459.382C589.154 451.857 592.034 439.83 594.906 428.093C597.785 416.329 600.652 404.866 603.138 398.403C605.631 391.921 609.873 382.313 614.489 373.455C616.797 369.026 619.195 364.791 621.512 361.23C623.834 357.662 626.053 354.803 628 353.1L627.497 352.255C620.697 354.774 606.661 362.046 592.145 371.682C577.631 381.316 562.57 393.355 553.767 405.429C536.235 429.472 522.171 455.075 522.171 493.224C522.171 512.241 522.922 520.006 523.297 525.259C523.669 530.463 523.672 533.174 522.178 542.142C519.718 556.902 519.606 573.661 519.921 582.578C517.718 574.125 514.045 558.243 511.29 539.774C507.917 517.164 505.927 490.729 509.663 469.31C517.157 426.343 520.166 412.798 521.168 403.276C521.286 402.156 521.766 400.504 522.553 398.402C523.336 396.312 524.409 393.814 525.688 391.018C528.247 385.425 531.617 378.668 535.118 371.634C542.107 357.594 549.636 342.416 552.152 333.357C557.175 315.275 559.174 279.702 554.666 249.15C552.872 236.991 553.082 227.833 554.065 221.336C555.052 214.818 556.808 211.026 558.054 209.546L557.33 208.857C551.394 214.375 542.001 224.195 533.088 235.743C524.179 247.285 515.722 260.589 511.695 273.07C501.693 304.078 497.664 327.66 498.673 339.766C498.926 342.808 499.873 347.374 501.138 352.714C502.404 358.061 504 364.226 505.561 370.47C508.691 382.993 511.671 395.799 511.671 403.224C511.671 418.171 507.681 440.62 505.678 452.642C504.677 458.648 503.55 466.283 502.799 473.232C502.323 477.634 501.995 481.791 501.95 485.089C499.023 473.573 496.852 460.136 498.169 444.767C499.674 427.206 498.171 413.112 491.124 398.012C487.613 390.488 484.101 384.593 480.916 379.098C477.729 373.599 474.873 368.505 472.639 362.548C468.131 350.527 466.171 345.116 466.171 338.224L465.203 338.048C460.719 350.006 451.667 366.118 452.671 395.241C453.677 424.412 471.772 448.525 475.767 454.018C477.809 456.826 483.378 463.372 488.819 471.44C494.251 479.494 499.443 488.915 500.676 497.296C501.921 505.764 502.171 514.98 502.609 524.31C503.047 533.623 503.673 543.037 505.684 551.835C508.882 565.827 513.685 583.036 516.769 592.463C500.669 563.405 451.765 467.731 446.625 456.516C443.891 450.551 440.526 440.832 437.906 430.291C435.286 419.747 433.423 408.422 433.671 399.237C433.92 390.01 434.917 379.169 437.283 368.709C439.65 358.244 443.38 348.194 449.072 340.521C460.591 324.997 474.656 299.407 476.669 278.271C478.67 257.26 477.673 238.676 478.171 224.241C478.421 216.983 478.67 208.761 479.666 201.479C480.164 197.839 480.846 194.45 481.802 191.544C482.759 188.634 483.98 186.24 485.537 184.563L484.832 183.856C458.827 207.861 438.732 226.942 427.69 265.085C422.169 284.159 421.67 301.971 422.672 318.316C423.173 326.487 424.049 334.297 424.861 341.708C425.674 349.124 426.422 356.138 426.671 362.742C427.577 386.744 426.838 399.74 429.693 415.438C425.46 405.538 418.042 388.655 411.202 370.361C403.138 348.794 395.919 325.368 395.671 309.216C395.172 276.761 400.667 236.317 409.146 210.379C417.65 184.368 428.189 142.76 420.661 106.123C413.157 69.6052 409.653 58.591 405.152 42.5879C400.648 26.5718 397.181 12.668 398.667 0.283203L397.73 -0.0136719ZM338.672 576.224C352.172 575.224 394.672 583.724 411.172 588.224C424.372 591.824 450 602.82 467 610.986C429 596.486 373.172 583.224 338.672 576.224ZM220.172 419.224C235.372 421.624 297.172 455.89 326.172 472.724L293.172 440.724C309.839 454.224 343.772 481.824 346.172 484.224C348.572 486.624 365.172 495.89 373.172 500.224C366.672 492.224 353.372 475.024 352.172 470.224C355.672 475.724 389.172 512.724 401.172 519.724C410.772 525.324 432.672 540.224 432.672 540.224C395.5 519.724 380 513.986 342.672 503.724C342.672 503.724 369.172 507.224 383.672 511.724C372.672 501.224 240.172 430.724 220.172 419.224ZM595.172 385.224C567.963 414.659 540.25 486.408 536.219 502.506C532.188 518.603 530.676 518.603 530.172 515.844C536.219 452.189 576.025 402.241 595.172 385.224ZM463.172 373.224C463.972 387.624 482.839 443.557 492.172 469.724C486.339 456.224 474.072 427.524 471.672 420.724C468.672 412.224 464.172 396.224 463.172 373.224ZM327.672 378.724C335.672 379.724 352.172 384.986 373.172 396.986C389.972 406.586 395.505 416.32 401.172 422.486C383.172 406.486 352.172 388.486 327.672 378.724ZM543.672 243.224C535.366 284.095 518.456 370.915 517.26 391.224C513.771 372.065 526.23 272.919 543.672 243.224ZM174.672 342.724C194.672 334.724 231 335.486 255.172 337.724C279.344 339.961 314.005 350.486 326.172 356.986C310.339 352.486 276.772 344.724 257.172 342.724C232.672 340.224 207.172 340.224 174.672 342.724ZM464.672 218.224C443.172 267.724 440.5 312.224 432.5 342.724C436.5 265.524 454.505 233.89 464.672 218.224ZM227.172 224.724C247.972 231.924 280.833 275.32 295 296.986C290.5 294.486 281.672 286.724 274.172 277.224C266.672 267.724 243.672 240.724 227.172 224.724ZM389.672 36.7236C386.672 50.2236 384.172 109.224 385.672 143.724C386.872 171.324 386.172 213.224 385.672 230.724C387.182 225.89 391.705 212.238 398.495 193.642C399.186 191.493 399.911 189.51 400.672 187.724C399.923 189.746 399.197 191.72 398.495 193.642C390.837 217.469 387.436 261.585 386.672 282.224C385.839 273.89 383.872 253.724 382.672 239.724C381.172 222.224 371.672 198.224 366.172 176.224C371.672 184.724 377.172 199.724 381.172 215.724C381.172 145.724 368.672 106.224 371.672 111.724C374.072 116.124 379.005 147.224 381.172 162.224C381.672 129.39 384.072 58.3236 389.672 36.7236ZM74.1719 227.224C106.954 225.455 175.216 256.848 209.5 277.224C195.167 271.89 174.521 266.073 160.672 259.224C139.231 248.62 115.42 239.865 74.1719 227.224ZM299.5 96.4863C297 133.986 301 176.486 302.5 198.486C291 162.224 293.5 133.486 299.5 96.4863Z" fill="#FF8701"/>
</g>
<mask id="mask4_551_261" style="mask-type:alpha" maskUnits="userSpaceOnUse" x="240" y="5" width="110" height="254">
<path d="M282.146 5.20678L264.158 71.1892L240.711 125.927L292.467 232.527L319.897 258.116L342.266 200.012L349.29 153.804L323.589 75.6836L282.146 5.20678Z" fill="#D9D9D9"/>
</mask>
<g mask="url(#mask4_551_261)">
<path fill-rule="evenodd" clip-rule="evenodd" d="M397.73 -0.00585938C390.991 12.4752 380.099 31.0062 370.713 52.5312C361.326 74.0582 353.424 98.6254 352.671 123.216C351.169 172.291 361.184 217.851 373.194 255.384C379.189 274.118 382.811 288.356 385.81 300.725C388.807 313.09 391.187 323.611 394.693 334.88C400.768 354.406 407.975 378.071 411.081 388.235C398.845 368.76 368.542 322.708 359.574 310.437C354.835 303.951 344.843 288.838 335.406 273.84C325.96 258.826 317.113 243.991 314.633 238.039C309.683 226.16 306.683 204.792 316.639 178.408C326.696 151.756 321.663 130.624 316.642 116.563C314.144 109.569 310.771 99.5772 308.024 90.4619C306.651 85.904 305.435 81.57 304.563 77.9424C303.688 74.2984 303.171 71.4147 303.171 69.7314L302.207 69.5459C300.238 74.4686 294.447 85.9468 289.637 99.5645C284.817 113.209 280.91 129.175 282.675 143.294C286.174 171.287 286.68 182.359 297.715 206.937C302.111 216.728 305.023 224.008 306.876 229.127C308.734 234.26 309.517 237.191 309.676 238.302L309.687 238.378L309.72 238.447C317.218 254.109 335.134 289.678 346.76 306.516C357.059 321.432 380.5 360.363 394.481 383.937C388.493 376.122 380.358 366.126 374.506 360.859C364.477 351.834 339.94 334.81 331.459 328.823C327.244 325.848 320.144 319.622 313.532 312.698C306.907 305.761 300.847 298.198 298.637 292.549C297.516 289.684 296.302 286.106 294.885 282.104C293.47 278.108 291.856 273.706 289.943 269.223C286.121 260.262 281.091 250.944 274.024 243.878C259.976 229.829 237.878 212.253 199.729 207.735L198.298 207.565L199.317 208.585C207.792 217.06 214.251 224.513 220.718 238.442C227.237 252.484 233.777 262.555 245.353 272.117C251.145 276.903 259.687 281.798 268.246 286.421C276.829 291.057 285.424 295.416 291.406 299.155C299.579 304.263 305.657 310.958 308.568 314.831C301.836 311.353 289.233 305.18 280.835 302.259C275.092 300.261 265.225 296.64 256.047 292.894C251.458 291.02 247.046 289.118 243.41 287.374C239.759 285.623 236.938 284.053 235.491 282.848C234.011 281.614 231.78 279.415 228.85 276.531C225.928 273.656 222.329 270.12 218.136 266.239C209.749 258.478 198.974 249.332 186.44 241.311C161.372 225.267 125.257 211.218 82.1133 216.234C64.9065 218.235 54.2214 219.988 47.8525 221.368C44.6707 222.058 42.5502 222.657 41.2275 223.154C40.5701 223.401 40.0843 223.631 39.7598 223.849C39.5989 223.956 39.4521 224.077 39.3457 224.216C39.2398 224.354 39.136 224.563 39.1777 224.813L39.2344 225.156L39.5752 225.223C45.5113 226.377 61.1416 231.384 75.876 242.136C85.0956 248.864 94.2597 256.267 103.829 262.709C113.413 269.161 123.465 274.694 134.539 277.714C156.604 283.732 185.681 284.233 202.141 285.23C210.407 285.731 216.618 285.98 222.954 287.16C229.277 288.338 235.734 290.447 244.452 294.682C261.979 303.195 288.004 312.703 293.5 314.701C294.148 314.937 295.812 315.747 298.293 317.061C300.76 318.366 304.005 320.152 307.798 322.321C315.384 326.661 325.157 332.531 335.272 339.149C345.389 345.769 355.842 353.133 364.792 360.462C373.012 367.192 379.933 373.869 384.171 379.891C365.995 370.475 355.675 365.554 348.824 362.28C341.759 358.904 338.414 357.293 333.948 354.315C329.444 351.312 316.174 342.549 300.398 334.474C284.644 326.409 266.304 318.984 251.68 318.731L251.074 318.721C222.059 318.219 179.658 317.486 128.877 354.327L129.271 355.221C146.243 351.726 164.114 349.753 182.967 358.188C201.963 366.686 226.566 376.739 251.701 375.23C264.244 374.478 276.946 370.962 290.891 368.285C304.864 365.603 320.179 363.737 338.103 366.227C372.578 371.015 404.348 398.895 420.444 429.888C414.759 423.202 406.809 413.36 397.78 404.009C387.274 393.128 375.204 382.799 363.332 378.758L363.108 378.682C339.741 370.727 325.17 365.762 302.128 367.733L301.058 367.825L301.817 368.585C309.323 376.09 315.078 381.471 320.014 386.156C324.95 390.842 329.062 394.831 333.298 399.564C337.601 404.374 345.282 409.906 353.613 414.604C361.947 419.304 370.997 423.206 378.066 424.721C392.012 427.709 424.848 438.663 443.743 469.989C458.54 494.521 495.758 573.293 513.844 612.466C503.949 601.538 485.942 581.925 478.516 574.869C473.508 570.112 464.994 562.724 456.941 555.546C448.867 548.347 441.277 541.377 438.059 537.416C434.813 533.421 421.425 516.28 403.598 497.326C385.779 478.382 363.483 457.582 342.407 446.291C300.373 423.773 266.804 413.241 241.21 411.233C220.807 409.633 195.372 407.899 185.204 407.232L183.338 407.11L184.894 408.147C189.873 411.467 202.442 420.811 212.811 431.578C225.81 445.078 254.342 472.613 271.391 484.146C288.43 495.672 324.486 515.201 367.057 525.218C388.274 530.21 409.367 537.575 427.273 545.873C445.191 554.176 459.876 563.395 468.312 572.08C481.081 585.225 512.821 622.668 529.738 642.899C521.347 636.457 506.71 626.1 494.385 620.279C489.939 618.18 485.1 614.741 479.711 610.57C474.343 606.416 468.407 601.518 461.847 596.582C448.701 586.692 432.891 576.523 413.301 571.249C393.783 565.994 376.983 562.731 359.354 562.856C341.723 562.982 323.29 566.497 300.5 574.762L299.049 575.288L300.533 575.712C314.537 579.713 323.136 582.331 330.23 585.256C337.314 588.176 342.909 591.408 350.896 596.649C366.8 607.086 376.968 619.721 404.144 621.23C417.683 621.983 430.113 620.478 442.14 619.73C454.185 618.982 465.862 618.987 478.024 622.71C502.459 630.19 532.86 647.144 550.78 669.544L550.98 669.794L551.292 669.717C556.183 668.494 560.118 665.816 561.5 664.607L561.882 664.273L561.542 663.896C556.149 657.923 547.947 647.204 540.896 634.489C533.841 621.768 527.964 607.095 527.17 593.203C525.171 558.215 527.188 535.89 543.058 516.549C547.052 511.681 551.453 506.624 555.892 501.537C560.328 496.453 564.801 491.338 568.931 486.363C577.173 476.435 584.111 466.992 586.646 459.39C589.154 451.865 592.034 439.838 594.906 428.101C597.785 416.337 600.652 404.874 603.138 398.411C605.631 391.929 609.873 382.321 614.489 373.463C616.797 369.034 619.195 364.798 621.512 361.238C623.834 357.67 626.053 354.811 628 353.107L627.497 352.263C620.697 354.781 606.661 362.054 592.145 371.689C577.631 381.323 562.57 393.363 553.767 405.437C536.235 429.48 522.171 455.083 522.171 493.231C522.171 512.249 522.922 520.014 523.297 525.267C523.669 530.471 523.672 533.181 522.178 542.149C519.718 556.909 519.606 573.669 519.921 582.586C517.718 574.132 514.045 558.25 511.29 539.782C507.917 517.172 505.927 490.737 509.663 469.317C517.157 426.351 520.166 412.806 521.168 403.284C521.286 402.164 521.766 400.511 522.553 398.41C523.336 396.32 524.409 393.821 525.688 391.025C528.247 385.433 531.617 378.676 535.118 371.642C542.107 357.602 549.636 342.423 552.152 333.365C557.175 315.283 559.174 279.71 554.666 249.158C552.872 236.999 553.082 227.841 554.065 221.344C555.052 214.825 556.808 211.033 558.054 209.554L557.33 208.865C551.394 214.383 542.001 224.203 533.088 235.751C524.179 247.292 515.722 260.597 511.695 273.078C501.693 304.086 497.664 327.668 498.673 339.773C498.926 342.816 499.873 347.382 501.138 352.722C502.404 358.069 504 364.234 505.561 370.478C508.691 383.001 511.671 395.807 511.671 403.231C511.671 418.179 507.681 440.628 505.678 452.649C504.677 458.656 503.55 466.29 502.799 473.24C502.323 477.642 501.995 481.798 501.95 485.097C499.023 473.581 496.852 460.144 498.169 444.774C499.674 427.214 498.171 413.12 491.124 398.02C487.613 390.496 484.101 384.6 480.916 379.105C477.729 373.607 474.873 368.513 472.639 362.556C468.131 350.534 466.171 345.123 466.171 338.231L465.203 338.056C460.719 350.014 451.667 366.125 452.671 395.249C453.677 424.419 471.772 448.533 475.767 454.025C477.809 456.834 483.378 463.38 488.819 471.448C494.251 479.502 499.443 488.923 500.676 497.304C501.921 505.772 502.171 514.988 502.609 524.317C503.047 533.631 503.673 543.045 505.684 551.843C508.882 565.835 513.685 583.043 516.769 592.471C500.669 563.413 451.765 467.739 446.625 456.523C443.891 450.559 440.526 440.84 437.906 430.299C435.286 419.755 433.423 408.43 433.671 399.245C433.92 390.018 434.917 379.177 437.283 368.717C439.65 358.252 443.38 348.202 449.072 340.529C460.591 325.004 474.656 299.415 476.669 278.279C478.67 257.268 477.673 238.684 478.171 224.249C478.421 216.991 478.67 208.768 479.666 201.486C480.164 197.847 480.846 194.458 481.802 191.552C482.759 188.641 483.98 186.248 485.537 184.571L484.832 183.864C458.827 207.869 438.732 226.95 427.69 265.093C422.169 284.167 421.67 301.979 422.672 318.324C423.173 326.495 424.049 334.305 424.861 341.716C425.674 349.132 426.422 356.146 426.671 362.75C427.577 386.752 426.838 399.748 429.693 415.445C425.46 405.545 418.042 388.663 411.202 370.369C403.138 348.801 395.919 325.376 395.671 309.224C395.172 276.768 400.667 236.325 409.146 210.387C417.65 184.376 428.189 142.768 420.661 106.131C413.157 69.613 409.653 58.5988 405.152 42.5957C400.648 26.5796 397.181 12.6759 398.667 0.291016L397.73 -0.00585938ZM338.672 576.231C352.172 575.231 394.672 583.731 411.172 588.231C424.372 591.831 450 602.827 467 610.994C429 596.494 373.172 583.231 338.672 576.231ZM220.172 419.231C235.372 421.631 297.172 455.898 326.172 472.731L293.172 440.731C309.839 454.231 343.772 481.831 346.172 484.231C348.572 486.631 365.172 495.898 373.172 500.231C366.672 492.231 353.372 475.031 352.172 470.231C355.672 475.731 389.172 512.731 401.172 519.731C410.772 525.331 432.672 540.231 432.672 540.231C395.5 519.731 380 513.994 342.672 503.731C342.672 503.731 369.172 507.231 383.672 511.731C372.672 501.231 240.172 430.731 220.172 419.231ZM595.172 385.231C567.963 414.667 540.25 486.415 536.219 502.514C532.188 518.611 530.676 518.611 530.172 515.852C536.219 452.197 576.025 402.249 595.172 385.231ZM463.172 373.231C463.972 387.631 482.839 443.565 492.172 469.731C486.339 456.231 474.072 427.531 471.672 420.731C468.672 412.231 464.172 396.231 463.172 373.231ZM327.672 378.731C335.672 379.731 352.172 384.994 373.172 396.994C389.972 406.594 395.505 416.327 401.172 422.494C383.172 406.494 352.172 388.494 327.672 378.731ZM543.672 243.231C535.366 284.103 518.456 370.923 517.26 391.231C513.771 372.073 526.23 272.927 543.672 243.231ZM174.672 342.731C194.672 334.731 231 335.494 255.172 337.731C279.344 339.969 314.005 350.494 326.172 356.994C310.339 352.494 276.772 344.731 257.172 342.731C232.672 340.231 207.172 340.231 174.672 342.731ZM464.672 218.231C443.172 267.731 440.5 312.231 432.5 342.731C436.5 265.531 454.505 233.898 464.672 218.231ZM227.172 224.731C247.972 231.931 280.833 275.327 295 296.994C290.5 294.494 281.672 286.731 274.172 277.231C266.672 267.731 243.672 240.731 227.172 224.731ZM389.672 36.7314C386.672 50.2314 384.172 109.231 385.672 143.731C386.872 171.331 386.172 213.231 385.672 230.731C387.182 225.898 391.705 212.246 398.495 193.649C399.186 191.501 399.911 189.518 400.672 187.731C399.923 189.754 399.197 191.728 398.495 193.649C390.837 217.477 387.436 261.592 386.672 282.231C385.839 273.898 383.872 253.731 382.672 239.731C381.172 222.231 371.672 198.231 366.172 176.231C371.672 184.731 377.172 199.731 381.172 215.731C381.172 145.731 368.672 106.231 371.672 111.731C374.072 116.131 379.005 147.231 381.172 162.231C381.672 129.398 384.072 58.3314 389.672 36.7314ZM74.1719 227.231C106.954 225.462 175.216 256.856 209.5 277.231C195.167 271.898 174.521 266.081 160.672 259.231C139.231 248.628 115.42 239.873 74.1719 227.231ZM299.5 96.4941C297 133.994 301 176.494 302.5 198.494C291 162.231 293.5 133.494 299.5 96.4941Z" fill="#FF8701"/>
</g>
</svg>
