<svg width="628" height="670" viewBox="0 0 628 670" fill="none" xmlns="http://www.w3.org/2000/svg">
<path fill-rule="evenodd" clip-rule="evenodd" d="M230.27 0C237.009 12.4811 247.901 31.012 257.287 52.5371C266.674 74.0641 274.576 98.6312 275.329 123.222C276.831 172.297 266.816 217.857 254.806 255.39C248.811 274.124 245.189 288.362 242.19 300.73C239.193 313.096 236.813 323.616 233.307 334.886C227.232 354.412 220.025 378.076 216.919 388.241C229.155 368.766 259.458 322.714 268.426 310.442C273.165 303.957 283.157 288.844 292.594 273.846C302.04 258.832 310.887 243.997 313.367 238.045C318.317 226.166 321.317 204.798 311.361 178.414C301.304 151.761 306.337 130.63 311.358 116.569C313.856 109.575 317.229 99.583 319.976 90.4678C321.349 85.9099 322.565 81.5759 323.437 77.9482C324.312 74.3043 324.829 71.4205 324.829 69.7373L325.793 69.5518C327.762 74.4745 333.553 85.9527 338.363 99.5703C343.183 113.215 347.09 129.181 345.325 143.3C341.826 171.293 341.32 182.365 330.285 206.942C325.889 216.734 322.977 224.014 321.124 229.133C319.266 234.266 318.483 237.197 318.324 238.308L318.313 238.384L318.28 238.453C310.782 254.115 292.866 289.684 281.24 306.521C270.941 321.438 247.5 360.369 233.519 383.942C239.507 376.128 247.642 366.132 253.494 360.865C263.523 351.84 288.06 334.816 296.541 328.829C300.756 325.854 307.856 319.627 314.468 312.704C321.093 305.767 327.153 298.204 329.363 292.555C330.484 289.69 331.698 286.112 333.115 282.109C334.53 278.114 336.144 273.712 338.057 269.229C341.879 260.268 346.909 250.95 353.976 243.884C368.024 229.835 390.122 212.259 428.271 207.741L429.702 207.571L428.683 208.591C420.208 217.066 413.749 224.519 407.282 238.448C400.763 252.49 394.223 262.56 382.647 272.123C376.855 276.908 368.313 281.804 359.754 286.427C351.171 291.063 342.576 295.422 336.594 299.161C328.421 304.269 322.343 310.964 319.432 314.837C326.164 311.359 338.767 305.186 347.165 302.265C352.908 300.267 362.775 296.645 371.953 292.899C376.542 291.026 380.954 289.124 384.59 287.38C388.241 285.629 391.062 284.059 392.509 282.854C393.989 281.62 396.22 279.421 399.15 276.537C402.072 273.662 405.671 270.126 409.864 266.245C418.251 258.484 429.026 249.338 441.56 241.316C466.628 225.272 502.743 211.224 545.887 216.24C563.093 218.241 573.779 219.994 580.147 221.374C583.329 222.063 585.45 222.663 586.772 223.16C587.43 223.407 587.916 223.637 588.24 223.854C588.401 223.962 588.548 224.083 588.654 224.222C588.76 224.36 588.864 224.569 588.822 224.819L588.766 225.162L588.425 225.229C582.489 226.383 566.858 231.389 552.124 242.142C542.904 248.869 533.74 256.273 524.171 262.715C514.587 269.167 504.535 274.699 493.461 277.72C471.396 283.737 442.319 284.239 425.859 285.236C417.593 285.737 411.382 285.986 405.046 287.166C398.723 288.344 392.266 290.453 383.548 294.688C366.021 303.201 339.996 312.708 334.5 314.707C333.852 314.943 332.188 315.753 329.707 317.066C327.24 318.372 323.995 320.158 320.202 322.327C312.616 326.667 302.843 332.537 292.728 339.155C282.611 345.775 272.158 353.139 263.208 360.468C254.988 367.198 248.067 373.875 243.829 379.896C262.005 370.481 272.325 365.56 279.176 362.286C286.241 358.91 289.586 357.299 294.052 354.321C298.556 351.318 311.826 342.555 327.602 334.479C343.356 326.415 361.696 318.99 376.32 318.737L376.926 318.727C405.941 318.224 448.342 317.492 499.123 354.333L498.729 355.227C481.757 351.732 463.886 349.759 445.033 358.193C426.037 366.692 401.434 376.744 376.299 375.236C363.756 374.484 351.054 370.968 337.109 368.291C323.136 365.609 307.821 363.743 289.897 366.232C255.422 371.021 223.652 398.901 207.556 429.894C213.241 423.208 221.191 413.366 230.22 404.015C240.726 393.133 252.796 382.805 264.668 378.764L264.892 378.688C288.259 370.733 302.83 365.768 325.872 367.739L326.942 367.831L326.183 368.591C318.677 376.096 312.922 381.477 307.986 386.162C303.05 390.848 298.938 394.837 294.702 399.57C290.399 404.38 282.718 409.912 274.387 414.61C266.053 419.31 257.003 423.212 249.934 424.727C235.988 427.715 203.152 438.669 184.257 469.995C169.46 494.527 132.242 573.299 114.156 612.472C124.051 601.544 142.058 581.931 149.484 574.875C154.492 570.118 163.006 562.73 171.059 555.552C179.133 548.353 186.723 541.383 189.941 537.422C193.187 533.427 206.575 516.285 224.402 497.332C242.221 478.388 264.517 457.587 285.593 446.297C327.627 423.779 361.196 413.247 386.79 411.239C407.193 409.639 432.628 407.905 442.796 407.238L444.662 407.116L443.106 408.153C438.127 411.473 425.558 420.817 415.189 431.584C402.19 445.083 373.658 472.619 356.609 484.151C339.57 495.678 303.514 515.207 260.943 525.224C239.726 530.216 218.633 537.581 200.727 545.879C182.809 554.182 168.124 563.401 159.688 572.086C146.919 585.231 115.179 622.674 98.2617 642.905C106.653 636.463 121.29 626.106 133.615 620.285C138.061 618.186 142.9 614.747 148.289 610.576C153.657 606.422 159.593 601.524 166.153 596.588C179.299 586.698 195.109 576.529 214.699 571.255C234.217 566 251.017 562.737 268.646 562.862C286.277 562.988 304.71 566.503 327.5 574.768L328.951 575.294L327.467 575.718C313.463 579.719 304.864 582.337 297.77 585.262C290.686 588.182 285.091 591.414 277.104 596.655C261.2 607.092 251.032 619.727 223.856 621.236C210.317 621.988 197.887 620.484 185.86 619.736C173.815 618.987 162.138 618.993 149.976 622.716C125.541 630.196 95.1396 647.15 77.2197 669.55L77.0195 669.8L76.708 669.723C71.8175 668.5 67.8816 665.822 66.5 664.613L66.1182 664.279L66.458 663.902C71.8505 657.929 80.0531 647.21 87.1045 634.495C94.1593 621.774 100.036 607.101 100.83 593.209C102.829 558.22 100.812 535.896 84.9424 516.555C80.948 511.686 76.5465 506.63 72.1084 501.543C67.6721 496.458 63.1991 491.344 59.0693 486.369C50.8266 476.44 43.8885 466.998 41.3545 459.396C38.8463 451.871 35.9657 439.844 33.0938 428.106C30.2154 416.343 27.3481 404.88 24.8623 398.417C22.3691 391.935 18.127 382.327 13.5107 373.469C11.2027 369.04 8.80474 364.804 6.48828 361.244C4.16637 357.676 1.94658 354.817 0 353.113L0.50293 352.269C7.30331 354.787 21.3392 362.06 35.8555 371.695C50.3691 381.329 65.4299 393.369 74.2334 405.442C91.7649 429.486 105.829 455.089 105.829 493.237C105.829 512.255 105.078 520.019 104.703 525.272C104.331 530.477 104.328 533.187 105.822 542.155C108.282 556.915 108.394 573.675 108.079 582.592C110.282 574.138 113.955 558.256 116.71 539.788C120.083 517.178 122.073 490.742 118.337 469.323C110.843 426.357 107.834 412.812 106.832 403.29C106.714 402.17 106.234 400.517 105.447 398.416C104.664 396.325 103.591 393.827 102.312 391.031C99.7532 385.439 96.3832 378.681 92.8818 371.647C85.8933 357.608 78.3638 342.429 75.8477 333.371C70.8247 315.289 68.8264 279.716 73.334 249.164C75.128 237.005 74.9176 227.847 73.9346 221.35C72.9483 214.831 71.1923 211.039 69.9463 209.56L70.6699 208.871C76.6056 214.389 85.9988 224.209 94.9121 235.757C103.821 247.298 112.278 260.602 116.305 273.084C126.307 304.092 130.336 327.673 129.327 339.779C129.074 342.822 128.127 347.387 126.862 352.728C125.596 358.075 124 364.24 122.439 370.483C119.309 383.007 116.329 395.813 116.329 403.237C116.329 418.185 120.319 440.634 122.322 452.655C123.323 458.661 124.45 466.296 125.201 473.246C125.677 477.648 126.005 481.804 126.05 485.103C128.977 473.587 131.148 460.15 129.831 444.78C128.326 427.219 129.829 413.126 136.876 398.025C140.387 390.502 143.899 384.606 147.084 379.111C150.271 373.612 153.127 368.519 155.361 362.562C159.869 350.54 161.829 345.129 161.829 338.237L162.797 338.062C167.281 350.02 176.333 366.131 175.329 395.255C174.323 424.425 156.228 448.539 152.233 454.031C150.191 456.84 144.622 463.386 139.181 471.454C133.749 479.508 128.557 488.929 127.324 497.31C126.079 505.778 125.829 514.994 125.391 524.323C124.953 533.636 124.327 543.051 122.316 551.849C119.118 565.841 114.315 583.049 111.231 592.477C127.331 563.418 176.235 467.745 181.375 456.529C184.109 450.565 187.474 440.845 190.094 430.305C192.714 419.761 194.577 408.435 194.329 399.251C194.08 390.024 193.083 379.182 190.717 368.723C188.35 358.258 184.62 348.207 178.928 340.535C167.409 325.01 153.344 299.421 151.331 278.285C149.33 257.274 150.327 238.69 149.829 224.255C149.579 216.997 149.33 208.774 148.334 201.492C147.836 197.853 147.154 194.463 146.198 191.558C145.241 188.647 144.02 186.254 142.463 184.577L143.168 183.87C169.173 207.875 189.268 226.956 200.31 265.099C205.831 284.173 206.33 301.985 205.328 318.33C204.827 326.501 203.951 334.31 203.139 341.722C202.326 349.138 201.578 356.152 201.329 362.756C200.423 386.757 201.162 399.754 198.307 415.451C202.54 405.551 209.958 388.669 216.798 370.375C224.862 348.807 232.081 325.382 232.329 309.229C232.828 276.774 227.333 236.331 218.854 210.393C210.35 184.382 199.811 142.774 207.339 106.137C214.843 69.6188 218.347 58.6046 222.848 42.6016C227.352 26.5855 230.819 12.6817 229.333 0.296875L230.27 0ZM289.328 576.237C275.828 575.237 233.328 583.737 216.828 588.237C203.628 591.837 178 602.833 161 611C199 596.5 254.828 583.237 289.328 576.237ZM407.828 419.237C392.628 421.637 330.828 455.904 301.828 472.737L334.828 440.737C318.161 454.237 284.228 481.837 281.828 484.237C279.428 486.637 262.828 495.904 254.828 500.237C261.328 492.237 274.628 475.037 275.828 470.237C272.328 475.737 238.828 512.737 226.828 519.737C217.228 525.337 195.328 540.237 195.328 540.237C232.5 519.737 248 514 285.328 503.737C285.328 503.737 258.828 507.237 244.328 511.737C255.328 501.237 387.828 430.737 407.828 419.237ZM32.8281 385.237C60.0372 414.673 87.7499 486.421 91.7812 502.52C95.8123 518.617 97.3242 518.617 97.8281 515.857C91.7815 452.203 51.9754 402.255 32.8281 385.237ZM164.828 373.237C164.028 387.637 145.161 443.571 135.828 469.737C141.661 456.237 153.928 427.537 156.328 420.737C159.328 412.237 163.828 396.237 164.828 373.237ZM300.328 378.737C292.328 379.737 275.828 385 254.828 397C238.028 406.6 232.495 416.333 226.828 422.5C244.828 406.5 275.828 388.5 300.328 378.737ZM84.3281 243.237C92.6339 284.109 109.544 370.929 110.74 391.237C114.229 372.079 101.77 272.933 84.3281 243.237ZM453.328 342.737C433.328 334.737 397 335.5 372.828 337.737C348.656 339.975 313.995 350.5 301.828 357C317.661 352.5 351.228 344.737 370.828 342.737C395.328 340.237 420.828 340.237 453.328 342.737ZM163.328 218.237C184.828 267.737 187.5 312.237 195.5 342.737C191.5 265.537 173.495 233.904 163.328 218.237ZM400.828 224.737C380.028 231.937 347.167 275.333 333 297C337.5 294.5 346.328 286.737 353.828 277.237C361.328 267.737 384.328 240.737 400.828 224.737ZM238.328 36.7373C241.328 50.2373 243.828 109.237 242.328 143.737C241.128 171.337 241.828 213.237 242.328 230.737C240.818 225.903 236.295 212.252 229.505 193.655C228.814 191.507 228.089 189.524 227.328 187.737C228.077 189.76 228.803 191.734 229.505 193.655C237.163 217.483 240.564 261.598 241.328 282.237C242.161 273.904 244.128 253.737 245.328 239.737C246.828 222.237 256.328 198.237 261.828 176.237C256.328 184.737 250.828 199.737 246.828 215.737C246.828 145.737 259.328 106.237 256.328 111.737C253.928 116.137 248.995 147.237 246.828 162.237C246.328 129.404 243.928 58.3373 238.328 36.7373ZM553.828 227.237C521.046 225.468 452.784 256.861 418.5 277.237C432.833 271.904 453.479 266.086 467.328 259.237C488.769 248.634 512.58 239.879 553.828 227.237ZM328.5 96.5C331 134 327 176.5 325.5 198.5C337 162.237 334.5 133.5 328.5 96.5Z" fill="#121212"/>
<mask id="mask0_551_227" style="mask-type:alpha" maskUnits="userSpaceOnUse" x="384" y="202" width="244" height="97">
<path d="M628 208.5L576.5 253.5L537.5 298.5H419L384 285L426.5 239.5L465 213L546.5 202L628 208.5Z" fill="#D9D9D9"/>
</mask>
<g mask="url(#mask0_551_227)">
<path fill-rule="evenodd" clip-rule="evenodd" d="M230.27 0C237.009 12.4811 247.901 31.012 257.287 52.5371C266.674 74.0641 274.576 98.6312 275.329 123.222C276.831 172.297 266.816 217.857 254.806 255.39C248.811 274.124 245.189 288.362 242.19 300.73C239.193 313.096 236.813 323.616 233.307 334.886C227.232 354.412 220.025 378.076 216.919 388.241C229.155 368.766 259.458 322.714 268.426 310.442C273.165 303.957 283.157 288.844 292.594 273.846C302.04 258.832 310.887 243.997 313.367 238.045C318.317 226.166 321.317 204.798 311.361 178.414C301.304 151.761 306.337 130.63 311.358 116.569C313.856 109.575 317.229 99.583 319.976 90.4678C321.349 85.9099 322.565 81.5759 323.437 77.9482C324.312 74.3043 324.829 71.4205 324.829 69.7373L325.793 69.5518C327.762 74.4745 333.553 85.9527 338.363 99.5703C343.183 113.215 347.09 129.181 345.325 143.3C341.826 171.293 341.32 182.365 330.285 206.942C325.889 216.734 322.977 224.014 321.124 229.133C319.266 234.266 318.483 237.197 318.324 238.308L318.313 238.384L318.28 238.453C310.782 254.115 292.866 289.684 281.24 306.521C270.941 321.438 247.5 360.369 233.519 383.942C239.507 376.128 247.642 366.132 253.494 360.865C263.523 351.84 288.06 334.816 296.541 328.829C300.756 325.854 307.856 319.627 314.468 312.704C321.093 305.767 327.153 298.204 329.363 292.555C330.484 289.69 331.698 286.112 333.115 282.109C334.53 278.114 336.144 273.712 338.057 269.229C341.879 260.268 346.909 250.95 353.976 243.884C368.024 229.835 390.122 212.259 428.271 207.741L429.702 207.571L428.683 208.591C420.208 217.066 413.749 224.519 407.282 238.448C400.763 252.49 394.223 262.56 382.647 272.123C376.855 276.908 368.313 281.804 359.754 286.427C351.171 291.063 342.576 295.422 336.594 299.161C328.421 304.269 322.343 310.964 319.432 314.837C326.164 311.359 338.767 305.186 347.165 302.265C352.908 300.267 362.775 296.645 371.953 292.899C376.542 291.026 380.954 289.124 384.59 287.38C388.241 285.629 391.062 284.059 392.509 282.854C393.989 281.62 396.22 279.421 399.15 276.537C402.072 273.662 405.671 270.126 409.864 266.245C418.251 258.484 429.026 249.338 441.56 241.316C466.628 225.272 502.743 211.224 545.887 216.24C563.093 218.241 573.779 219.994 580.147 221.374C583.329 222.063 585.45 222.663 586.772 223.16C587.43 223.407 587.916 223.637 588.24 223.854C588.401 223.962 588.548 224.083 588.654 224.222C588.76 224.36 588.864 224.569 588.822 224.819L588.766 225.162L588.425 225.229C582.489 226.383 566.858 231.389 552.124 242.142C542.904 248.869 533.74 256.273 524.171 262.715C514.587 269.167 504.535 274.699 493.461 277.72C471.396 283.737 442.319 284.239 425.859 285.236C417.593 285.737 411.382 285.986 405.046 287.166C398.723 288.344 392.266 290.453 383.548 294.688C366.021 303.201 339.996 312.708 334.5 314.707C333.852 314.943 332.188 315.753 329.707 317.066C327.24 318.372 323.995 320.158 320.202 322.327C312.616 326.667 302.843 332.537 292.728 339.155C282.611 345.775 272.158 353.139 263.208 360.468C254.988 367.198 248.067 373.875 243.829 379.896C262.005 370.481 272.325 365.56 279.176 362.286C286.241 358.91 289.586 357.299 294.052 354.321C298.556 351.318 311.826 342.555 327.602 334.479C343.356 326.415 361.696 318.99 376.32 318.737L376.926 318.727C405.941 318.224 448.342 317.492 499.123 354.333L498.729 355.227C481.757 351.732 463.886 349.759 445.033 358.193C426.037 366.692 401.434 376.744 376.299 375.236C363.756 374.484 351.054 370.968 337.109 368.291C323.136 365.609 307.821 363.743 289.897 366.232C255.422 371.021 223.652 398.901 207.556 429.894C213.241 423.208 221.191 413.366 230.22 404.015C240.726 393.133 252.796 382.805 264.668 378.764L264.892 378.688C288.259 370.733 302.83 365.768 325.872 367.739L326.942 367.831L326.183 368.591C318.677 376.096 312.922 381.477 307.986 386.162C303.05 390.848 298.938 394.837 294.702 399.57C290.399 404.38 282.718 409.912 274.387 414.61C266.053 419.31 257.003 423.212 249.934 424.727C235.988 427.715 203.152 438.669 184.257 469.995C169.46 494.527 132.242 573.299 114.156 612.472C124.051 601.544 142.058 581.931 149.484 574.875C154.492 570.118 163.006 562.73 171.059 555.552C179.133 548.353 186.723 541.383 189.941 537.422C193.187 533.427 206.575 516.285 224.402 497.332C242.221 478.388 264.517 457.587 285.593 446.297C327.627 423.779 361.196 413.247 386.79 411.239C407.193 409.639 432.628 407.905 442.796 407.238L444.662 407.116L443.106 408.153C438.127 411.473 425.558 420.817 415.189 431.584C402.19 445.083 373.658 472.619 356.609 484.151C339.57 495.678 303.514 515.207 260.943 525.224C239.726 530.216 218.633 537.581 200.727 545.879C182.809 554.182 168.124 563.401 159.688 572.086C146.919 585.231 115.179 622.674 98.2617 642.905C106.653 636.463 121.29 626.106 133.615 620.285C138.061 618.186 142.9 614.747 148.289 610.576C153.657 606.422 159.593 601.524 166.153 596.588C179.299 586.698 195.109 576.529 214.699 571.255C234.217 566 251.017 562.737 268.646 562.862C286.277 562.988 304.71 566.503 327.5 574.768L328.951 575.294L327.467 575.718C313.463 579.719 304.864 582.337 297.77 585.262C290.686 588.182 285.091 591.414 277.104 596.655C261.2 607.092 251.032 619.727 223.856 621.236C210.317 621.988 197.887 620.484 185.86 619.736C173.815 618.987 162.138 618.993 149.976 622.716C125.541 630.196 95.1396 647.15 77.2197 669.55L77.0195 669.8L76.708 669.723C71.8175 668.5 67.8816 665.822 66.5 664.613L66.1182 664.279L66.458 663.902C71.8505 657.929 80.0531 647.21 87.1045 634.495C94.1593 621.774 100.036 607.101 100.83 593.209C102.829 558.22 100.812 535.896 84.9424 516.555C80.948 511.686 76.5465 506.63 72.1084 501.543C67.6721 496.458 63.1991 491.344 59.0693 486.369C50.8266 476.44 43.8885 466.998 41.3545 459.396C38.8463 451.871 35.9657 439.844 33.0938 428.106C30.2154 416.343 27.3481 404.88 24.8623 398.417C22.3691 391.935 18.127 382.327 13.5107 373.469C11.2027 369.04 8.80474 364.804 6.48828 361.244C4.16637 357.676 1.94658 354.817 0 353.113L0.50293 352.269C7.30331 354.787 21.3392 362.06 35.8555 371.695C50.3691 381.329 65.4299 393.369 74.2334 405.442C91.7649 429.486 105.829 455.089 105.829 493.237C105.829 512.255 105.078 520.019 104.703 525.272C104.331 530.477 104.328 533.187 105.822 542.155C108.282 556.915 108.394 573.675 108.079 582.592C110.282 574.138 113.955 558.256 116.71 539.788C120.083 517.178 122.073 490.742 118.337 469.323C110.843 426.357 107.834 412.812 106.832 403.29C106.714 402.17 106.234 400.517 105.447 398.416C104.664 396.325 103.591 393.827 102.312 391.031C99.7532 385.439 96.3832 378.681 92.8818 371.647C85.8933 357.608 78.3638 342.429 75.8477 333.371C70.8247 315.289 68.8264 279.716 73.334 249.164C75.128 237.005 74.9176 227.847 73.9346 221.35C72.9483 214.831 71.1923 211.039 69.9463 209.56L70.6699 208.871C76.6056 214.389 85.9988 224.209 94.9121 235.757C103.821 247.298 112.278 260.602 116.305 273.084C126.307 304.092 130.336 327.673 129.327 339.779C129.074 342.822 128.127 347.387 126.862 352.728C125.596 358.075 124 364.24 122.439 370.483C119.309 383.007 116.329 395.813 116.329 403.237C116.329 418.185 120.319 440.634 122.322 452.655C123.323 458.661 124.45 466.296 125.201 473.246C125.677 477.648 126.005 481.804 126.05 485.103C128.977 473.587 131.148 460.15 129.831 444.78C128.326 427.219 129.829 413.126 136.876 398.025C140.387 390.502 143.899 384.606 147.084 379.111C150.271 373.612 153.127 368.519 155.361 362.562C159.869 350.54 161.829 345.129 161.829 338.237L162.797 338.062C167.281 350.02 176.333 366.131 175.329 395.255C174.323 424.425 156.228 448.539 152.233 454.031C150.191 456.84 144.622 463.386 139.181 471.454C133.749 479.508 128.557 488.929 127.324 497.31C126.079 505.778 125.829 514.994 125.391 524.323C124.953 533.636 124.327 543.051 122.316 551.849C119.118 565.841 114.315 583.049 111.231 592.477C127.331 563.418 176.235 467.745 181.375 456.529C184.109 450.565 187.474 440.845 190.094 430.305C192.714 419.761 194.577 408.435 194.329 399.251C194.08 390.024 193.083 379.182 190.717 368.723C188.35 358.258 184.62 348.207 178.928 340.535C167.409 325.01 153.344 299.421 151.331 278.285C149.33 257.274 150.327 238.69 149.829 224.255C149.579 216.997 149.33 208.774 148.334 201.492C147.836 197.853 147.154 194.463 146.198 191.558C145.241 188.647 144.02 186.254 142.463 184.577L143.168 183.87C169.173 207.875 189.268 226.956 200.31 265.099C205.831 284.173 206.33 301.985 205.328 318.33C204.827 326.501 203.951 334.31 203.139 341.722C202.326 349.138 201.578 356.152 201.329 362.756C200.423 386.757 201.162 399.754 198.307 415.451C202.54 405.551 209.958 388.669 216.798 370.375C224.862 348.807 232.081 325.382 232.329 309.229C232.828 276.774 227.333 236.331 218.854 210.393C210.35 184.382 199.811 142.774 207.339 106.137C214.843 69.6188 218.347 58.6046 222.848 42.6016C227.352 26.5855 230.819 12.6817 229.333 0.296875L230.27 0ZM289.328 576.237C275.828 575.237 233.328 583.737 216.828 588.237C203.628 591.837 178 602.833 161 611C199 596.5 254.828 583.237 289.328 576.237ZM407.828 419.237C392.628 421.637 330.828 455.904 301.828 472.737L334.828 440.737C318.161 454.237 284.228 481.837 281.828 484.237C279.428 486.637 262.828 495.904 254.828 500.237C261.328 492.237 274.628 475.037 275.828 470.237C272.328 475.737 238.828 512.737 226.828 519.737C217.228 525.337 195.328 540.237 195.328 540.237C232.5 519.737 248 514 285.328 503.737C285.328 503.737 258.828 507.237 244.328 511.737C255.328 501.237 387.828 430.737 407.828 419.237ZM32.8281 385.237C60.0372 414.673 87.7499 486.421 91.7812 502.52C95.8123 518.617 97.3242 518.617 97.8281 515.857C91.7815 452.203 51.9754 402.255 32.8281 385.237ZM164.828 373.237C164.028 387.637 145.161 443.571 135.828 469.737C141.661 456.237 153.928 427.537 156.328 420.737C159.328 412.237 163.828 396.237 164.828 373.237ZM300.328 378.737C292.328 379.737 275.828 385 254.828 397C238.028 406.6 232.495 416.333 226.828 422.5C244.828 406.5 275.828 388.5 300.328 378.737ZM84.3281 243.237C92.6339 284.109 109.544 370.929 110.74 391.237C114.229 372.079 101.77 272.933 84.3281 243.237ZM453.328 342.737C433.328 334.737 397 335.5 372.828 337.737C348.656 339.975 313.995 350.5 301.828 357C317.661 352.5 351.228 344.737 370.828 342.737C395.328 340.237 420.828 340.237 453.328 342.737ZM163.328 218.237C184.828 267.737 187.5 312.237 195.5 342.737C191.5 265.537 173.495 233.904 163.328 218.237ZM400.828 224.737C380.028 231.937 347.167 275.333 333 297C337.5 294.5 346.328 286.737 353.828 277.237C361.328 267.737 384.328 240.737 400.828 224.737ZM238.328 36.7373C241.328 50.2373 243.828 109.237 242.328 143.737C241.128 171.337 241.828 213.237 242.328 230.737C240.818 225.903 236.295 212.252 229.505 193.655C228.814 191.507 228.089 189.524 227.328 187.737C228.077 189.76 228.803 191.734 229.505 193.655C237.163 217.483 240.564 261.598 241.328 282.237C242.161 273.904 244.128 253.737 245.328 239.737C246.828 222.237 256.328 198.237 261.828 176.237C256.328 184.737 250.828 199.737 246.828 215.737C246.828 145.737 259.328 106.237 256.328 111.737C253.928 116.137 248.995 147.237 246.828 162.237C246.328 129.404 243.928 58.3373 238.328 36.7373ZM553.828 227.237C521.046 225.468 452.784 256.861 418.5 277.237C432.833 271.904 453.479 266.086 467.328 259.237C488.769 248.634 512.58 239.879 553.828 227.237ZM328.5 96.5C331 134 327 176.5 325.5 198.5C337 162.237 334.5 133.5 328.5 96.5Z" fill="#01C09A"/>
</g>
<mask id="mask1_551_227" style="mask-type:alpha" maskUnits="userSpaceOnUse" x="202" y="365" width="128" height="86">
<path d="M329.5 367.5L310 398.5L258.5 430.5L202.5 450.5L208.5 429L228.5 402L246 387.5L270.5 373.5L303 365.5L329.5 367.5Z" fill="#D9D9D9"/>
</mask>
<g mask="url(#mask1_551_227)">
<path fill-rule="evenodd" clip-rule="evenodd" d="M230.27 0C237.009 12.4811 247.901 31.012 257.287 52.5371C266.674 74.0641 274.576 98.6312 275.329 123.222C276.831 172.297 266.816 217.857 254.806 255.39C248.811 274.124 245.189 288.362 242.19 300.73C239.193 313.096 236.813 323.616 233.307 334.886C227.232 354.412 220.025 378.076 216.919 388.241C229.155 368.766 259.458 322.714 268.426 310.442C273.165 303.957 283.157 288.844 292.594 273.846C302.04 258.832 310.887 243.997 313.367 238.045C318.317 226.166 321.317 204.798 311.361 178.414C301.304 151.761 306.337 130.63 311.358 116.569C313.856 109.575 317.229 99.583 319.976 90.4678C321.349 85.9099 322.565 81.5759 323.437 77.9482C324.312 74.3043 324.829 71.4205 324.829 69.7373L325.793 69.5518C327.762 74.4745 333.553 85.9527 338.363 99.5703C343.183 113.215 347.09 129.181 345.325 143.3C341.826 171.293 341.32 182.365 330.285 206.942C325.889 216.734 322.977 224.014 321.124 229.133C319.266 234.266 318.483 237.197 318.324 238.308L318.313 238.384L318.28 238.453C310.782 254.115 292.866 289.684 281.24 306.521C270.941 321.438 247.5 360.369 233.519 383.942C239.507 376.128 247.642 366.132 253.494 360.865C263.523 351.84 288.06 334.816 296.541 328.829C300.756 325.854 307.856 319.627 314.468 312.704C321.093 305.767 327.153 298.204 329.363 292.555C330.484 289.69 331.698 286.112 333.115 282.109C334.53 278.114 336.144 273.712 338.057 269.229C341.879 260.268 346.909 250.95 353.976 243.884C368.024 229.835 390.122 212.259 428.271 207.741L429.702 207.571L428.683 208.591C420.208 217.066 413.749 224.519 407.282 238.448C400.763 252.49 394.223 262.56 382.647 272.123C376.855 276.908 368.313 281.804 359.754 286.427C351.171 291.063 342.576 295.422 336.594 299.161C328.421 304.269 322.343 310.964 319.432 314.837C326.164 311.359 338.767 305.186 347.165 302.265C352.908 300.267 362.775 296.645 371.953 292.899C376.542 291.026 380.954 289.124 384.59 287.38C388.241 285.629 391.062 284.059 392.509 282.854C393.989 281.62 396.22 279.421 399.15 276.537C402.072 273.662 405.671 270.126 409.864 266.245C418.251 258.484 429.026 249.338 441.56 241.316C466.628 225.272 502.743 211.224 545.887 216.24C563.093 218.241 573.779 219.994 580.147 221.374C583.329 222.063 585.45 222.663 586.772 223.16C587.43 223.407 587.916 223.637 588.24 223.854C588.401 223.962 588.548 224.083 588.654 224.222C588.76 224.36 588.864 224.569 588.822 224.819L588.766 225.162L588.425 225.229C582.489 226.383 566.858 231.389 552.124 242.142C542.904 248.869 533.74 256.273 524.171 262.715C514.587 269.167 504.535 274.699 493.461 277.72C471.396 283.737 442.319 284.239 425.859 285.236C417.593 285.737 411.382 285.986 405.046 287.166C398.723 288.344 392.266 290.453 383.548 294.688C366.021 303.201 339.996 312.708 334.5 314.707C333.852 314.943 332.188 315.753 329.707 317.066C327.24 318.372 323.995 320.158 320.202 322.327C312.616 326.667 302.843 332.537 292.728 339.155C282.611 345.775 272.158 353.139 263.208 360.468C254.988 367.198 248.067 373.875 243.829 379.896C262.005 370.481 272.325 365.56 279.176 362.286C286.241 358.91 289.586 357.299 294.052 354.321C298.556 351.318 311.826 342.555 327.602 334.479C343.356 326.415 361.696 318.99 376.32 318.737L376.926 318.727C405.941 318.224 448.342 317.492 499.123 354.333L498.729 355.227C481.757 351.732 463.886 349.759 445.033 358.193C426.037 366.692 401.434 376.744 376.299 375.236C363.756 374.484 351.054 370.968 337.109 368.291C323.136 365.609 307.821 363.743 289.897 366.232C255.422 371.021 223.652 398.901 207.556 429.894C213.241 423.208 221.191 413.366 230.22 404.015C240.726 393.133 252.796 382.805 264.668 378.764L264.892 378.688C288.259 370.733 302.83 365.768 325.872 367.739L326.942 367.831L326.183 368.591C318.677 376.096 312.922 381.477 307.986 386.162C303.05 390.848 298.938 394.837 294.702 399.57C290.399 404.38 282.718 409.912 274.387 414.61C266.053 419.31 257.003 423.212 249.934 424.727C235.988 427.715 203.152 438.669 184.257 469.995C169.46 494.527 132.242 573.299 114.156 612.472C124.051 601.544 142.058 581.931 149.484 574.875C154.492 570.118 163.006 562.73 171.059 555.552C179.133 548.353 186.723 541.383 189.941 537.422C193.187 533.427 206.575 516.285 224.402 497.332C242.221 478.388 264.517 457.587 285.593 446.297C327.627 423.779 361.196 413.247 386.79 411.239C407.193 409.639 432.628 407.905 442.796 407.238L444.662 407.116L443.106 408.153C438.127 411.473 425.558 420.817 415.189 431.584C402.19 445.083 373.658 472.619 356.609 484.151C339.57 495.678 303.514 515.207 260.943 525.224C239.726 530.216 218.633 537.581 200.727 545.879C182.809 554.182 168.124 563.401 159.688 572.086C146.919 585.231 115.179 622.674 98.2617 642.905C106.653 636.463 121.29 626.106 133.615 620.285C138.061 618.186 142.9 614.747 148.289 610.576C153.657 606.422 159.593 601.524 166.153 596.588C179.299 586.698 195.109 576.529 214.699 571.255C234.217 566 251.017 562.737 268.646 562.862C286.277 562.988 304.71 566.503 327.5 574.768L328.951 575.294L327.467 575.718C313.463 579.719 304.864 582.337 297.77 585.262C290.686 588.182 285.091 591.414 277.104 596.655C261.2 607.092 251.032 619.727 223.856 621.236C210.317 621.988 197.887 620.484 185.86 619.736C173.815 618.987 162.138 618.993 149.976 622.716C125.541 630.196 95.1396 647.15 77.2197 669.55L77.0195 669.8L76.708 669.723C71.8175 668.5 67.8816 665.822 66.5 664.613L66.1182 664.279L66.458 663.902C71.8505 657.929 80.0531 647.21 87.1045 634.495C94.1593 621.774 100.036 607.101 100.83 593.209C102.829 558.22 100.812 535.896 84.9424 516.555C80.948 511.686 76.5465 506.63 72.1084 501.543C67.6721 496.458 63.1991 491.344 59.0693 486.369C50.8266 476.44 43.8885 466.998 41.3545 459.396C38.8463 451.871 35.9657 439.844 33.0938 428.106C30.2154 416.343 27.3481 404.88 24.8623 398.417C22.3691 391.935 18.127 382.327 13.5107 373.469C11.2027 369.04 8.80474 364.804 6.48828 361.244C4.16637 357.676 1.94658 354.817 0 353.113L0.50293 352.269C7.30331 354.787 21.3392 362.06 35.8555 371.695C50.3691 381.329 65.4299 393.369 74.2334 405.442C91.7649 429.486 105.829 455.089 105.829 493.237C105.829 512.255 105.078 520.019 104.703 525.272C104.331 530.477 104.328 533.187 105.822 542.155C108.282 556.915 108.394 573.675 108.079 582.592C110.282 574.138 113.955 558.256 116.71 539.788C120.083 517.178 122.073 490.742 118.337 469.323C110.843 426.357 107.834 412.812 106.832 403.29C106.714 402.17 106.234 400.517 105.447 398.416C104.664 396.325 103.591 393.827 102.312 391.031C99.7532 385.439 96.3832 378.681 92.8818 371.647C85.8933 357.608 78.3638 342.429 75.8477 333.371C70.8247 315.289 68.8264 279.716 73.334 249.164C75.128 237.005 74.9176 227.847 73.9346 221.35C72.9483 214.831 71.1923 211.039 69.9463 209.56L70.6699 208.871C76.6056 214.389 85.9988 224.209 94.9121 235.757C103.821 247.298 112.278 260.602 116.305 273.084C126.307 304.092 130.336 327.673 129.327 339.779C129.074 342.822 128.127 347.387 126.862 352.728C125.596 358.075 124 364.24 122.439 370.483C119.309 383.007 116.329 395.813 116.329 403.237C116.329 418.185 120.319 440.634 122.322 452.655C123.323 458.661 124.45 466.296 125.201 473.246C125.677 477.648 126.005 481.804 126.05 485.103C128.977 473.587 131.148 460.15 129.831 444.78C128.326 427.219 129.829 413.126 136.876 398.025C140.387 390.502 143.899 384.606 147.084 379.111C150.271 373.612 153.127 368.519 155.361 362.562C159.869 350.54 161.829 345.129 161.829 338.237L162.797 338.062C167.281 350.02 176.333 366.131 175.329 395.255C174.323 424.425 156.228 448.539 152.233 454.031C150.191 456.84 144.622 463.386 139.181 471.454C133.749 479.508 128.557 488.929 127.324 497.31C126.079 505.778 125.829 514.994 125.391 524.323C124.953 533.636 124.327 543.051 122.316 551.849C119.118 565.841 114.315 583.049 111.231 592.477C127.331 563.418 176.235 467.745 181.375 456.529C184.109 450.565 187.474 440.845 190.094 430.305C192.714 419.761 194.577 408.435 194.329 399.251C194.08 390.024 193.083 379.182 190.717 368.723C188.35 358.258 184.62 348.207 178.928 340.535C167.409 325.01 153.344 299.421 151.331 278.285C149.33 257.274 150.327 238.69 149.829 224.255C149.579 216.997 149.33 208.774 148.334 201.492C147.836 197.853 147.154 194.463 146.198 191.558C145.241 188.647 144.02 186.254 142.463 184.577L143.168 183.87C169.173 207.875 189.268 226.956 200.31 265.099C205.831 284.173 206.33 301.985 205.328 318.33C204.827 326.501 203.951 334.31 203.139 341.722C202.326 349.138 201.578 356.152 201.329 362.756C200.423 386.757 201.162 399.754 198.307 415.451C202.54 405.551 209.958 388.669 216.798 370.375C224.862 348.807 232.081 325.382 232.329 309.229C232.828 276.774 227.333 236.331 218.854 210.393C210.35 184.382 199.811 142.774 207.339 106.137C214.843 69.6188 218.347 58.6046 222.848 42.6016C227.352 26.5855 230.819 12.6817 229.333 0.296875L230.27 0ZM289.328 576.237C275.828 575.237 233.328 583.737 216.828 588.237C203.628 591.837 178 602.833 161 611C199 596.5 254.828 583.237 289.328 576.237ZM407.828 419.237C392.628 421.637 330.828 455.904 301.828 472.737L334.828 440.737C318.161 454.237 284.228 481.837 281.828 484.237C279.428 486.637 262.828 495.904 254.828 500.237C261.328 492.237 274.628 475.037 275.828 470.237C272.328 475.737 238.828 512.737 226.828 519.737C217.228 525.337 195.328 540.237 195.328 540.237C232.5 519.737 248 514 285.328 503.737C285.328 503.737 258.828 507.237 244.328 511.737C255.328 501.237 387.828 430.737 407.828 419.237ZM32.8281 385.237C60.0372 414.673 87.7499 486.421 91.7812 502.52C95.8123 518.617 97.3242 518.617 97.8281 515.857C91.7815 452.203 51.9754 402.255 32.8281 385.237ZM164.828 373.237C164.028 387.637 145.161 443.571 135.828 469.737C141.661 456.237 153.928 427.537 156.328 420.737C159.328 412.237 163.828 396.237 164.828 373.237ZM300.328 378.737C292.328 379.737 275.828 385 254.828 397C238.028 406.6 232.495 416.333 226.828 422.5C244.828 406.5 275.828 388.5 300.328 378.737ZM84.3281 243.237C92.6339 284.109 109.544 370.929 110.74 391.237C114.229 372.079 101.77 272.933 84.3281 243.237ZM453.328 342.737C433.328 334.737 397 335.5 372.828 337.737C348.656 339.975 313.995 350.5 301.828 357C317.661 352.5 351.228 344.737 370.828 342.737C395.328 340.237 420.828 340.237 453.328 342.737ZM163.328 218.237C184.828 267.737 187.5 312.237 195.5 342.737C191.5 265.537 173.495 233.904 163.328 218.237ZM400.828 224.737C380.028 231.937 347.167 275.333 333 297C337.5 294.5 346.328 286.737 353.828 277.237C361.328 267.737 384.328 240.737 400.828 224.737ZM238.328 36.7373C241.328 50.2373 243.828 109.237 242.328 143.737C241.128 171.337 241.828 213.237 242.328 230.737C240.818 225.903 236.295 212.252 229.505 193.655C228.814 191.507 228.089 189.524 227.328 187.737C228.077 189.76 228.803 191.734 229.505 193.655C237.163 217.483 240.564 261.598 241.328 282.237C242.161 273.904 244.128 253.737 245.328 239.737C246.828 222.237 256.328 198.237 261.828 176.237C256.328 184.737 250.828 199.737 246.828 215.737C246.828 145.737 259.328 106.237 256.328 111.737C253.928 116.137 248.995 147.237 246.828 162.237C246.328 129.404 243.928 58.3373 238.328 36.7373ZM553.828 227.237C521.046 225.468 452.784 256.861 418.5 277.237C432.833 271.904 453.479 266.086 467.328 259.237C488.769 248.634 512.58 239.879 553.828 227.237ZM328.5 96.5C331 134 327 176.5 325.5 198.5C337 162.237 334.5 133.5 328.5 96.5Z" fill="#01C09A"/>
</g>
<mask id="mask2_551_227" style="mask-type:alpha" maskUnits="userSpaceOnUse" x="40" y="174" width="96" height="250">
<path d="M52.4169 174.451L93.7345 228.95L135.92 270.979L127.696 389.193L111.8 423.172L69.3589 377.617L45.5945 337.371L40.2768 255.304L52.4169 174.451Z" fill="#D9D9D9"/>
</mask>
<g mask="url(#mask2_551_227)">
<path fill-rule="evenodd" clip-rule="evenodd" d="M230.27 0.0117188C237.009 12.4928 247.901 31.0238 257.287 52.5488C266.674 74.0758 274.576 98.6429 275.329 123.233C276.831 172.309 266.816 217.869 254.806 255.401C248.811 274.136 245.189 288.373 242.19 300.742C239.193 313.107 236.813 323.628 233.307 334.897C227.232 354.424 220.025 378.088 216.919 388.253C229.155 368.778 259.458 322.726 268.426 310.454C273.165 303.969 283.157 288.856 292.594 273.857C302.04 258.843 310.887 244.009 313.367 238.057C318.317 226.177 321.317 204.81 311.361 178.426C301.304 151.773 306.337 130.642 311.358 116.581C313.856 109.587 317.229 99.5948 319.976 90.4795C321.349 85.9216 322.565 81.5876 323.437 77.96C324.312 74.316 324.829 71.4322 324.829 69.749L325.793 69.5635C327.762 74.4862 333.553 85.9644 338.363 99.582C343.183 113.226 347.09 129.193 345.325 143.312C341.826 171.305 341.32 182.377 330.285 206.954C325.889 216.745 322.977 224.025 321.124 229.145C319.266 234.278 318.483 237.209 318.324 238.319L318.313 238.396L318.28 238.465C310.782 254.127 292.866 289.696 281.24 306.533C270.941 321.449 247.5 360.381 233.519 383.954C239.507 376.14 247.642 366.144 253.494 360.877C263.523 351.851 288.06 334.828 296.541 328.841C300.756 325.866 307.856 319.639 314.468 312.716C321.093 305.778 327.153 298.215 329.363 292.566C330.484 289.702 331.698 286.123 333.115 282.121C334.53 278.126 336.144 273.723 338.057 269.24C341.879 260.28 346.909 250.962 353.976 243.896C368.024 229.847 390.122 212.27 428.271 207.753L429.702 207.583L428.683 208.603C420.208 217.077 413.749 224.531 407.282 238.46C400.763 252.502 394.223 262.572 382.647 272.135C376.855 276.92 368.313 281.815 359.754 286.438C351.171 291.074 342.576 295.434 336.594 299.173C328.421 304.281 322.343 310.976 319.432 314.849C326.164 311.37 338.767 305.197 347.165 302.276C352.908 300.279 362.775 296.657 371.953 292.911C376.542 291.038 380.954 289.136 384.59 287.392C388.241 285.64 391.062 284.07 392.509 282.865C393.989 281.632 396.22 279.432 399.15 276.549C402.072 273.674 405.671 270.137 409.864 266.257C418.251 258.496 429.026 249.35 441.56 241.328C466.628 225.284 502.743 211.235 545.887 216.252C563.093 218.253 573.779 220.006 580.147 221.386C583.329 222.075 585.45 222.675 586.772 223.172C587.43 223.419 587.916 223.649 588.24 223.866C588.401 223.974 588.548 224.095 588.654 224.233C588.76 224.371 588.864 224.58 588.822 224.831L588.766 225.174L588.425 225.24C582.489 226.394 566.858 231.401 552.124 242.153C542.904 248.881 533.74 256.284 524.171 262.727C514.587 269.179 504.535 274.711 493.461 277.731C471.396 283.749 442.319 284.251 425.859 285.248C417.593 285.749 411.382 285.997 405.046 287.178C398.723 288.355 392.266 290.465 383.548 294.699C366.021 303.212 339.996 312.72 334.5 314.719C333.852 314.955 332.188 315.765 329.707 317.078C327.24 318.384 323.995 320.169 320.202 322.339C312.616 326.678 302.843 332.548 292.728 339.167C282.611 345.786 272.158 353.151 263.208 360.479C254.988 367.21 248.067 373.886 243.829 379.908C262.005 370.493 272.325 365.572 279.176 362.298C286.241 358.921 289.586 357.31 294.052 354.333C298.556 351.33 311.826 342.567 327.602 334.491C343.356 326.426 361.696 319.001 376.32 318.749L376.926 318.738C405.941 318.236 448.342 317.504 499.123 354.345L498.729 355.238C481.757 351.744 463.886 349.771 445.033 358.205C426.037 366.703 401.434 376.756 376.299 375.248C363.756 374.495 351.054 370.98 337.109 368.303C323.136 365.62 307.821 363.755 289.897 366.244C255.422 371.033 223.652 398.912 207.556 429.905C213.241 423.22 221.191 413.378 230.22 404.026C240.726 393.145 252.796 382.817 264.668 378.775L264.892 378.699C288.259 370.744 302.83 365.78 325.872 367.751L326.942 367.843L326.183 368.603C318.677 376.108 312.922 381.489 307.986 386.174C303.05 390.86 298.938 394.848 294.702 399.582C290.399 404.392 282.718 409.924 274.387 414.622C266.053 419.322 257.003 423.223 249.934 424.738C235.988 427.727 203.152 438.681 184.257 470.007C169.46 494.539 132.242 573.311 114.156 612.483C124.051 601.555 142.058 581.942 149.484 574.887C154.492 570.13 163.006 562.742 171.059 555.563C179.133 548.365 186.723 541.395 189.941 537.434C193.187 533.439 206.575 516.297 224.402 497.344C242.221 478.4 264.517 457.599 285.593 446.309C327.627 423.79 361.196 413.258 386.79 411.251C407.193 409.651 432.628 407.917 442.796 407.25L444.662 407.128L443.106 408.165C438.127 411.485 425.558 420.829 415.189 431.596C402.19 445.095 373.658 472.63 356.609 484.163C339.57 495.69 303.514 515.219 260.943 525.235C239.726 530.228 218.633 537.593 200.727 545.891C182.809 554.194 168.124 563.413 159.688 572.098C146.919 585.242 115.179 622.685 98.2617 642.917C106.653 636.475 121.29 626.117 133.615 620.297C138.061 618.197 142.9 614.759 148.289 610.588C153.657 606.433 159.593 601.535 166.153 596.6C179.299 586.709 195.109 576.541 214.699 571.267C234.217 566.012 251.017 562.749 268.646 562.874C286.277 563 304.71 566.515 327.5 574.779L328.951 575.306L327.467 575.729C313.463 579.731 304.864 582.348 297.77 585.273C290.686 588.194 285.091 591.425 277.104 596.667C261.2 607.103 251.032 619.738 223.856 621.248C210.317 622 197.887 620.496 185.86 619.748C173.815 618.999 162.138 619.004 149.976 622.728C125.541 630.207 95.1396 647.162 77.2197 669.562L77.0195 669.812L76.708 669.734C71.8175 668.512 67.8816 665.834 66.5 664.625L66.1182 664.291L66.458 663.914C71.8505 657.941 80.0531 647.222 87.1045 634.507C94.1593 621.786 100.036 607.112 100.83 593.221C102.829 558.232 100.812 535.907 84.9424 516.566C80.948 511.698 76.5465 506.641 72.1084 501.555C67.6721 496.47 63.1991 491.355 59.0693 486.381C50.8266 476.452 43.8885 467.009 41.3545 459.407C38.8463 451.883 35.9657 439.856 33.0938 428.118C30.2154 416.355 27.3481 404.892 24.8623 398.429C22.3691 391.946 18.127 382.339 13.5107 373.48C11.2027 369.052 8.80474 364.816 6.48828 361.256C4.16637 357.687 1.94658 354.828 0 353.125L0.50293 352.28C7.30331 354.799 21.3392 362.071 35.8555 371.707C50.3691 381.341 65.4299 393.381 74.2334 405.454C91.7649 429.497 105.829 455.101 105.829 493.249C105.829 512.267 105.078 520.031 104.703 525.284C104.331 530.488 104.328 533.199 105.822 542.167C108.282 556.927 108.394 573.687 108.079 582.604C110.282 574.15 113.955 558.268 116.71 539.8C120.083 517.19 122.073 490.754 118.337 469.335C110.843 426.369 107.834 412.824 106.832 403.302C106.714 402.182 106.234 400.529 105.447 398.428C104.664 396.337 103.591 393.839 102.312 391.043C99.7532 385.451 96.3832 378.693 92.8818 371.659C85.8933 357.62 78.3638 342.441 75.8477 333.383C70.8247 315.3 68.8264 279.727 73.334 249.176C75.128 237.016 74.9176 227.859 73.9346 221.361C72.9483 214.843 71.1923 211.051 69.9463 209.571L70.6699 208.883C76.6056 214.401 85.9988 224.221 94.9121 235.769C103.821 247.31 112.278 260.614 116.305 273.096C126.307 304.103 130.336 327.685 129.327 339.791C129.074 342.834 128.127 347.399 126.862 352.739C125.596 358.087 124 364.251 122.439 370.495C119.309 383.019 116.329 395.825 116.329 403.249C116.329 418.197 120.319 440.645 122.322 452.667C123.323 458.673 124.45 466.308 125.201 473.258C125.677 477.66 126.005 481.816 126.05 485.114C128.977 473.598 131.148 460.162 129.831 444.792C128.326 427.231 129.829 413.137 136.876 398.037C140.387 390.513 143.899 384.618 147.084 379.123C150.271 373.624 153.127 368.531 155.361 362.573C159.869 350.552 161.829 345.141 161.829 338.249L162.797 338.073C167.281 350.031 176.333 366.143 175.329 395.267C174.323 424.437 156.228 448.55 152.233 454.043C150.191 456.852 144.622 463.398 139.181 471.466C133.749 479.52 128.557 488.94 127.324 497.321C126.079 505.79 125.829 515.006 125.391 524.335C124.953 533.648 124.327 543.063 122.316 551.86C119.118 565.853 114.315 583.061 111.231 592.488C127.331 563.43 176.235 467.756 181.375 456.541C184.109 450.576 187.474 440.857 190.094 430.316C192.714 419.772 194.577 408.447 194.329 399.263C194.08 390.035 193.083 379.194 190.717 368.734C188.35 358.269 184.62 348.219 178.928 340.547C167.409 325.022 153.344 299.433 151.331 278.297C149.33 257.285 150.327 238.701 149.829 224.267C149.579 217.009 149.33 208.786 148.334 201.504C147.836 197.864 147.154 194.475 146.198 191.569C145.241 188.659 144.02 186.265 142.463 184.589L143.168 183.882C169.173 207.887 189.268 226.967 200.31 265.11C205.831 284.184 206.33 301.997 205.328 318.342C204.827 326.512 203.951 334.322 203.139 341.733C202.326 349.15 201.578 356.163 201.329 362.768C200.423 386.769 201.162 399.765 198.307 415.463C202.54 405.563 209.958 388.68 216.798 370.387C224.862 348.819 232.081 325.394 232.329 309.241C232.828 276.786 227.333 236.342 218.854 210.404C210.35 184.394 199.811 142.785 207.339 106.148C214.843 69.6305 218.347 58.6164 222.848 42.6133C227.352 26.5972 230.819 12.6934 229.333 0.308594L230.27 0.0117188ZM289.328 576.249C275.828 575.249 233.328 583.749 216.828 588.249C203.628 591.849 178 602.845 161 611.012C199 596.512 254.828 583.249 289.328 576.249ZM407.828 419.249C392.628 421.649 330.828 455.916 301.828 472.749L334.828 440.749C318.161 454.249 284.228 481.849 281.828 484.249C279.428 486.649 262.828 495.916 254.828 500.249C261.328 492.249 274.628 475.049 275.828 470.249C272.328 475.749 238.828 512.749 226.828 519.749C217.228 525.349 195.328 540.249 195.328 540.249C232.5 519.749 248 514.012 285.328 503.749C285.328 503.749 258.828 507.249 244.328 511.749C255.328 501.249 387.828 430.749 407.828 419.249ZM32.8281 385.249C60.0372 414.684 87.7499 486.433 91.7812 502.531C95.8123 518.629 97.3242 518.629 97.8281 515.869C91.7815 452.215 51.9754 402.266 32.8281 385.249ZM164.828 373.249C164.028 387.649 145.161 443.582 135.828 469.749C141.661 456.249 153.928 427.549 156.328 420.749C159.328 412.249 163.828 396.249 164.828 373.249ZM300.328 378.749C292.328 379.749 275.828 385.012 254.828 397.012C238.028 406.612 232.495 416.345 226.828 422.512C244.828 406.512 275.828 388.512 300.328 378.749ZM84.3281 243.249C92.6339 284.121 109.544 370.941 110.74 391.249C114.229 372.09 101.77 272.945 84.3281 243.249ZM453.328 342.749C433.328 334.749 397 335.512 372.828 337.749C348.656 339.986 313.995 350.512 301.828 357.012C317.661 352.512 351.228 344.749 370.828 342.749C395.328 340.249 420.828 340.249 453.328 342.749ZM163.328 218.249C184.828 267.749 187.5 312.249 195.5 342.749C191.5 265.549 173.495 233.916 163.328 218.249ZM400.828 224.749C380.028 231.949 347.167 275.345 333 297.012C337.5 294.512 346.328 286.749 353.828 277.249C361.328 267.749 384.328 240.749 400.828 224.749ZM238.328 36.749C241.328 50.249 243.828 109.249 242.328 143.749C241.128 171.349 241.828 213.249 242.328 230.749C240.818 225.915 236.295 212.264 229.505 193.667C228.814 191.519 228.089 189.535 227.328 187.749C228.077 189.772 228.803 191.746 229.505 193.667C237.163 217.495 240.564 261.61 241.328 282.249C242.161 273.916 244.128 253.749 245.328 239.749C246.828 222.249 256.328 198.249 261.828 176.249C256.328 184.749 250.828 199.749 246.828 215.749C246.828 145.749 259.328 106.249 256.328 111.749C253.928 116.149 248.995 147.249 246.828 162.249C246.328 129.416 243.928 58.349 238.328 36.749ZM553.828 227.249C521.046 225.48 452.784 256.873 418.5 277.249C432.833 271.916 453.479 266.098 467.328 259.249C488.769 248.646 512.58 239.89 553.828 227.249ZM328.5 96.5117C331 134.012 327 176.512 325.5 198.512C337 162.249 334.5 133.512 328.5 96.5117Z" fill="#01C09A"/>
</g>
<mask id="mask3_551_227" style="mask-type:alpha" maskUnits="userSpaceOnUse" x="170" y="391" width="302" height="163">
<path d="M471.384 391.083L415.159 456.009L375.373 517.076L219.524 553.65L170.041 549.743L214.302 487.05L258.161 446.294L362.535 409.155L471.384 391.083Z" fill="#D9D9D9"/>
</mask>
<g mask="url(#mask3_551_227)">
<path fill-rule="evenodd" clip-rule="evenodd" d="M230.27 -0.0136719C237.009 12.4674 247.901 30.9984 257.287 52.5234C266.674 74.0504 274.576 98.6175 275.329 123.208C276.831 172.284 266.816 217.843 254.806 255.376C248.811 274.11 245.189 288.348 242.19 300.717C239.193 313.082 236.813 323.603 233.307 334.872C227.232 354.398 220.025 378.063 216.919 388.228C229.155 368.753 259.458 322.7 268.426 310.429C273.165 303.944 283.157 288.83 292.594 273.832C302.04 258.818 310.887 243.984 313.367 238.031C318.317 226.152 321.317 204.784 311.361 178.4C301.304 151.748 306.337 130.617 311.358 116.556C313.856 109.562 317.229 99.5694 319.976 90.4541C321.349 85.8962 322.565 81.5622 323.437 77.9346C324.312 74.2906 324.829 71.4069 324.829 69.7236L325.793 69.5381C327.762 74.4608 333.553 85.939 338.363 99.5566C343.183 113.201 347.09 129.167 345.325 143.286C341.826 171.279 341.32 182.351 330.285 206.929C325.889 216.72 322.977 224 321.124 229.119C319.266 234.252 318.483 237.184 318.324 238.294L318.313 238.37L318.28 238.439C310.782 254.102 292.866 289.67 281.24 306.508C270.941 321.424 247.5 360.355 233.519 383.929C239.507 376.114 247.642 366.119 253.494 360.852C263.523 351.826 288.06 334.802 296.541 328.815C300.756 325.84 307.856 319.614 314.468 312.69C321.093 305.753 327.153 298.19 329.363 292.541C330.484 289.676 331.698 286.098 333.115 282.096C334.53 278.1 336.144 273.698 338.057 269.215C341.879 260.254 346.909 250.936 353.976 243.87C368.024 229.821 390.122 212.245 428.271 207.728L429.702 207.558L428.683 208.577C420.208 217.052 413.749 224.505 407.282 238.435C400.763 252.476 394.223 262.547 382.647 272.109C376.855 276.895 368.313 281.79 359.754 286.413C351.171 291.049 342.576 295.409 336.594 299.147C328.421 304.256 322.343 310.951 319.432 314.823C326.164 311.345 338.767 305.172 347.165 302.251C352.908 300.253 362.775 296.632 371.953 292.886C376.542 291.013 380.954 289.11 384.59 287.366C388.241 285.615 391.062 284.045 392.509 282.84C393.989 281.607 396.22 279.407 399.15 276.523C402.072 273.648 405.671 270.112 409.864 266.231C418.251 258.47 429.026 249.325 441.56 241.303C466.628 225.259 502.743 211.21 545.887 216.227C563.093 218.227 573.779 219.98 580.147 221.36C583.329 222.05 585.45 222.649 586.772 223.146C587.43 223.394 587.916 223.624 588.24 223.841C588.401 223.948 588.548 224.069 588.654 224.208C588.76 224.346 588.864 224.555 588.822 224.806L588.766 225.148L588.425 225.215C582.489 226.369 566.858 231.376 552.124 242.128C542.904 248.856 533.74 256.259 524.171 262.701C514.587 269.153 504.535 274.686 493.461 277.706C471.396 283.724 442.319 284.225 425.859 285.223C417.593 285.724 411.382 285.972 405.046 287.152C398.723 288.33 392.266 290.439 383.548 294.674C366.021 303.187 339.996 312.695 334.5 314.693C333.852 314.929 332.188 315.74 329.707 317.053C327.24 318.358 323.995 320.144 320.202 322.313C312.616 326.653 302.843 332.523 292.728 339.142C282.611 345.761 272.158 353.126 263.208 360.454C254.988 367.185 248.067 373.861 243.829 379.883C262.005 370.467 272.325 365.546 279.176 362.272C286.241 358.896 289.586 357.285 294.052 354.308C298.556 351.305 311.826 342.542 327.602 334.466C343.356 326.401 361.696 318.976 376.32 318.724L376.926 318.713C405.941 318.211 448.342 317.478 499.123 354.319L498.729 355.213C481.757 351.719 463.886 349.746 445.033 358.18C426.037 366.678 401.434 376.731 376.299 375.223C363.756 374.47 351.054 370.954 337.109 368.277C323.136 365.595 307.821 363.729 289.897 366.219C255.422 371.007 223.652 398.887 207.556 429.88C213.241 423.194 221.191 413.352 230.22 404.001C240.726 393.12 252.796 382.791 264.668 378.75L264.892 378.674C288.259 370.719 302.83 365.755 325.872 367.726L326.942 367.817L326.183 368.577C318.677 376.083 312.922 381.463 307.986 386.148C303.05 390.834 298.938 394.823 294.702 399.557C290.399 404.366 282.718 409.899 274.387 414.597C266.053 419.296 257.003 423.198 249.934 424.713C235.988 427.701 203.152 438.655 184.257 469.981C169.46 494.513 132.242 573.286 114.156 612.458C124.051 601.53 142.058 581.917 149.484 574.861C154.492 570.104 163.006 562.717 171.059 555.538C179.133 548.34 186.723 541.37 189.941 537.408C193.187 533.413 206.575 516.272 224.402 497.318C242.221 478.374 264.517 457.574 285.593 446.283C327.627 423.765 361.196 413.233 386.79 411.226C407.193 409.625 432.628 407.891 442.796 407.225L444.662 407.103L443.106 408.14C438.127 411.459 425.558 420.803 415.189 431.57C402.19 445.07 373.658 472.605 356.609 484.138C339.57 495.664 303.514 515.193 260.943 525.21C239.726 530.202 218.633 537.567 200.727 545.865C182.809 554.168 168.124 563.387 159.688 572.072C146.919 585.217 115.179 622.66 98.2617 642.892C106.653 636.449 121.29 626.092 133.615 620.271C138.061 618.172 142.9 614.733 148.289 610.562C153.657 606.408 159.593 601.51 166.153 596.574C179.299 586.684 195.109 576.516 214.699 571.241C234.217 565.986 251.017 562.723 268.646 562.849C286.277 562.974 304.71 566.489 327.5 574.754L328.951 575.28L327.467 575.704C313.463 579.705 304.864 582.323 297.77 585.248C290.686 588.168 285.091 591.4 277.104 596.642C261.2 607.078 251.032 619.713 223.856 621.223C210.317 621.975 197.887 620.47 185.86 619.723C173.815 618.974 162.138 618.979 149.976 622.702C125.541 630.182 95.1396 647.136 77.2197 669.536L77.0195 669.786L76.708 669.709C71.8175 668.486 67.8816 665.809 66.5 664.6L66.1182 664.266L66.458 663.889C71.8505 657.915 80.0531 647.196 87.1045 634.481C94.1593 621.76 100.036 607.087 100.83 593.195C102.829 558.207 100.812 535.882 84.9424 516.541C80.948 511.673 76.5465 506.616 72.1084 501.529C67.6721 496.445 63.1991 491.33 59.0693 486.355C50.8266 476.427 43.8885 466.984 41.3545 459.382C38.8463 451.857 35.9657 439.83 33.0938 428.093C30.2154 416.329 27.3481 404.866 24.8623 398.403C22.3691 391.921 18.127 382.313 13.5107 373.455C11.2027 369.026 8.80474 364.791 6.48828 361.23C4.16637 357.662 1.94658 354.803 0 353.1L0.50293 352.255C7.30331 354.774 21.3392 362.046 35.8555 371.682C50.3691 381.316 65.4299 393.355 74.2334 405.429C91.7649 429.472 105.829 455.075 105.829 493.224C105.829 512.241 105.078 520.006 104.703 525.259C104.331 530.463 104.328 533.174 105.822 542.142C108.282 556.902 108.394 573.661 108.079 582.578C110.282 574.125 113.955 558.243 116.71 539.774C120.083 517.164 122.073 490.729 118.337 469.31C110.843 426.343 107.834 412.798 106.832 403.276C106.714 402.156 106.234 400.504 105.447 398.402C104.664 396.312 103.591 393.814 102.312 391.018C99.7532 385.425 96.3832 378.668 92.8818 371.634C85.8933 357.594 78.3638 342.416 75.8477 333.357C70.8247 315.275 68.8264 279.702 73.334 249.15C75.128 236.991 74.9176 227.833 73.9346 221.336C72.9483 214.818 71.1923 211.026 69.9463 209.546L70.6699 208.857C76.6056 214.375 85.9988 224.195 94.9121 235.743C103.821 247.285 112.278 260.589 116.305 273.07C126.307 304.078 130.336 327.66 129.327 339.766C129.074 342.808 128.127 347.374 126.862 352.714C125.596 358.061 124 364.226 122.439 370.47C119.309 382.993 116.329 395.799 116.329 403.224C116.329 418.171 120.319 440.62 122.322 452.642C123.323 458.648 124.45 466.283 125.201 473.232C125.677 477.634 126.005 481.791 126.05 485.089C128.977 473.573 131.148 460.136 129.831 444.767C128.326 427.206 129.829 413.112 136.876 398.012C140.387 390.488 143.899 384.593 147.084 379.098C150.271 373.599 153.127 368.505 155.361 362.548C159.869 350.527 161.829 345.116 161.829 338.224L162.797 338.048C167.281 350.006 176.333 366.118 175.329 395.241C174.323 424.412 156.228 448.525 152.233 454.018C150.191 456.826 144.622 463.372 139.181 471.44C133.749 479.494 128.557 488.915 127.324 497.296C126.079 505.764 125.829 514.98 125.391 524.31C124.953 533.623 124.327 543.037 122.316 551.835C119.118 565.827 114.315 583.036 111.231 592.463C127.331 563.405 176.235 467.731 181.375 456.516C184.109 450.551 187.474 440.832 190.094 430.291C192.714 419.747 194.577 408.422 194.329 399.237C194.08 390.01 193.083 379.169 190.717 368.709C188.35 358.244 184.62 348.194 178.928 340.521C167.409 324.997 153.344 299.407 151.331 278.271C149.33 257.26 150.327 238.676 149.829 224.241C149.579 216.983 149.33 208.761 148.334 201.479C147.836 197.839 147.154 194.45 146.198 191.544C145.241 188.634 144.02 186.24 142.463 184.563L143.168 183.856C169.173 207.861 189.268 226.942 200.31 265.085C205.831 284.159 206.33 301.971 205.328 318.316C204.827 326.487 203.951 334.297 203.139 341.708C202.326 349.124 201.578 356.138 201.329 362.742C200.423 386.744 201.162 399.74 198.307 415.438C202.54 405.538 209.958 388.655 216.798 370.361C224.862 348.794 232.081 325.368 232.329 309.216C232.828 276.761 227.333 236.317 218.854 210.379C210.35 184.368 199.811 142.76 207.339 106.123C214.843 69.6052 218.347 58.591 222.848 42.5879C227.352 26.5718 230.819 12.668 229.333 0.283203L230.27 -0.0136719ZM289.328 576.224C275.828 575.224 233.328 583.724 216.828 588.224C203.628 591.824 178 602.82 161 610.986C199 596.486 254.828 583.224 289.328 576.224ZM407.828 419.224C392.628 421.624 330.828 455.89 301.828 472.724L334.828 440.724C318.161 454.224 284.228 481.824 281.828 484.224C279.428 486.624 262.828 495.89 254.828 500.224C261.328 492.224 274.628 475.024 275.828 470.224C272.328 475.724 238.828 512.724 226.828 519.724C217.228 525.324 195.328 540.224 195.328 540.224C232.5 519.724 248 513.986 285.328 503.724C285.328 503.724 258.828 507.224 244.328 511.724C255.328 501.224 387.828 430.724 407.828 419.224ZM32.8281 385.224C60.0372 414.659 87.7499 486.408 91.7812 502.506C95.8123 518.603 97.3242 518.603 97.8281 515.844C91.7815 452.189 51.9754 402.241 32.8281 385.224ZM164.828 373.224C164.028 387.624 145.161 443.557 135.828 469.724C141.661 456.224 153.928 427.524 156.328 420.724C159.328 412.224 163.828 396.224 164.828 373.224ZM300.328 378.724C292.328 379.724 275.828 384.986 254.828 396.986C238.028 406.586 232.495 416.32 226.828 422.486C244.828 406.486 275.828 388.486 300.328 378.724ZM84.3281 243.224C92.6339 284.095 109.544 370.915 110.74 391.224C114.229 372.065 101.77 272.919 84.3281 243.224ZM453.328 342.724C433.328 334.724 397 335.486 372.828 337.724C348.656 339.961 313.995 350.486 301.828 356.986C317.661 352.486 351.228 344.724 370.828 342.724C395.328 340.224 420.828 340.224 453.328 342.724ZM163.328 218.224C184.828 267.724 187.5 312.224 195.5 342.724C191.5 265.524 173.495 233.89 163.328 218.224ZM400.828 224.724C380.028 231.924 347.167 275.32 333 296.986C337.5 294.486 346.328 286.724 353.828 277.224C361.328 267.724 384.328 240.724 400.828 224.724ZM238.328 36.7236C241.328 50.2236 243.828 109.224 242.328 143.724C241.128 171.324 241.828 213.224 242.328 230.724C240.818 225.89 236.295 212.238 229.505 193.642C228.814 191.493 228.089 189.51 227.328 187.724C228.077 189.746 228.803 191.72 229.505 193.642C237.163 217.469 240.564 261.585 241.328 282.224C242.161 273.89 244.128 253.724 245.328 239.724C246.828 222.224 256.328 198.224 261.828 176.224C256.328 184.724 250.828 199.724 246.828 215.724C246.828 145.724 259.328 106.224 256.328 111.724C253.928 116.124 248.995 147.224 246.828 162.224C246.328 129.39 243.928 58.3236 238.328 36.7236ZM553.828 227.224C521.046 225.455 452.784 256.848 418.5 277.224C432.833 271.89 453.479 266.073 467.328 259.224C488.769 248.62 512.58 239.865 553.828 227.224ZM328.5 96.4863C331 133.986 327 176.486 325.5 198.486C337 162.224 334.5 133.486 328.5 96.4863Z" fill="#01C09A"/>
</g>
<mask id="mask4_551_227" style="mask-type:alpha" maskUnits="userSpaceOnUse" x="278" y="5" width="110" height="254">
<path d="M345.854 5.20678L363.842 71.1892L387.289 125.927L335.533 232.527L308.103 258.116L285.734 200.012L278.71 153.804L304.411 75.6836L345.854 5.20678Z" fill="#D9D9D9"/>
</mask>
<g mask="url(#mask4_551_227)">
<path fill-rule="evenodd" clip-rule="evenodd" d="M230.27 -0.00585938C237.009 12.4752 247.901 31.0062 257.287 52.5312C266.674 74.0582 274.576 98.6254 275.329 123.216C276.831 172.291 266.816 217.851 254.806 255.384C248.811 274.118 245.189 288.356 242.19 300.725C239.193 313.09 236.813 323.611 233.307 334.88C227.232 354.406 220.025 378.071 216.919 388.235C229.155 368.76 259.458 322.708 268.426 310.437C273.165 303.951 283.157 288.838 292.594 273.84C302.04 258.826 310.887 243.991 313.367 238.039C318.317 226.16 321.317 204.792 311.361 178.408C301.304 151.756 306.337 130.624 311.358 116.563C313.856 109.569 317.229 99.5772 319.976 90.4619C321.349 85.904 322.565 81.57 323.437 77.9424C324.312 74.2984 324.829 71.4147 324.829 69.7314L325.793 69.5459C327.762 74.4686 333.553 85.9468 338.363 99.5645C343.183 113.209 347.09 129.175 345.325 143.294C341.826 171.287 341.32 182.359 330.285 206.937C325.889 216.728 322.977 224.008 321.124 229.127C319.266 234.26 318.483 237.191 318.324 238.302L318.313 238.378L318.28 238.447C310.782 254.109 292.866 289.678 281.24 306.516C270.941 321.432 247.5 360.363 233.519 383.937C239.507 376.122 247.642 366.126 253.494 360.859C263.523 351.834 288.06 334.81 296.541 328.823C300.756 325.848 307.856 319.622 314.468 312.698C321.093 305.761 327.153 298.198 329.363 292.549C330.484 289.684 331.698 286.106 333.115 282.104C334.53 278.108 336.144 273.706 338.057 269.223C341.879 260.262 346.909 250.944 353.976 243.878C368.024 229.829 390.122 212.253 428.271 207.735L429.702 207.565L428.683 208.585C420.208 217.06 413.749 224.513 407.282 238.442C400.763 252.484 394.223 262.555 382.647 272.117C376.855 276.903 368.313 281.798 359.754 286.421C351.171 291.057 342.576 295.416 336.594 299.155C328.421 304.263 322.343 310.958 319.432 314.831C326.164 311.353 338.767 305.18 347.165 302.259C352.908 300.261 362.775 296.64 371.953 292.894C376.542 291.02 380.954 289.118 384.59 287.374C388.241 285.623 391.062 284.053 392.509 282.848C393.989 281.614 396.22 279.415 399.15 276.531C402.072 273.656 405.671 270.12 409.864 266.239C418.251 258.478 429.026 249.332 441.56 241.311C466.628 225.267 502.743 211.218 545.887 216.234C563.093 218.235 573.779 219.988 580.147 221.368C583.329 222.058 585.45 222.657 586.772 223.154C587.43 223.401 587.916 223.631 588.24 223.849C588.401 223.956 588.548 224.077 588.654 224.216C588.76 224.354 588.864 224.563 588.822 224.813L588.766 225.156L588.425 225.223C582.489 226.377 566.858 231.384 552.124 242.136C542.904 248.864 533.74 256.267 524.171 262.709C514.587 269.161 504.535 274.694 493.461 277.714C471.396 283.732 442.319 284.233 425.859 285.23C417.593 285.731 411.382 285.98 405.046 287.16C398.723 288.338 392.266 290.447 383.548 294.682C366.021 303.195 339.996 312.703 334.5 314.701C333.852 314.937 332.188 315.747 329.707 317.061C327.24 318.366 323.995 320.152 320.202 322.321C312.616 326.661 302.843 332.531 292.728 339.149C282.611 345.769 272.158 353.133 263.208 360.462C254.988 367.192 248.067 373.869 243.829 379.891C262.005 370.475 272.325 365.554 279.176 362.28C286.241 358.904 289.586 357.293 294.052 354.315C298.556 351.312 311.826 342.549 327.602 334.474C343.356 326.409 361.696 318.984 376.32 318.731L376.926 318.721C405.941 318.219 448.342 317.486 499.123 354.327L498.729 355.221C481.757 351.726 463.886 349.753 445.033 358.188C426.037 366.686 401.434 376.739 376.299 375.23C363.756 374.478 351.054 370.962 337.109 368.285C323.136 365.603 307.821 363.737 289.897 366.227C255.422 371.015 223.652 398.895 207.556 429.888C213.241 423.202 221.191 413.36 230.22 404.009C240.726 393.128 252.796 382.799 264.668 378.758L264.892 378.682C288.259 370.727 302.83 365.762 325.872 367.733L326.942 367.825L326.183 368.585C318.677 376.09 312.922 381.471 307.986 386.156C303.05 390.842 298.938 394.831 294.702 399.564C290.399 404.374 282.718 409.906 274.387 414.604C266.053 419.304 257.003 423.206 249.934 424.721C235.988 427.709 203.152 438.663 184.257 469.989C169.46 494.521 132.242 573.293 114.156 612.466C124.051 601.538 142.058 581.925 149.484 574.869C154.492 570.112 163.006 562.724 171.059 555.546C179.133 548.347 186.723 541.377 189.941 537.416C193.187 533.421 206.575 516.28 224.402 497.326C242.221 478.382 264.517 457.582 285.593 446.291C327.627 423.773 361.196 413.241 386.79 411.233C407.193 409.633 432.628 407.899 442.796 407.232L444.662 407.11L443.106 408.147C438.127 411.467 425.558 420.811 415.189 431.578C402.19 445.078 373.658 472.613 356.609 484.146C339.57 495.672 303.514 515.201 260.943 525.218C239.726 530.21 218.633 537.575 200.727 545.873C182.809 554.176 168.124 563.395 159.688 572.08C146.919 585.225 115.179 622.668 98.2617 642.899C106.653 636.457 121.29 626.1 133.615 620.279C138.061 618.18 142.9 614.741 148.289 610.57C153.657 606.416 159.593 601.518 166.153 596.582C179.299 586.692 195.109 576.523 214.699 571.249C234.217 565.994 251.017 562.731 268.646 562.856C286.277 562.982 304.71 566.497 327.5 574.762L328.951 575.288L327.467 575.712C313.463 579.713 304.864 582.331 297.77 585.256C290.686 588.176 285.091 591.408 277.104 596.649C261.2 607.086 251.032 619.721 223.856 621.23C210.317 621.983 197.887 620.478 185.86 619.73C173.815 618.982 162.138 618.987 149.976 622.71C125.541 630.19 95.1396 647.144 77.2197 669.544L77.0195 669.794L76.708 669.717C71.8175 668.494 67.8816 665.816 66.5 664.607L66.1182 664.273L66.458 663.896C71.8505 657.923 80.0531 647.204 87.1045 634.489C94.1593 621.768 100.036 607.095 100.83 593.203C102.829 558.215 100.812 535.89 84.9424 516.549C80.948 511.681 76.5465 506.624 72.1084 501.537C67.6721 496.453 63.1991 491.338 59.0693 486.363C50.8266 476.435 43.8885 466.992 41.3545 459.39C38.8463 451.865 35.9657 439.838 33.0938 428.101C30.2154 416.337 27.3481 404.874 24.8623 398.411C22.3691 391.929 18.127 382.321 13.5107 373.463C11.2027 369.034 8.80474 364.798 6.48828 361.238C4.16637 357.67 1.94658 354.811 0 353.107L0.50293 352.263C7.30331 354.781 21.3392 362.054 35.8555 371.689C50.3691 381.323 65.4299 393.363 74.2334 405.437C91.7649 429.48 105.829 455.083 105.829 493.231C105.829 512.249 105.078 520.014 104.703 525.267C104.331 530.471 104.328 533.181 105.822 542.149C108.282 556.909 108.394 573.669 108.079 582.586C110.282 574.132 113.955 558.25 116.71 539.782C120.083 517.172 122.073 490.737 118.337 469.317C110.843 426.351 107.834 412.806 106.832 403.284C106.714 402.164 106.234 400.511 105.447 398.41C104.664 396.32 103.591 393.821 102.312 391.025C99.7532 385.433 96.3832 378.676 92.8818 371.642C85.8933 357.602 78.3638 342.423 75.8477 333.365C70.8247 315.283 68.8264 279.71 73.334 249.158C75.128 236.999 74.9176 227.841 73.9346 221.344C72.9483 214.825 71.1923 211.033 69.9463 209.554L70.6699 208.865C76.6056 214.383 85.9988 224.203 94.9121 235.751C103.821 247.292 112.278 260.597 116.305 273.078C126.307 304.086 130.336 327.668 129.327 339.773C129.074 342.816 128.127 347.382 126.862 352.722C125.596 358.069 124 364.234 122.439 370.478C119.309 383.001 116.329 395.807 116.329 403.231C116.329 418.179 120.319 440.628 122.322 452.649C123.323 458.656 124.45 466.29 125.201 473.24C125.677 477.642 126.005 481.798 126.05 485.097C128.977 473.581 131.148 460.144 129.831 444.774C128.326 427.214 129.829 413.12 136.876 398.02C140.387 390.496 143.899 384.6 147.084 379.105C150.271 373.607 153.127 368.513 155.361 362.556C159.869 350.534 161.829 345.123 161.829 338.231L162.797 338.056C167.281 350.014 176.333 366.125 175.329 395.249C174.323 424.419 156.228 448.533 152.233 454.025C150.191 456.834 144.622 463.38 139.181 471.448C133.749 479.502 128.557 488.923 127.324 497.304C126.079 505.772 125.829 514.988 125.391 524.317C124.953 533.631 124.327 543.045 122.316 551.843C119.118 565.835 114.315 583.043 111.231 592.471C127.331 563.413 176.235 467.739 181.375 456.523C184.109 450.559 187.474 440.84 190.094 430.299C192.714 419.755 194.577 408.43 194.329 399.245C194.08 390.018 193.083 379.177 190.717 368.717C188.35 358.252 184.62 348.202 178.928 340.529C167.409 325.004 153.344 299.415 151.331 278.279C149.33 257.268 150.327 238.684 149.829 224.249C149.579 216.991 149.33 208.768 148.334 201.486C147.836 197.847 147.154 194.458 146.198 191.552C145.241 188.641 144.02 186.248 142.463 184.571L143.168 183.864C169.173 207.869 189.268 226.95 200.31 265.093C205.831 284.167 206.33 301.979 205.328 318.324C204.827 326.495 203.951 334.305 203.139 341.716C202.326 349.132 201.578 356.146 201.329 362.75C200.423 386.752 201.162 399.748 198.307 415.445C202.54 405.545 209.958 388.663 216.798 370.369C224.862 348.801 232.081 325.376 232.329 309.224C232.828 276.768 227.333 236.325 218.854 210.387C210.35 184.376 199.811 142.768 207.339 106.131C214.843 69.613 218.347 58.5988 222.848 42.5957C227.352 26.5796 230.819 12.6759 229.333 0.291016L230.27 -0.00585938ZM289.328 576.231C275.828 575.231 233.328 583.731 216.828 588.231C203.628 591.831 178 602.827 161 610.994C199 596.494 254.828 583.231 289.328 576.231ZM407.828 419.231C392.628 421.631 330.828 455.898 301.828 472.731L334.828 440.731C318.161 454.231 284.228 481.831 281.828 484.231C279.428 486.631 262.828 495.898 254.828 500.231C261.328 492.231 274.628 475.031 275.828 470.231C272.328 475.731 238.828 512.731 226.828 519.731C217.228 525.331 195.328 540.231 195.328 540.231C232.5 519.731 248 513.994 285.328 503.731C285.328 503.731 258.828 507.231 244.328 511.731C255.328 501.231 387.828 430.731 407.828 419.231ZM32.8281 385.231C60.0372 414.667 87.7499 486.415 91.7812 502.514C95.8123 518.611 97.3242 518.611 97.8281 515.852C91.7815 452.197 51.9754 402.249 32.8281 385.231ZM164.828 373.231C164.028 387.631 145.161 443.565 135.828 469.731C141.661 456.231 153.928 427.531 156.328 420.731C159.328 412.231 163.828 396.231 164.828 373.231ZM300.328 378.731C292.328 379.731 275.828 384.994 254.828 396.994C238.028 406.594 232.495 416.327 226.828 422.494C244.828 406.494 275.828 388.494 300.328 378.731ZM84.3281 243.231C92.6339 284.103 109.544 370.923 110.74 391.231C114.229 372.073 101.77 272.927 84.3281 243.231ZM453.328 342.731C433.328 334.731 397 335.494 372.828 337.731C348.656 339.969 313.995 350.494 301.828 356.994C317.661 352.494 351.228 344.731 370.828 342.731C395.328 340.231 420.828 340.231 453.328 342.731ZM163.328 218.231C184.828 267.731 187.5 312.231 195.5 342.731C191.5 265.531 173.495 233.898 163.328 218.231ZM400.828 224.731C380.028 231.931 347.167 275.327 333 296.994C337.5 294.494 346.328 286.731 353.828 277.231C361.328 267.731 384.328 240.731 400.828 224.731ZM238.328 36.7314C241.328 50.2314 243.828 109.231 242.328 143.731C241.128 171.331 241.828 213.231 242.328 230.731C240.818 225.898 236.295 212.246 229.505 193.649C228.814 191.501 228.089 189.518 227.328 187.731C228.077 189.754 228.803 191.728 229.505 193.649C237.163 217.477 240.564 261.592 241.328 282.231C242.161 273.898 244.128 253.731 245.328 239.731C246.828 222.231 256.328 198.231 261.828 176.231C256.328 184.731 250.828 199.731 246.828 215.731C246.828 145.731 259.328 106.231 256.328 111.731C253.928 116.131 248.995 147.231 246.828 162.231C246.328 129.398 243.928 58.3314 238.328 36.7314ZM553.828 227.231C521.046 225.462 452.784 256.856 418.5 277.231C432.833 271.898 453.479 266.081 467.328 259.231C488.769 248.628 512.58 239.873 553.828 227.231ZM328.5 96.4941C331 133.994 327 176.494 325.5 198.494C337 162.231 334.5 133.494 328.5 96.4941Z" fill="#01C09A"/>
</g>
</svg>
