<svg width="589" height="670" viewBox="0 0 589 670" fill="none" xmlns="http://www.w3.org/2000/svg">
<path fill-rule="evenodd" clip-rule="evenodd" d="M358.562 0C351.823 12.4811 340.931 31.012 331.545 52.5371C322.158 74.0641 314.256 98.6312 313.503 123.222C312.001 172.297 322.016 217.857 334.026 255.39C340.021 274.124 343.643 288.362 346.642 300.73C349.639 313.096 352.019 323.616 355.525 334.886C361.6 354.412 368.807 378.076 371.913 388.241C359.677 368.766 329.374 322.714 320.406 310.442C315.667 303.957 305.675 288.844 296.238 273.846C286.792 258.832 277.945 243.997 275.465 238.045C270.515 226.166 267.515 204.798 277.471 178.414C287.528 151.761 282.495 130.63 277.474 116.569C274.976 109.575 271.604 99.583 268.856 90.4678C267.483 85.9099 266.267 81.5759 265.396 77.9482C264.52 74.3043 264.003 71.4205 264.003 69.7373L263.039 69.5518C261.07 74.4745 255.279 85.9527 250.469 99.5703C245.649 113.215 241.742 129.181 243.507 143.3C247.006 171.293 247.512 182.365 258.547 206.942C262.943 216.734 265.855 224.014 267.708 229.133C269.566 234.266 270.349 237.197 270.508 238.308L270.519 238.384L270.552 238.453C278.05 254.115 295.966 289.684 307.592 306.521C317.891 321.438 341.332 360.369 355.313 383.942C349.325 376.128 341.19 366.132 335.338 360.865C325.309 351.84 300.772 334.816 292.291 328.829C288.076 325.854 280.976 319.627 274.364 312.704C267.739 305.767 261.679 298.204 259.469 292.555C258.348 289.69 257.134 286.112 255.717 282.109C254.302 278.114 252.688 273.712 250.775 269.229C246.953 260.268 241.923 250.95 234.856 243.884C220.808 229.835 198.71 212.259 160.562 207.741L159.13 207.571L160.149 208.591C168.624 217.066 175.083 224.519 181.55 238.448C188.069 252.49 194.609 262.56 206.185 272.123C211.977 276.908 220.519 281.804 229.078 286.427C237.661 291.063 246.256 295.422 252.238 299.161C260.411 304.269 266.49 310.964 269.4 314.837C262.669 311.359 250.065 305.186 241.667 302.265C235.924 300.267 226.057 296.645 216.879 292.899C212.29 291.026 207.878 289.124 204.242 287.38C200.591 285.629 197.77 284.059 196.323 282.854C194.843 281.62 192.612 279.421 189.682 276.537C186.76 273.662 183.161 270.126 178.968 266.245C170.581 258.484 159.807 249.338 147.272 241.316C122.204 225.272 86.0893 211.224 42.9453 216.24C25.7385 218.241 15.0534 219.994 8.68457 221.374C5.50277 222.063 3.38225 222.663 2.05957 223.16C1.40211 223.407 0.916322 223.637 0.591797 223.854C0.430906 223.962 0.284152 224.083 0.177734 224.222C0.0718765 224.36 -0.0319762 224.569 0.00976562 224.819L0.0664062 225.162L0.407227 225.229C6.34336 226.383 21.9736 231.389 36.708 242.142C45.9276 248.869 55.0917 256.273 64.6611 262.715C74.2454 269.167 84.2971 274.699 95.3711 277.72C117.436 283.737 146.513 284.239 162.973 285.236C171.239 285.737 177.45 285.986 183.786 287.166C190.109 288.344 196.566 290.453 205.284 294.688C222.811 303.201 248.836 312.708 254.332 314.707C254.98 314.943 256.644 315.753 259.125 317.066C261.592 318.372 264.837 320.158 268.63 322.327C276.216 326.667 285.989 332.537 296.104 339.155C306.221 345.775 316.674 353.139 325.624 360.468C333.844 367.198 340.765 373.875 345.003 379.896C326.827 370.481 316.507 365.56 309.656 362.286C302.591 358.91 299.246 357.299 294.78 354.321C290.276 351.318 277.006 342.555 261.23 334.479C245.476 326.415 227.136 318.99 212.512 318.737L211.906 318.727C182.891 318.224 140.49 317.492 89.709 354.333L90.1035 355.227C107.075 351.732 124.946 349.759 143.799 358.193C162.795 366.692 187.398 376.744 212.533 375.236C225.076 374.484 237.778 370.968 251.723 368.291C265.696 365.609 281.011 363.743 298.935 366.232C333.41 371.021 365.18 398.901 381.276 429.894C375.591 423.208 367.641 413.366 358.612 404.015C348.106 393.133 336.036 382.805 324.164 378.764L323.94 378.688C300.573 370.733 286.002 365.768 262.96 367.739L261.89 367.831L262.649 368.591C270.155 376.096 275.91 381.477 280.846 386.162C285.782 390.848 289.894 394.837 294.13 399.57C298.433 404.38 306.114 409.912 314.445 414.61C322.78 419.31 331.829 423.212 338.898 424.727C352.844 427.715 385.68 438.669 404.575 469.995C419.372 494.527 456.59 573.299 474.676 612.472C464.781 601.544 446.774 581.931 439.348 574.875C434.34 570.118 425.826 562.73 417.773 555.552C409.699 548.353 402.109 541.383 398.891 537.422C395.645 533.427 382.257 516.285 364.43 497.332C346.611 478.388 324.315 457.587 303.239 446.297C261.205 423.779 227.636 413.247 202.042 411.239C181.639 409.639 156.204 407.905 146.036 407.238L144.17 407.116L145.726 408.153C150.705 411.473 163.274 420.817 173.643 431.584C186.642 445.083 215.174 472.619 232.223 484.151C249.262 495.678 285.318 515.207 327.889 525.224C349.106 530.216 370.199 537.581 388.105 545.879C406.023 554.182 420.708 563.401 429.145 572.086C441.914 585.231 473.653 622.674 490.57 642.905C482.179 636.463 467.542 626.106 455.217 620.285C450.771 618.186 445.932 614.747 440.543 610.576C435.175 606.422 429.239 601.524 422.679 596.588C409.533 586.698 393.723 576.529 374.133 571.255C354.615 566 337.815 562.737 320.187 562.862C302.555 562.988 284.122 566.503 261.332 574.768L259.881 575.294L261.365 575.718C275.369 579.719 283.968 582.337 291.062 585.262C298.146 588.182 303.741 591.414 311.729 596.655C327.632 607.092 337.8 619.727 364.976 621.236C378.515 621.988 390.945 620.484 402.972 619.736C415.017 618.987 426.694 618.993 438.856 622.716C463.291 630.196 493.692 647.15 511.612 669.55L511.812 669.8L512.124 669.723C517.015 668.5 520.95 665.822 522.332 664.613L522.714 664.279L522.374 663.902C516.982 657.929 508.779 647.21 501.728 634.495C494.673 621.774 488.796 607.101 488.002 593.209C486.003 558.22 488.02 535.896 503.89 516.555C507.884 511.686 512.286 506.63 516.724 501.543C521.16 496.458 525.633 491.344 529.763 486.369C538.005 476.44 544.944 466.998 547.478 459.396C549.986 451.871 552.866 439.844 555.738 428.106C558.617 416.343 561.484 404.88 563.97 398.417C566.463 391.935 570.705 382.327 575.321 373.469C577.629 369.04 580.027 364.804 582.344 361.244C584.666 357.676 586.885 354.817 588.832 353.113L588.329 352.269C581.529 354.787 567.493 362.06 552.977 371.695C538.463 381.329 523.402 393.369 514.599 405.442C497.067 429.486 483.003 455.089 483.003 493.237C483.003 512.255 483.754 520.019 484.129 525.272C484.501 530.477 484.504 533.187 483.01 542.155C480.55 556.915 480.438 573.675 480.753 582.592C478.551 574.138 474.877 558.256 472.122 539.788C468.749 517.178 466.759 490.742 470.495 469.323C477.989 426.357 480.998 412.812 482 403.29C482.118 402.17 482.598 400.517 483.385 398.416C484.168 396.325 485.241 393.827 486.521 391.031C489.079 385.439 492.449 378.681 495.95 371.647C502.939 357.608 510.468 342.429 512.984 333.371C518.007 315.289 520.006 279.716 515.498 249.164C513.704 237.005 513.914 227.847 514.897 221.35C515.884 214.831 517.64 211.039 518.886 209.56L518.162 208.871C512.226 214.389 502.833 224.209 493.92 235.757C485.011 247.298 476.554 260.602 472.527 273.084C462.525 304.092 458.496 327.673 459.505 339.779C459.758 342.822 460.705 347.387 461.97 352.728C463.236 358.075 464.832 364.24 466.393 370.483C469.523 383.007 472.503 395.813 472.503 403.237C472.503 418.185 468.513 440.634 466.51 452.655C465.509 458.661 464.382 466.296 463.631 473.246C463.155 477.648 462.827 481.804 462.782 485.103C459.855 473.587 457.684 460.15 459.001 444.78C460.506 427.219 459.003 413.126 451.956 398.025C448.445 390.502 444.933 384.606 441.748 379.111C438.561 373.612 435.705 368.519 433.471 362.562C428.963 350.54 427.003 345.129 427.003 338.237L426.035 338.062C421.551 350.02 412.499 366.131 413.503 395.255C414.509 424.425 432.604 448.539 436.599 454.031C438.641 456.84 444.21 463.386 449.651 471.454C455.083 479.508 460.275 488.929 461.508 497.31C462.753 505.778 463.003 514.994 463.441 524.323C463.879 533.636 464.505 543.051 466.516 551.849C469.714 565.841 474.517 583.049 477.601 592.477C461.501 563.418 412.597 467.745 407.457 456.529C404.723 450.565 401.358 440.845 398.738 430.305C396.118 419.761 394.255 408.435 394.503 399.251C394.752 390.024 395.749 379.182 398.115 368.723C400.482 358.258 404.212 348.207 409.904 340.535C421.423 325.01 435.488 299.421 437.501 278.285C439.502 257.274 438.505 238.69 439.003 224.255C439.253 216.997 439.502 208.774 440.498 201.492C440.996 197.853 441.678 194.463 442.634 191.558C443.591 188.647 444.813 186.254 446.369 184.577L445.664 183.87C419.659 207.875 399.564 226.956 388.522 265.099C383.001 284.173 382.502 301.985 383.504 318.33C384.005 326.501 384.881 334.31 385.693 341.722C386.506 349.138 387.254 356.152 387.503 362.756C388.409 386.757 387.67 399.754 390.525 415.451C386.292 405.551 378.874 388.669 372.034 370.375C363.97 348.807 356.751 325.382 356.503 309.229C356.004 276.774 361.499 236.331 369.979 210.393C378.482 184.382 389.021 142.774 381.493 106.137C373.989 69.6188 370.485 58.6046 365.984 42.6016C361.48 26.5855 358.013 12.6817 359.499 0.296875L358.562 0ZM299.504 576.237C313.004 575.237 355.504 583.737 372.004 588.237C385.204 591.837 410.832 602.833 427.832 611C389.832 596.5 334.004 583.237 299.504 576.237ZM181.004 419.237C196.204 421.637 258.004 455.904 287.004 472.737L254.004 440.737C270.671 454.237 304.604 481.837 307.004 484.237C309.404 486.637 326.004 495.904 334.004 500.237C327.504 492.237 314.204 475.037 313.004 470.237C316.504 475.737 350.004 512.737 362.004 519.737C371.604 525.337 393.504 540.237 393.504 540.237C356.332 519.737 340.832 514 303.504 503.737C303.504 503.737 330.004 507.237 344.504 511.737C333.504 501.237 201.004 430.737 181.004 419.237ZM556.004 385.237C528.795 414.673 501.082 486.421 497.051 502.52C493.02 518.617 491.508 518.617 491.004 515.857C497.051 452.203 536.857 402.255 556.004 385.237ZM424.004 373.237C424.804 387.637 443.671 443.571 453.004 469.737C447.171 456.237 434.904 427.537 432.504 420.737C429.504 412.237 425.004 396.237 424.004 373.237ZM288.504 378.737C296.504 379.737 313.004 385 334.004 397C350.804 406.6 356.337 416.333 362.004 422.5C344.004 406.5 313.004 388.5 288.504 378.737ZM504.504 243.237C496.198 284.109 479.288 370.929 478.092 391.237C474.603 372.079 487.062 272.933 504.504 243.237ZM135.504 342.737C155.504 334.737 191.832 335.5 216.004 337.737C240.176 339.975 274.837 350.5 287.004 357C271.171 352.5 237.604 344.737 218.004 342.737C193.504 340.237 168.004 340.237 135.504 342.737ZM425.504 218.237C404.004 267.737 401.332 312.237 393.332 342.737C397.332 265.537 415.337 233.904 425.504 218.237ZM188.004 224.737C208.804 231.937 241.665 275.333 255.832 297C251.332 294.5 242.504 286.737 235.004 277.237C227.504 267.737 204.504 240.737 188.004 224.737ZM350.504 36.7373C347.504 50.2373 345.004 109.237 346.504 143.737C347.704 171.337 347.004 213.237 346.504 230.737C348.014 225.903 352.537 212.252 359.327 193.655C360.018 191.507 360.743 189.524 361.504 187.737C360.755 189.76 360.029 191.734 359.327 193.655C351.669 217.483 348.268 261.598 347.504 282.237C346.671 273.904 344.704 253.737 343.504 239.737C342.004 222.237 332.504 198.237 327.004 176.237C332.504 184.737 338.004 199.737 342.004 215.737C342.004 145.737 329.504 106.237 332.504 111.737C334.904 116.137 339.837 147.237 342.004 162.237C342.504 129.404 344.904 58.3373 350.504 36.7373ZM35.0039 227.237C67.7862 225.468 136.048 256.861 170.332 277.237C155.999 271.904 135.353 266.086 121.504 259.237C100.063 248.634 76.2523 239.879 35.0039 227.237ZM260.332 96.5C257.832 134 261.832 176.5 263.332 198.5C251.832 162.237 254.332 133.5 260.332 96.5Z" fill="#5401C0"/>
</svg>
