<svg width="1512" height="871" viewBox="0 0 1512 871" fill="none" xmlns="http://www.w3.org/2000/svg">
<g clip-path="url(#clip0_574_357)">
<path fill-rule="evenodd" clip-rule="evenodd" d="M1206.12 492.9C1220.31 492.95 1241.79 492.246 1265.18 494.298C1288.58 496.349 1313.93 501.158 1335.89 512.257C1379.71 534.407 1414.93 564.992 1442.15 593.489C1455.73 607.714 1466.51 617.704 1475.94 626.252C1485.36 634.798 1493.46 641.92 1501.68 650.389C1515.93 665.062 1533.26 682.709 1540.7 690.298C1529.45 670.238 1503.5 621.601 1497.01 607.856C1493.58 600.593 1485.09 584.589 1476.43 569.129C1467.76 553.653 1458.96 538.789 1454.92 533.764C1446.86 523.736 1429.53 510.882 1401.59 507.008C1373.38 503.094 1357.23 488.568 1347.28 477.433C1342.33 471.895 1335.17 464.155 1328.48 457.383C1325.13 453.997 1321.91 450.856 1319.14 448.356C1316.36 445.844 1314.07 444.011 1312.59 443.206L1312.89 442.271C1318.16 442.896 1331.01 443.299 1345.26 445.587C1359.55 447.88 1375.44 452.084 1387 460.386C1409.91 476.847 1419.39 482.586 1435.7 504.032C1442.2 512.575 1447.2 518.614 1450.81 522.69C1454.43 526.776 1456.63 528.866 1457.52 529.536L1457.59 529.582L1457.63 529.644C1467.8 543.719 1490.47 576.464 1499.7 594.727C1507.87 610.906 1530.85 650.111 1544.87 673.663C1540.87 664.667 1535.98 652.742 1534.15 645.084C1531.02 631.96 1527.81 602.27 1526.61 591.958C1526.01 586.833 1523.94 577.62 1521.02 568.502C1518.09 559.367 1514.35 550.427 1510.44 545.785C1508.47 543.43 1505.9 540.653 1503.07 537.494C1500.23 534.341 1497.14 530.818 1494.12 526.994C1488.08 519.352 1482.3 510.478 1479.47 500.893C1473.85 481.836 1468.98 454.023 1483.26 418.36L1483.8 417.022L1484.2 418.404C1487.59 429.9 1491.05 439.137 1500.19 451.478C1509.41 463.919 1515.12 474.478 1517.98 489.218C1519.42 496.594 1519.63 506.436 1519.6 516.164C1519.56 525.919 1519.28 535.552 1519.7 542.594C1520.28 552.215 1523.26 560.755 1525.26 565.163C1525.43 557.587 1526.04 543.566 1527.49 534.794C1528.48 528.795 1530.02 518.397 1531.12 508.546C1531.67 503.62 1532.1 498.835 1532.31 494.808C1532.52 490.764 1532.49 487.535 1532.12 485.689C1531.75 483.799 1530.88 480.788 1529.75 476.835C1528.63 472.894 1527.24 468.043 1525.84 462.504C1523.03 451.427 1520.15 437.59 1519.1 422.746C1517 393.057 1521.93 354.622 1546.97 319.131C1556.96 304.976 1563.61 296.431 1567.87 291.497C1569.99 289.033 1571.54 287.457 1572.6 286.533C1573.14 286.074 1573.57 285.757 1573.92 285.576C1574.09 285.486 1574.26 285.415 1574.44 285.388C1574.61 285.361 1574.84 285.37 1575.04 285.526L1575.32 285.74L1575.21 286.071C1573.39 291.836 1570.31 307.958 1572.7 326.04C1574.2 337.355 1576.32 348.943 1577.4 360.428C1578.49 371.931 1578.54 383.405 1575.89 394.575C1570.63 416.83 1557.16 442.607 1550.17 457.539C1546.65 465.039 1543.9 470.612 1541.91 476.741C1539.92 482.857 1538.68 489.536 1538.23 499.218C1537.33 518.682 1533.23 546.085 1532.36 551.867C1532.25 552.55 1532.17 554.398 1532.14 557.205C1532.1 559.996 1532.12 563.7 1532.21 568.069C1532.39 576.806 1532.88 588.196 1533.85 600.245C1534.83 612.296 1536.29 624.998 1538.45 636.363C1540.43 646.801 1542.98 656.072 1546.25 662.674C1546.67 642.208 1547.28 630.791 1547.68 623.209C1548.1 615.389 1548.28 611.682 1547.8 606.335C1547.32 600.943 1545.97 585.099 1546.42 567.382C1546.87 549.689 1549.12 530.032 1555.9 517.067L1556.18 516.53C1569.61 490.808 1589.25 453.22 1645.89 426.242L1646.48 427.015C1635.3 440.25 1625.02 455.001 1623.41 475.591C1621.79 496.338 1618.85 522.753 1605.5 544.106C1598.85 554.762 1589.68 564.236 1580.66 575.202C1571.62 586.191 1562.66 598.749 1556.28 615.68C1543.99 648.247 1553.29 689.483 1572.81 718.441C1569.65 710.25 1564.81 698.562 1560.92 686.16C1556.39 671.729 1553.09 656.189 1555.22 643.831L1555.26 643.598C1559.45 619.272 1562.05 604.101 1574.8 584.807L1575.4 583.911L1575.7 584.942C1578.7 595.123 1580.68 602.75 1582.43 609.325C1584.19 615.901 1585.72 621.421 1587.85 627.404C1590.02 633.484 1591.2 642.875 1591.35 652.439C1591.49 662.006 1590.59 671.819 1588.54 678.752C1584.49 692.428 1578.41 726.505 1596.88 758.08C1611.35 782.808 1662.73 853.166 1688.48 887.783C1683.62 873.867 1675.01 848.673 1672.36 838.777C1670.58 832.104 1668.16 821.093 1665.71 810.588C1663.25 800.054 1660.76 790.056 1658.82 785.334C1656.86 780.573 1648.21 760.618 1640.09 735.897C1631.97 711.188 1624.37 681.66 1624.53 657.751C1624.86 610.067 1631.66 575.548 1642.14 552.111C1650.49 533.427 1661.13 510.26 1665.41 501.011L1666.2 499.314L1666.36 501.176C1666.9 507.137 1669.09 522.644 1673.59 536.899C1679.23 554.772 1689.77 592.998 1691.74 613.486C1693.71 633.963 1693.62 674.968 1682.06 717.145C1676.3 738.166 1672.68 760.213 1671.4 779.907C1670.13 799.613 1671.2 816.919 1674.79 828.482C1680.23 845.982 1697.93 891.764 1707.61 916.297C1705.97 905.847 1703.87 888.038 1704.65 874.43C1704.93 869.521 1704.23 863.628 1703.14 856.9C1702.06 850.199 1700.6 842.643 1699.4 834.521C1697 818.247 1695.63 799.499 1700.37 779.772C1705.09 760.118 1710.26 743.803 1718.8 728.381C1727.34 712.956 1739.24 698.449 1757.4 682.387L1758.56 681.364L1758.22 682.87C1755.04 697.082 1753.22 705.886 1752.4 713.516C1751.58 721.133 1751.74 727.593 1752.52 737.114C1754.08 756.072 1760.32 771.044 1748.64 795.633C1742.83 807.883 1735.56 818.08 1729.16 828.285C1722.74 838.505 1717.16 848.763 1714.61 861.225C1709.49 886.261 1709.85 921.069 1720.95 947.519L1721.07 947.814L1720.85 948.051C1717.44 951.761 1713.21 953.937 1711.49 954.572L1711.01 954.748L1710.84 954.269C1708.17 946.677 1702.68 934.347 1694.89 922.073C1687.09 909.794 1677.01 897.615 1665.19 890.274C1635.42 871.785 1614.85 862.881 1590.28 867.568C1584.09 868.748 1577.54 870.195 1570.95 871.66C1564.37 873.124 1557.74 874.607 1551.39 875.854C1538.73 878.345 1527.12 879.922 1519.23 878.512C1511.42 877.116 1499.48 873.894 1487.8 870.803C1476.09 867.705 1464.66 864.741 1457.79 863.834C1450.91 862.923 1440.44 862.054 1430.45 861.872C1425.46 861.781 1420.59 861.861 1416.36 862.193C1412.11 862.525 1408.54 863.107 1406.11 864.002L1405.61 863.157C1411.08 858.389 1424.18 849.54 1439.58 841.4C1454.98 833.261 1472.76 825.792 1487.57 823.834C1517.07 819.936 1546.28 819.829 1579.79 838.073C1596.49 847.168 1602.95 851.541 1607.38 854.383C1611.78 857.198 1614.15 858.498 1622.74 861.474C1636.88 866.372 1651.66 874.289 1659.34 878.83C1652.97 872.853 1640.77 862.032 1625.87 850.78C1607.63 837.005 1585.36 822.614 1564.77 815.652C1523.45 801.685 1510.11 797.849 1501.27 794.176C1500.23 793.744 1498.55 793.375 1496.33 793.061C1494.12 792.749 1491.41 792.497 1488.34 792.283C1482.21 791.856 1474.66 791.584 1466.81 791.295C1451.14 790.718 1434.21 790.071 1425.05 787.949C1406.77 783.713 1374.57 768.455 1349.89 749.886C1340.07 742.495 1331.93 738.3 1325.75 736.056C1319.56 733.805 1315.39 733.534 1313.49 733.92L1313.23 732.955C1320.92 730.381 1334.04 726.828 1348.44 724.523C1362.84 722.219 1378.56 721.154 1391.45 723.587C1423.47 729.632 1446.1 737.371 1456.25 744.047C1458.8 745.724 1462.36 748.739 1466.45 752.404C1470.54 756.074 1475.19 760.423 1479.92 764.78C1489.43 773.518 1499.25 782.26 1505.77 785.81C1518.9 792.959 1540.52 800.191 1552.03 804.181C1557.79 806.174 1565.03 808.836 1571.49 811.5C1575.59 813.187 1579.39 814.887 1582.31 816.425C1573.6 808.346 1562.84 800.013 1548.71 793.82C1532.57 786.744 1520.91 778.683 1511.02 765.273C1506.09 758.591 1502.59 752.687 1499.29 747.262C1495.98 741.834 1492.88 736.889 1488.71 732.078C1480.31 722.37 1476.5 718.061 1470.44 714.765L1470.75 713.831C1483.4 715.612 1501.88 715.367 1526.97 730.177C1552.11 745.011 1564.63 772.435 1567.55 778.57C1569.04 781.707 1572.12 789.728 1576.61 798.365C1581.08 806.987 1586.87 816.053 1593.64 821.143C1600.48 826.287 1608.46 830.914 1616.44 835.76C1624.41 840.599 1632.38 845.651 1639.15 851.624C1649.9 861.125 1662.72 873.573 1669.53 880.789C1651.71 852.753 1591.07 764.05 1583.68 754.171C1579.75 748.918 1572.82 741.314 1564.82 733.973C1556.81 726.629 1547.75 719.576 1539.57 715.402C1531.35 711.208 1521.35 706.899 1511.03 703.974C1500.71 701.048 1490.1 699.518 1480.64 700.848C1461.5 703.539 1432.3 703.653 1412.77 695.313C1393.36 687.022 1377.52 677.259 1364.6 670.793C1358.11 667.542 1350.77 663.828 1343.9 661.22C1340.46 659.916 1337.16 658.895 1334.15 658.344C1331.14 657.793 1328.45 657.721 1326.23 658.286L1325.95 657.329C1359.47 645.971 1385.83 637.448 1424.61 645.993C1444.01 650.266 1459.89 658.346 1473.76 667.043C1480.7 671.39 1487.14 675.895 1493.26 680.152C1499.38 684.413 1505.19 688.424 1510.87 691.801C1531.51 704.075 1543.28 709.641 1555.7 719.656C1549.03 711.204 1537.75 696.616 1524.96 681.86C1509.87 664.463 1492.75 646.92 1478.68 638.977C1450.42 623.017 1412.27 608.502 1385.44 603.544C1358.53 598.573 1316.95 587.93 1288.37 563.797C1259.89 539.743 1251.89 531.398 1239.99 519.792C1228.08 508.176 1217.52 498.482 1205.94 493.864L1206.12 492.9ZM1740.44 716.613C1733.1 727.991 1720.24 769.381 1716.3 786.024C1713.15 799.338 1710.55 827.104 1709.59 845.94C1715.03 805.633 1730.08 750.26 1740.44 716.613ZM1659.23 537.459C1654.06 551.956 1654.6 622.618 1655.52 656.137L1643.2 611.852C1647.08 632.946 1655.09 675.946 1656.05 679.202C1657.01 682.457 1657.21 701.468 1657.19 710.566C1653.27 701.031 1644.53 681.125 1640.89 677.776C1644.04 683.48 1660.52 730.596 1660.93 744.482C1661.25 755.591 1663.87 781.95 1663.87 781.95C1663.64 739.501 1666.01 723.144 1674.85 685.454C1674.85 685.454 1665.25 710.401 1662.27 725.287C1658.31 710.605 1659.76 560.524 1659.23 537.459ZM1450.03 850.535C1488.89 840.716 1565.15 850.691 1581.22 854.85C1597.29 859.008 1598.01 857.68 1595.83 855.918C1537.03 830.786 1474.13 841.858 1450.03 850.535ZM1502.62 728.87C1514.88 736.459 1554.98 779.778 1573.5 800.489C1564.43 788.909 1545.09 764.411 1540.27 759.051C1534.24 752.351 1522.34 740.748 1502.62 728.87ZM1572.25 612.5C1569.3 620.004 1566.03 637.012 1566.53 661.193C1566.92 680.539 1572.82 690.053 1575.53 697.979C1570.09 674.519 1569.1 638.686 1572.25 612.5ZM1349.95 737.396C1389.81 749.648 1474.15 776.318 1492.56 784.98C1477.4 772.754 1384.37 736.279 1349.95 737.396ZM1613.8 460.915C1597.21 474.653 1580.51 506.922 1570.91 529.221C1561.32 551.519 1553.98 586.993 1553.87 600.787C1557.49 584.73 1566.73 551.538 1574.35 533.368C1583.87 510.656 1596.06 488.261 1613.8 460.915ZM1365.77 656.06C1419.53 660.851 1459.89 679.786 1490.5 687.346C1420.79 653.939 1384.39 654.623 1365.77 656.06ZM1485.06 450.589C1481.44 472.299 1503.84 521.913 1516.09 544.717C1516.04 539.569 1513.45 528.103 1508.69 516.973C1503.94 505.843 1491.22 472.732 1485.06 450.589ZM1242.24 503.392C1255.53 507.213 1308.54 533.234 1338.13 551.051C1361.79 565.304 1398.92 584.728 1414.53 592.658C1409.56 591.673 1395.41 589.116 1375.83 586.185C1373.62 585.764 1371.53 585.453 1369.59 585.267C1371.73 585.576 1373.81 585.882 1375.83 586.185C1400.42 590.855 1440.79 608.966 1459.28 618.165C1452.36 613.448 1435.59 602.076 1423.87 594.327C1409.22 584.641 1392.68 564.82 1375.99 549.468C1380.83 558.363 1391.37 570.367 1403.51 581.532C1342.03 548.055 1313.32 518.187 1316.72 523.452C1319.43 527.664 1344.39 546.87 1356.52 555.946C1327.45 540.683 1263.89 508.804 1242.24 503.392ZM1560.43 317.416C1543.2 345.36 1538.12 420.323 1539.62 460.177C1541.79 445.038 1546.56 424.125 1547.17 408.686C1548.11 384.785 1551.81 359.687 1560.43 317.416ZM1337.85 452.781C1371.98 468.52 1407.39 492.358 1426 504.197C1399.65 476.755 1373.22 465.207 1337.85 452.781Z" fill="#121212"/>
<path fill-rule="evenodd" clip-rule="evenodd" d="M868.825 709.542C882.416 713.602 903.221 719.003 925.079 727.587C946.938 736.171 969.898 747.955 987.818 764.811C1023.58 798.45 1048.72 837.748 1066.76 872.78C1075.77 890.266 1083.28 902.895 1089.9 913.761C1096.53 924.624 1102.28 933.747 1107.77 944.194C1117.28 962.297 1128.92 984.127 1133.91 993.51C1128.79 971.087 1117.66 917.096 1115.32 902.077C1114.09 894.141 1110.47 876.388 1106.53 859.11C1102.6 841.814 1098.36 825.069 1095.91 819.106C1091.01 807.206 1078.02 789.975 1052.32 778.359C1026.37 766.625 1014.98 748.124 1008.59 734.631C1005.41 727.919 1000.73 718.469 996.227 710.081C993.976 705.886 991.771 701.962 989.822 698.781C987.864 695.585 986.191 693.18 985.001 691.99L985.551 691.177C990.424 693.266 1002.64 697.287 1015.67 703.515C1028.72 709.755 1042.77 718.282 1051.51 729.514C1068.83 751.782 1076.3 759.969 1085.88 785.151C1089.69 795.183 1092.78 802.389 1095.09 807.32C1097.41 812.263 1098.93 814.889 1099.6 815.787L1099.64 815.848L1099.67 815.921C1105.44 832.297 1117.93 870.117 1121.61 890.244C1124.87 908.074 1135.83 952.177 1142.61 978.733C1141.32 968.973 1140 956.153 1140.42 948.29C1141.13 934.817 1146.44 905.429 1148.2 895.198C1149.08 890.114 1149.7 880.691 1149.48 871.12C1149.26 861.53 1148.19 851.897 1145.76 846.34C1144.53 843.521 1142.86 840.133 1141.03 836.301C1139.21 832.475 1137.23 828.221 1135.42 823.698C1131.78 814.66 1128.75 804.514 1128.75 794.521C1128.75 774.653 1131.95 746.599 1155.73 716.429L1156.62 715.297V716.739C1156.62 728.724 1157.32 738.561 1162.6 752.984C1167.92 767.522 1170.42 779.267 1168.99 794.215C1168.28 801.695 1165.7 811.196 1162.92 820.517C1160.13 829.864 1157.13 839.025 1155.55 845.898C1153.38 855.289 1153.82 864.322 1154.5 869.118C1156.8 861.899 1161.34 848.621 1165.22 840.618C1167.86 835.144 1172.28 825.606 1176.12 816.468C1178.04 811.898 1179.82 807.433 1181.15 803.629C1182.5 799.809 1183.38 796.704 1183.55 794.829C1183.73 792.911 1183.75 789.778 1183.78 785.667C1183.82 781.567 1183.86 776.522 1184.08 770.813C1184.52 759.395 1185.68 745.309 1188.87 730.774C1195.25 701.703 1210.85 666.232 1244.91 639.272C1258.49 628.52 1267.28 622.204 1272.76 618.676C1275.5 616.914 1277.42 615.838 1278.71 615.254C1279.35 614.964 1279.85 614.783 1280.24 614.708C1280.43 614.67 1280.62 614.652 1280.79 614.674C1280.96 614.697 1281.18 614.771 1281.33 614.978L1281.53 615.261L1281.34 615.549C1277.96 620.562 1270.45 635.155 1267.63 653.177C1265.87 664.453 1264.62 676.168 1262.41 687.49C1260.2 698.829 1257 709.849 1251.31 719.815C1239.96 739.672 1219.75 760.588 1208.82 772.932C1203.33 779.131 1199.11 783.698 1195.47 789.014C1191.83 794.317 1188.76 800.374 1185.58 809.533C1179.21 827.947 1167.53 853.072 1165.06 858.371C1164.77 858.997 1164.16 860.746 1163.34 863.429C1162.52 866.096 1161.48 869.654 1160.34 873.87C1158.04 882.303 1155.28 893.364 1152.81 905.197C1150.34 917.031 1148.15 929.63 1147.01 941.14C1145.95 951.712 1145.78 961.327 1147.04 968.581C1153.24 949.071 1157.05 938.294 1159.58 931.135C1162.19 923.751 1163.42 920.248 1164.47 914.984C1165.53 909.676 1168.72 894.096 1174.16 877.231C1179.6 860.388 1187.32 842.169 1197.48 831.65L1197.9 831.214C1218.06 810.342 1247.53 779.842 1309.48 769.985L1309.84 770.896C1295.37 780.426 1281.33 791.668 1273.97 810.962C1266.54 830.404 1256.26 854.909 1237.42 871.616C1228.01 879.953 1216.55 886.448 1204.79 894.416C1193.02 902.4 1180.87 911.91 1169.95 926.344C1148.96 954.108 1146.21 996.287 1156.74 1029.58C1156.04 1020.84 1154.7 1008.26 1154.47 995.259C1154.21 980.136 1155.44 964.297 1160.97 953.045L1161.08 952.833C1171.98 930.685 1178.77 916.871 1196.46 901.972L1197.28 901.28V902.354C1197.28 912.969 1197.01 920.843 1196.84 927.646C1196.66 934.45 1196.57 940.178 1196.92 946.52C1197.28 952.964 1195.76 962.307 1193.19 971.52C1190.62 980.737 1186.98 989.895 1183.06 995.964C1175.31 1007.94 1159.84 1038.9 1168.63 1074.41C1175.51 1102.22 1204.89 1184.24 1219.8 1224.73C1219.07 1210.01 1217.94 1183.4 1218.2 1173.16C1218.38 1166.26 1219.17 1155.01 1219.79 1144.24C1220.41 1133.45 1220.85 1123.15 1220.32 1118.07C1219.79 1112.95 1217.14 1091.37 1216.34 1065.36C1215.55 1039.36 1216.61 1008.89 1223.52 986.002C1237.32 940.357 1253.61 909.173 1270.29 889.655C1283.59 874.097 1300.35 854.885 1307.06 847.224L1308.3 845.818L1307.93 847.652C1306.76 853.52 1304.48 869.015 1304.76 883.96C1305.11 902.697 1304.41 942.343 1300.51 962.553C1296.61 982.752 1284.92 1022.06 1261.9 1059.24C1250.43 1077.77 1240.72 1097.9 1233.93 1116.43C1227.13 1134.97 1223.27 1151.87 1223.44 1163.98C1223.71 1182.3 1227.74 1231.22 1230.08 1257.49C1231.46 1247 1234.49 1229.33 1239.09 1216.49C1240.75 1211.87 1241.74 1206.01 1242.6 1199.25C1243.46 1192.52 1244.19 1184.86 1245.34 1176.73C1247.64 1160.44 1251.63 1142.07 1261.75 1124.49C1271.84 1106.97 1281.41 1092.79 1293.96 1080.41C1306.52 1068.03 1322.04 1057.48 1344 1047.21L1345.4 1046.56L1344.65 1047.91C1337.58 1060.64 1333.35 1068.57 1330.4 1075.65C1327.45 1082.73 1325.78 1088.97 1323.84 1098.32C1319.98 1116.95 1321.72 1133.07 1303.57 1153.36C1294.53 1163.46 1284.68 1171.19 1275.64 1179.16C1266.6 1187.15 1258.34 1195.41 1252.38 1206.65C1240.39 1229.21 1230.88 1262.7 1234.05 1291.21L1234.08 1291.53L1233.81 1291.69C1229.48 1294.29 1224.81 1295.18 1222.98 1295.3L1222.47 1295.33L1222.44 1294.82C1222.03 1286.79 1220.25 1273.41 1216.25 1259.43C1212.24 1245.45 1206.02 1230.92 1196.76 1220.53C1173.43 1194.38 1156.22 1180.02 1131.32 1177.56C1125.06 1176.95 1118.37 1176.48 1111.63 1176.02C1104.9 1175.56 1098.12 1175.11 1091.68 1174.51C1078.83 1173.32 1067.25 1171.55 1060.08 1167.97C1052.99 1164.42 1042.45 1157.95 1032.12 1151.68C1021.76 1145.4 1011.63 1139.32 1005.3 1136.51C998.957 1133.69 989.164 1129.9 979.636 1126.9C974.872 1125.4 970.182 1124.1 966.026 1123.22C961.861 1122.34 958.27 1121.88 955.689 1122.06L955.447 1121.1C962.037 1118.08 977.104 1113.29 994.182 1109.84C1011.26 1106.39 1030.42 1104.26 1045.18 1106.57C1074.58 1111.17 1102.63 1119.33 1129.6 1146.31C1143.05 1159.75 1148.01 1165.77 1151.46 1169.75C1154.88 1173.7 1156.79 1175.62 1164.19 1180.9C1176.37 1189.6 1188.3 1201.37 1194.38 1207.9C1189.96 1200.36 1181.33 1186.54 1170.21 1171.53C1156.61 1153.16 1139.33 1133.06 1121.54 1120.55C1085.86 1095.47 1074.15 1088.02 1066.71 1081.99C1065.84 1081.29 1064.33 1080.46 1062.29 1079.53C1060.25 1078.6 1057.73 1077.6 1054.85 1076.52C1049.08 1074.38 1041.92 1071.98 1034.47 1069.48C1019.6 1064.5 1003.55 1059.09 995.361 1054.46C979.023 1045.23 952.456 1021.49 934.041 996.698C926.711 986.831 920.087 980.504 914.797 976.605C909.491 972.694 905.568 971.254 903.64 971.089L903.665 970.09C911.764 969.795 925.35 970.097 939.818 971.959C954.279 973.821 969.667 977.248 981.339 983.227C1010.34 998.08 1029.86 1011.91 1037.71 1021.18C1039.68 1023.51 1042.24 1027.41 1045.12 1032.08C1048.01 1036.75 1051.24 1042.24 1054.55 1047.76C1061.19 1058.83 1068.14 1069.99 1073.39 1075.24C1083.96 1085.81 1102.65 1098.86 1112.57 1105.95C1117.53 1109.49 1123.72 1114.09 1129.17 1118.47C1132.62 1121.25 1135.79 1123.96 1138.15 1126.26C1132.08 1116.04 1124.11 1105.01 1112.31 1095.07C1098.83 1083.72 1089.93 1072.69 1084.23 1057.03C1081.39 1049.22 1079.71 1042.57 1078.08 1036.44C1076.44 1030.29 1074.86 1024.67 1072.23 1018.88C1066.91 1007.19 1064.47 1001.98 1059.6 997.107L1060.16 996.298C1071.79 1001.58 1089.58 1006.57 1109.46 1027.88C1129.38 1049.22 1133.63 1079.06 1134.69 1085.77C1135.24 1089.2 1135.93 1097.77 1137.78 1107.32C1139.64 1116.86 1142.63 1127.19 1147.68 1133.99C1152.79 1140.86 1159.13 1147.55 1165.42 1154.46C1171.69 1161.35 1177.91 1168.45 1182.71 1176.09C1190.34 1188.25 1199.11 1203.81 1203.6 1212.66C1194.43 1180.73 1161.36 1078.5 1157.07 1066.93C1154.78 1060.78 1150.29 1051.53 1144.69 1042.22C1139.09 1032.91 1132.39 1023.59 1125.72 1017.27C1119.02 1010.92 1110.65 1003.96 1101.58 998.236C1092.51 992.51 1082.77 988.041 1073.32 986.641C1054.19 983.808 1026.15 975.659 1009.78 962.137C993.512 948.695 981.076 934.849 970.517 924.994C965.208 920.039 959.218 914.401 953.364 909.956C950.439 907.734 947.56 905.82 944.829 904.441C942.095 903.06 939.538 902.231 937.252 902.146L937.251 901.148C972.613 899.733 1000.31 899.016 1035.09 918.18C1052.48 927.763 1065.43 940.005 1076.28 952.272C1081.71 958.403 1086.61 964.545 1091.27 970.36C1095.94 976.179 1100.37 981.667 1104.87 986.513C1121.2 1004.13 1130.91 1012.79 1139.99 1025.91C1135.99 1015.92 1129.29 998.735 1121.19 980.963C1111.65 960.009 1100.19 938.341 1088.94 926.744C1066.34 903.442 1033.86 878.729 1009.52 866.384C985.118 854.005 948.244 832.036 927.661 800.806C907.145 769.679 901.834 759.412 893.701 744.914C885.561 730.404 878.181 718.121 868.373 710.414L868.825 709.542ZM1318.05 1075.24C1307.79 1084.08 1283.75 1120.14 1275.27 1134.99C1268.48 1146.87 1258.13 1172.77 1251.89 1190.57C1268.5 1153.44 1298.6 1104.59 1318.05 1075.24ZM1290.82 880.435C1281.77 892.88 1262.3 960.809 1253.7 993.218L1254.41 947.256C1252.17 968.587 1247.69 1012.1 1247.69 1015.49C1247.69 1018.89 1242.5 1037.18 1239.91 1045.9C1238.85 1035.64 1236.09 1014.08 1233.55 1009.84C1234.96 1016.2 1237.44 1066.05 1233.9 1079.49C1231.07 1090.23 1226.12 1116.25 1226.12 1116.25C1237.91 1075.47 1244.82 1060.46 1263.95 1026.81C1263.95 1026.81 1247.69 1048.02 1240.62 1061.45C1240.97 1046.25 1284.81 902.709 1290.82 880.435ZM1001.62 1121.56C1041.67 1123.13 1112 1154.27 1126.23 1162.8C1140.47 1171.34 1141.54 1170.27 1139.94 1167.96C1090.66 1127.22 1027.19 1120.05 1001.62 1121.56ZM1086.47 1019.73C1096.09 1030.48 1122.3 1083.37 1134.2 1108.48C1128.78 1094.81 1117.16 1065.84 1114.05 1059.33C1110.16 1051.2 1102.03 1036.71 1086.47 1019.73ZM1186.17 927.811C1181.22 934.175 1173.28 949.563 1166.91 972.898C1161.82 991.566 1164.79 1002.36 1165.14 1010.73C1166.56 986.686 1175.75 952.038 1186.17 927.811ZM937.624 984.733C972.397 1007.76 1045.75 1057.19 1060.95 1070.71C1049.87 1054.69 970.955 993.398 937.624 984.733ZM1268.9 794.168C1249.1 802.653 1223.96 828.88 1208.45 847.554C1192.94 866.228 1175.87 898.18 1171.86 911.38C1179.88 897.002 1198.12 867.777 1210.57 852.504C1226.12 833.412 1244.15 815.381 1268.9 794.168ZM975.807 911.194C1026.01 930.993 1059.37 960.57 1086.59 976.48C1029.17 924.719 994.074 915.083 975.807 911.194ZM1148.34 747.852C1138.72 767.651 1146.17 821.573 1151.48 846.911C1152.89 841.962 1153.64 830.23 1152.23 818.209C1150.82 806.188 1147.99 770.833 1148.34 747.852ZM900.501 729.821C912.168 737.246 955.655 777.197 978.989 802.653C997.657 823.018 1027.78 852.15 1040.51 864.171C1036.02 861.821 1023.17 855.366 1005.22 847.018C1003.21 845.987 1001.3 845.097 999.496 844.372C1001.46 845.273 1003.36 846.155 1005.22 847.018C1027.48 858.451 1061.08 887.241 1076.22 901.294C1070.91 894.813 1058.04 879.162 1048.99 868.414C1037.68 854.979 1027.43 831.291 1015.76 811.845C1017.88 821.745 1024.6 836.241 1033.08 850.383C983.586 800.885 964.494 764.116 966.262 770.126C967.676 774.934 986.178 800.414 995.253 812.552C971.683 789.689 919.734 741.135 900.501 729.821ZM1258.3 641.433C1233.87 663.362 1207.8 733.829 1197.96 772.479C1204.32 758.573 1214.81 739.861 1219.76 725.225C1227.42 702.566 1238.07 679.538 1258.3 641.433ZM1006.52 708.318C1034.8 733.067 1062.03 765.948 1076.52 782.565C1059.01 748.791 1036.93 730.239 1006.52 708.318Z" fill="#121212"/>
</g>
<defs>
<clipPath id="clip0_574_357">
<rect width="1512" height="871" fill="white" transform="matrix(-1 0 0 1 1512 0)"/>
</clipPath>
</defs>
</svg>
