<svg width="1512" height="871" viewBox="0 0 1512 871" fill="none" xmlns="http://www.w3.org/2000/svg">
<g clip-path="url(#clip0_576_360)">
<path d="M457.811 1795.53C413.2 1833.82 389.635 1910.03 383.428 1943.35C379.788 1942.61 370.481 1939.52 362.374 1933.05C376.954 1874.44 366.465 1801.99 347.784 1751.63C329.103 1701.27 287.978 1673.33 256.12 1626.44C224.262 1579.55 232.362 1546.99 229.495 1506.97C226.628 1466.96 222.522 1452.95 200.221 1396.12C285.606 1450.92 317.071 1500.75 349.204 1579.09C381.338 1657.42 361.898 1735.58 370.642 1776.38C377.637 1809.02 378.32 1854.93 377.787 1873.8C389.292 1823.25 413.808 1712.02 419.826 1671.55C427.349 1620.96 406.391 1526.17 368.971 1442.65C331.551 1359.12 318.228 1274.33 315.754 1231.38C313.281 1188.42 322.83 1105.95 328.778 1067.11C333.537 1036.04 333.108 1003.13 332.299 990.563C344.125 1008.35 373.6 1052.92 396.893 1088.95C426.009 1133.97 451.144 1203.14 467.104 1301.74C483.063 1400.35 442.079 1555.63 437.022 1576.64C431.966 1597.65 429.186 1663.08 426.084 1691.83C423.602 1714.83 412.436 1776.99 407.163 1805.2C448.201 1727.69 535.938 1558.33 558.578 1500.94C586.879 1429.2 563.213 1360.23 550.397 1333.09C537.58 1305.95 530.41 1253.39 535.421 1227.14C540.431 1200.89 541.08 1179.29 546.983 1135.22C579.424 1170.92 589.637 1201.31 606.12 1250.37L606.278 1250.84C622.853 1300.17 599.052 1382.98 592.028 1418.68C626.448 1351.5 634.436 1258.35 596.956 1192.01C559.477 1125.67 506.205 1099.1 471.894 1059.36C437.584 1019.62 423.068 966.077 413.052 923.608C403.035 881.138 376.799 853.696 349.336 829.829C474.995 867.448 527.556 938.789 563.602 987.714L564.355 988.736C600.424 1037.68 608.099 1147.89 609.556 1170.52C611.012 1193.15 615.906 1201.28 631.576 1290.87C653.895 1230.29 629.795 1064.05 626.128 1052.34C622.462 1040.64 605.204 985.233 597.097 945.262C588.989 905.292 578.173 891.131 558.843 862.371C539.514 833.61 503.445 784.661 485.447 740.375C467.448 696.089 471.199 645.743 470.149 597.744C469.309 559.345 457.716 526.785 452.025 515.305C453.479 513.754 468.996 523.709 519.433 575.928C582.478 641.202 604.964 718.991 610.12 780.999C615.277 843.008 604.029 899.081 603.334 915.439C602.639 931.797 620.775 991.804 628.745 1016.05C635.121 1035.45 641.433 1068.35 643.792 1082.38C646.588 1074.53 651.626 1052.92 649.406 1029.29C646.631 999.753 634.66 949.545 635.853 918.298C637.046 887.051 645.435 863.497 660.487 834.854C675.54 806.211 679.763 785.839 683.108 760.862C723.965 829.895 722.805 888.814 717.296 929.952C711.787 971.09 681.105 1010.35 667.673 1032.48C654.24 1054.61 648.036 1112.11 648.857 1133.9C649.677 1155.7 652.531 1218.15 650.262 1246.26C648.447 1268.75 637.263 1309.82 631.898 1327.55C651.598 1279.09 694.306 1172 707.533 1131.29C720.761 1090.59 757.18 1015.55 773.737 983.124C777.2 979.6 789.49 962.651 810.945 923.05C837.764 873.549 855.453 858.719 897.646 817.259C939.839 775.799 1023.16 762.28 1044.91 756.219C1033.25 765.126 1000.75 812.371 983.786 838.515C966.825 864.66 938.202 899.711 881.329 916.772C824.457 933.833 792.456 966.189 778.827 989.788C765.198 1013.39 724.875 1124.64 715.306 1157.01C705.737 1189.38 663.401 1310.08 648.44 1349.21C656.724 1337.61 692.555 1287.82 721.132 1247.52C749.709 1207.23 779.014 1178.25 826.217 1110.54C873.421 1042.84 936.498 968.279 1020.04 908.427C1103.58 848.575 1223.38 836.203 1282.21 826.881C1259.48 840.288 1240.61 863.934 1219.68 891.79C1198.75 919.646 1184.88 939.474 1133.61 998.414C1082.35 1057.35 999.853 1092.67 945.722 1111.59C891.591 1130.52 817.121 1172.89 763.614 1215.08C710.106 1257.26 643.915 1383 624.501 1416.29C649.399 1386.73 672.329 1371.85 715.204 1336.46C758.079 1301.08 801.604 1244.09 878.907 1214.06C956.211 1184.04 1013.31 1193.18 1086.38 1205.95C1066.45 1204.03 1034.99 1226.74 1010.2 1244.36C985.406 1261.98 955.858 1287.18 918.328 1310.57C880.798 1333.96 820.502 1343.09 780.046 1343.65C739.59 1344.22 693.488 1370.2 662.031 1392.9C630.575 1415.61 595.774 1463.3 582.781 1487.73C569.788 1512.16 459.653 1742.68 440.771 1788.76C447.586 1776.96 476.799 1737.5 500.863 1708.57C524.927 1679.64 560.155 1656.69 585.295 1630.89C610.435 1605.09 621.88 1547.55 625.953 1533.89C630.026 1520.23 647.104 1459.7 694.144 1421.13C741.185 1382.57 779.292 1377.2 805.01 1369.43C793.348 1378.33 786.73 1388.67 772.465 1411.43C758.2 1434.2 752.946 1456.68 736.864 1487.42C720.782 1518.17 699.367 1538.49 668.304 1558.26C637.241 1578.03 616.069 1602.11 599.699 1623.85C609.255 1613.91 643.256 1594.53 665.793 1582.6C688.329 1570.66 730.903 1548.69 755.892 1529.6C780.882 1510.52 826.42 1444.08 845.139 1427.15C863.858 1410.21 908.098 1386.97 972.467 1364.18C1023.96 1345.95 1103.6 1352.83 1136.99 1358.55C1128.32 1358.13 1101.96 1366.57 1065.89 1403.62C1020.81 1449.92 959.121 1491.76 922.772 1506.34C886.422 1520.91 783.807 1533.34 766.708 1543.77C749.609 1554.19 723.301 1566.37 642.122 1608.59C560.942 1650.81 475.71 1756.8 460.172 1777.9C469.532 1769.43 503.881 1741.88 537.685 1723.97C571.49 1706.06 556.011 1709.97 619.317 1661.62C682.623 1613.27 742.92 1604.14 805.171 1602.76C867.422 1601.37 961.485 1641.64 986.993 1657.76C965.152 1653.34 907.4 1665.8 879.38 1674.01C851.361 1682.22 788.113 1713.39 756.761 1724.14C725.41 1734.9 659.295 1726.05 606.449 1724.21C553.604 1722.36 513.575 1747.66 457.811 1795.53Z" fill="black"/>
<path d="M-270.19 1246.53C-314.801 1284.82 -338.366 1361.03 -344.573 1394.35C-348.213 1393.61 -357.52 1390.52 -365.627 1384.05C-351.047 1325.44 -361.536 1252.99 -380.217 1202.63C-398.898 1152.27 -440.023 1124.33 -471.881 1077.44C-503.739 1030.55 -495.639 997.988 -498.506 957.972C-501.373 917.956 -505.479 903.946 -527.78 847.119C-442.395 901.925 -410.93 951.753 -378.797 1030.09C-346.663 1108.42 -366.103 1186.58 -357.359 1227.38C-350.364 1260.02 -349.681 1305.93 -350.214 1324.8C-338.709 1274.25 -314.193 1163.02 -308.175 1122.55C-300.652 1071.96 -321.61 977.174 -359.03 893.646C-396.45 810.118 -409.773 725.33 -412.247 682.376C-414.72 639.421 -405.171 556.948 -399.223 518.113C-394.464 487.044 -394.893 454.134 -395.702 441.563C-383.876 459.348 -354.401 503.925 -331.108 539.946C-301.992 584.973 -276.857 654.144 -260.897 752.744C-244.938 851.345 -285.922 1006.63 -290.979 1027.64C-296.035 1048.65 -298.815 1114.08 -301.917 1142.83C-304.399 1165.83 -315.565 1227.99 -320.838 1256.2C-279.8 1178.69 -192.063 1009.33 -169.423 951.939C-141.122 880.203 -164.788 811.229 -177.604 784.088C-190.421 756.948 -197.591 704.391 -192.58 678.142C-187.57 651.893 -186.921 630.294 -181.018 586.217C-148.577 621.917 -138.363 652.314 -121.881 701.368L-121.723 701.838C-105.148 751.168 -128.949 833.975 -135.973 869.676C-101.553 802.498 -93.5654 709.348 -131.044 643.011C-168.524 576.674 -221.796 550.098 -256.107 510.358C-290.417 470.617 -304.933 417.077 -314.949 374.608C-324.965 332.138 -351.202 304.696 -378.665 280.829C-253.006 318.448 -200.445 389.789 -164.399 438.714L-163.646 439.736C-127.577 488.685 -119.902 598.888 -118.445 621.517C-116.989 644.145 -112.095 652.278 -96.4246 741.867C-74.1055 681.295 -98.2058 515.051 -101.872 503.344C-105.539 491.636 -122.797 436.233 -130.904 396.262C-139.012 356.292 -149.828 342.131 -169.158 313.371C-188.487 284.61 -224.556 235.661 -242.554 191.375C-260.553 147.089 -256.802 96.7425 -257.852 48.744C-258.692 10.3451 -270.285 -22.2152 -275.976 -33.6954C-274.522 -35.2456 -259.005 -25.291 -208.568 26.9281C-145.523 92.2019 -123.037 169.991 -117.881 231.999C-112.724 294.008 -123.972 350.081 -124.667 366.439C-125.362 382.797 -107.226 442.804 -99.256 467.053C-92.8804 486.451 -86.568 519.352 -84.2087 533.377C-81.4125 525.526 -76.3752 503.916 -78.5951 480.288C-81.37 450.753 -93.3409 400.545 -92.1477 369.298C-90.9545 338.051 -82.566 314.497 -67.5136 285.854C-52.4612 257.211 -48.2376 236.839 -44.8929 211.862C-4.03599 280.895 -5.19597 339.814 -10.7048 380.952C-16.2137 422.09 -46.8959 461.352 -60.3283 483.482C-73.7607 505.613 -79.9646 563.109 -79.1443 584.904C-78.3241 606.699 -75.4699 669.147 -77.7389 697.259C-79.5541 719.749 -90.7377 760.825 -96.1027 778.551C-76.4025 730.091 -33.6953 622.995 -20.4678 582.293C-7.24036 541.59 29.1795 466.554 45.736 434.124C49.1991 430.6 61.489 413.651 82.9441 374.05C109.763 324.549 127.452 309.719 169.645 268.259C211.838 226.799 295.157 213.28 316.906 207.219C305.245 216.126 272.746 263.371 255.785 289.515C238.824 315.66 210.201 350.711 153.328 367.772C96.4557 384.833 64.455 417.189 50.8258 440.788C37.1967 464.388 -3.12603 575.642 -12.695 608.01C-22.2641 640.379 -64.6002 761.084 -79.5606 800.209C-71.2768 788.606 -35.4459 738.816 -6.86919 698.524C21.7076 658.232 51.0126 629.254 98.2163 561.545C145.42 493.836 208.497 419.279 292.037 359.427C375.578 299.575 495.384 287.203 554.211 277.881C531.478 291.288 512.608 314.934 491.679 342.79C470.75 370.646 456.878 390.474 405.614 449.414C354.35 508.354 271.852 543.669 217.721 562.592C163.59 581.516 89.1201 623.888 35.6127 666.076C-17.8947 708.264 -84.0857 834.001 -103.5 867.294C-78.6024 837.726 -55.6724 822.85 -12.797 787.464C30.0783 752.077 73.6028 695.092 150.906 665.064C228.21 635.036 285.312 644.178 358.379 656.954C338.447 655.032 306.99 677.74 282.198 695.358C257.405 712.976 227.857 738.182 190.327 761.572C152.797 784.962 92.5007 794.086 52.0451 794.651C11.5893 795.216 -34.5132 821.197 -65.9697 843.904C-97.4261 866.612 -132.227 914.296 -145.22 938.729C-158.213 963.161 -268.348 1193.68 -287.23 1239.76C-280.415 1227.96 -251.202 1188.5 -227.138 1159.57C-203.074 1130.64 -167.846 1107.69 -142.706 1081.89C-117.566 1056.09 -106.121 998.552 -102.048 984.89C-97.9754 971.228 -80.8968 910.701 -33.8565 872.134C13.1838 833.566 51.2913 828.2 77.0089 820.428C65.3472 829.335 58.7294 839.665 44.464 862.432C30.1986 885.198 24.9452 907.676 8.86315 938.424C-7.21893 969.173 -28.6336 989.487 -59.6966 1009.26C-90.7596 1029.03 -111.931 1053.11 -128.302 1074.85C-118.746 1064.91 -84.7447 1045.53 -62.2083 1033.6C-39.6718 1021.66 2.90206 999.692 27.8914 980.605C52.8808 961.518 98.4186 895.081 117.138 878.146C135.857 861.21 180.097 837.971 244.466 815.184C295.961 796.955 375.601 803.831 408.984 809.547C400.316 809.134 373.961 817.57 337.892 854.615C292.807 900.922 231.12 942.763 194.771 957.338C158.421 971.912 55.8064 984.343 38.7074 994.766C21.6083 1005.19 -4.69951 1017.37 -85.8792 1059.59C-167.059 1101.81 -252.291 1207.8 -267.829 1228.9C-258.469 1220.43 -224.12 1192.88 -190.316 1174.97C-156.511 1157.06 -171.99 1160.97 -108.684 1112.62C-45.3775 1064.27 14.919 1055.14 77.1701 1053.76C139.421 1052.37 233.484 1092.64 258.992 1108.76C237.151 1104.34 179.399 1116.8 151.379 1125.01C123.36 1133.22 60.1121 1164.39 28.7604 1175.14C-2.59134 1185.9 -68.7059 1177.05 -121.551 1175.21C-174.397 1173.36 -214.426 1198.66 -270.19 1246.53Z" fill="black"/>
</g>
<defs>
<clipPath id="clip0_576_360">
<rect width="1512" height="871" fill="white" transform="matrix(-1 0 0 1 1512 0)"/>
</clipPath>
</defs>
</svg>
